G04*
G04 #@! TF.GenerationSoftware,Altium Limited,Altium Designer,24.5.2 (23)*
G04*
G04 Layer_Physical_Order=1*
G04 Layer_Color=255*
%FSLAX44Y44*%
%MOMM*%
G71*
G04*
G04 #@! TF.SameCoordinates,3E72796F-A718-4ACC-903D-CC6A842A6AC0*
G04*
G04*
G04 #@! TF.FilePolarity,Positive*
G04*
G01*
G75*
%ADD13C,0.2540*%
%ADD20R,0.8890X0.7620*%
%ADD21R,3.4000X1.6000*%
%ADD22R,0.7620X0.8890*%
%ADD23R,1.0160X1.5240*%
%ADD24R,0.9500X0.9000*%
%ADD25R,2.8000X1.6000*%
%ADD26R,1.7800X3.2000*%
%ADD27R,1.6000X1.0000*%
%ADD28R,0.3500X0.5000*%
%ADD29R,0.3000X1.1500*%
%ADD30R,0.6000X1.1500*%
G04:AMPARAMS|DCode=31|XSize=1.524mm|YSize=1.524mm|CornerRadius=0mm|HoleSize=0mm|Usage=FLASHONLY|Rotation=180.000|XOffset=0mm|YOffset=0mm|HoleType=Round|Shape=Octagon|*
%AMOCTAGOND31*
4,1,8,-0.7620,0.3810,-0.7620,-0.3810,-0.3810,-0.7620,0.3810,-0.7620,0.7620,-0.3810,0.7620,0.3810,0.3810,0.7620,-0.3810,0.7620,-0.7620,0.3810,0.0*
%
%ADD31OCTAGOND31*%

%ADD32R,1.0000X0.5000*%
%ADD57C,0.2032*%
%ADD58C,1.2700*%
%ADD59C,0.3810*%
%ADD60R,3.8000X3.8000*%
%ADD61O,0.9000X0.2500*%
%ADD62O,0.2500X0.9000*%
%ADD63C,0.3894*%
%ADD64C,0.5080*%
%ADD65R,1.0220X1.0249*%
%ADD66R,0.7829X2.9288*%
%ADD67R,1.5136X4.9265*%
%ADD68R,3.4000X3.6975*%
%ADD69R,0.7620X2.1935*%
%ADD70R,4.7577X2.0870*%
%ADD71R,2.2178X2.3152*%
%ADD72R,0.3500X2.4250*%
%ADD73R,1.9710X1.0754*%
%ADD74R,0.6000X2.5924*%
%ADD75R,2.8000X7.5612*%
%ADD76R,3.0680X4.9095*%
%ADD77R,0.6000X6.3962*%
%ADD78R,13.0815X0.7504*%
%ADD79R,8.8065X0.7504*%
%ADD80R,1.6000X2.0179*%
%ADD81R,0.9500X6.4227*%
%ADD82R,0.8095X2.3532*%
%ADD83R,3.5911X0.9017*%
%ADD84R,0.8890X2.9968*%
%ADD85R,1.0056X4.9265*%
%ADD86R,0.7504X6.2340*%
%ADD87R,2.5365X4.0097*%
%ADD88R,8.2735X0.7620*%
%ADD89R,2.9433X0.6171*%
%ADD90R,2.2178X2.2897*%
%ADD91C,1.6000*%
%ADD92C,0.6500*%
%ADD93O,1.0000X2.1000*%
%ADD94O,1.0000X1.8000*%
%ADD95C,3.0000*%
%ADD96C,0.6000*%
G36*
X1390976Y1095910D02*
X1389198Y1095173D01*
X1389007Y1095364D01*
X1387165Y1096427D01*
X1385110Y1096978D01*
X1382982D01*
X1380927Y1096427D01*
X1379085Y1095364D01*
X1377580Y1093859D01*
X1376517Y1092017D01*
X1375966Y1089962D01*
Y1087834D01*
X1376517Y1085779D01*
X1377572Y1083952D01*
Y1047291D01*
X1374665D01*
Y1033005D01*
X1373989Y1032553D01*
X1372590Y1030460D01*
X1372099Y1027990D01*
Y1022320D01*
X1366970D01*
Y1014491D01*
X1331595D01*
Y1030880D01*
X1295500D01*
Y1105309D01*
X1312895D01*
X1313575Y1103666D01*
X1313180Y1103271D01*
Y1090571D01*
X1319340Y1084410D01*
X1313180Y1078250D01*
Y1065550D01*
X1319530Y1059200D01*
X1332230D01*
X1338580Y1065550D01*
Y1065914D01*
X1344048D01*
X1345875Y1064859D01*
X1347930Y1064308D01*
X1350058D01*
X1352113Y1064859D01*
X1353955Y1065922D01*
X1355460Y1067427D01*
X1356523Y1069269D01*
X1357074Y1071324D01*
Y1073452D01*
X1356523Y1075507D01*
X1355758Y1076833D01*
X1356523Y1078159D01*
X1357074Y1080214D01*
Y1082342D01*
X1356523Y1084397D01*
X1355468Y1086224D01*
Y1091904D01*
X1355391Y1092295D01*
X1355051Y1094871D01*
X1353906Y1097636D01*
X1352084Y1100011D01*
X1349710Y1101833D01*
X1346944Y1102978D01*
X1344368Y1103317D01*
X1343977Y1103395D01*
X1339997D01*
X1339907Y1103531D01*
X1340857Y1105309D01*
X1390976D01*
Y1095910D01*
D02*
G37*
G36*
X1406906Y1084852D02*
X1406716Y1084567D01*
X1406322Y1082585D01*
Y1034000D01*
X1406081Y1033952D01*
X1405135Y1033321D01*
X1396955D01*
X1396155Y1033855D01*
Y1110488D01*
X1290320D01*
Y935252D01*
X1369998D01*
Y905762D01*
Y830150D01*
X1341998D01*
Y916178D01*
X1256538Y916178D01*
Y1134110D01*
X1406906D01*
Y1084852D01*
D02*
G37*
G36*
X1549853Y1178060D02*
X1552995Y1177218D01*
X1556001Y1175973D01*
X1558819Y1174346D01*
X1561400Y1172365D01*
X1563701Y1170064D01*
X1565682Y1167483D01*
X1567309Y1164665D01*
X1568554Y1161659D01*
X1569396Y1158517D01*
X1569821Y1155291D01*
Y1153664D01*
Y1033994D01*
X1456055D01*
Y1025221D01*
X1452972Y1023573D01*
X1452302Y1023370D01*
X1450874Y1024429D01*
Y1082584D01*
X1450479Y1084566D01*
X1449357Y1086247D01*
X1447676Y1087370D01*
X1445694Y1087764D01*
X1426642D01*
X1426637Y1087765D01*
X1412086D01*
Y1134110D01*
X1411691Y1136092D01*
X1410569Y1137773D01*
X1408888Y1138895D01*
X1406906Y1139289D01*
X1373620D01*
X1372321Y1141068D01*
X1372554Y1141936D01*
Y1144056D01*
X1374554D01*
Y1159216D01*
X1354394D01*
Y1144056D01*
X1356394D01*
Y1141936D01*
X1356627Y1141068D01*
X1355328Y1139289D01*
X1256538D01*
X1254556Y1138895D01*
X1252876Y1137773D01*
X1251753Y1136092D01*
X1251358Y1134110D01*
Y1033879D01*
X1249581Y1032420D01*
X1249140Y1032507D01*
X1215140D01*
X1213598Y1034014D01*
Y1044959D01*
X1207248Y1051309D01*
X1213598Y1057659D01*
Y1070359D01*
X1207248Y1076709D01*
X1194548D01*
X1188198Y1070359D01*
Y1057659D01*
X1194548Y1051309D01*
X1188198Y1044959D01*
Y1036446D01*
X1176140D01*
Y1036447D01*
X1163056D01*
Y1051688D01*
X1160576D01*
Y1144535D01*
X1160615Y1144551D01*
X1160632Y1144591D01*
X1175446D01*
Y1144056D01*
X1195606D01*
Y1159216D01*
X1175446D01*
Y1158681D01*
X1160526D01*
Y1158742D01*
X1156877Y1158261D01*
X1153476Y1156852D01*
X1150555Y1154612D01*
X1148314Y1151691D01*
X1147807Y1150467D01*
X1146029D01*
X1145589Y1151530D01*
X1143296Y1154519D01*
X1140308Y1156812D01*
X1136828Y1158253D01*
X1133094Y1158744D01*
Y1158681D01*
X1118174D01*
Y1159216D01*
X1098014D01*
Y1144056D01*
X1118174D01*
Y1144591D01*
X1133094D01*
Y1144541D01*
X1133253Y1144475D01*
X1133319Y1144316D01*
X1133368D01*
Y1051687D01*
X1130889D01*
Y1037182D01*
X1109951D01*
X1108522Y1038353D01*
Y1061885D01*
X1108423Y1062385D01*
Y1066965D01*
X1107902D01*
X1107646Y1067298D01*
Y1069426D01*
X1107095Y1071481D01*
X1106032Y1073323D01*
X1104527Y1074828D01*
X1102685Y1075891D01*
X1100630Y1076442D01*
X1098502D01*
X1096447Y1075891D01*
X1096000Y1075633D01*
X1094222Y1076660D01*
Y1087340D01*
X1094123Y1087840D01*
Y1092420D01*
X1089543D01*
X1089043Y1092520D01*
X1079543D01*
X1079042Y1092420D01*
X1069043D01*
X1068543Y1092520D01*
X1043178D01*
X1042678Y1092420D01*
X1027271D01*
Y1036249D01*
X980179D01*
Y1153664D01*
Y1155291D01*
X980604Y1158517D01*
X981446Y1161659D01*
X982691Y1164665D01*
X984318Y1167483D01*
X986299Y1170064D01*
X988599Y1172365D01*
X991181Y1174346D01*
X993999Y1175973D01*
X997004Y1177218D01*
X1000147Y1178060D01*
X1003373Y1178485D01*
X1546627D01*
X1549853Y1178060D01*
D02*
G37*
G36*
X1445694Y1022216D02*
X1415003D01*
Y1027989D01*
X1414512Y1030459D01*
X1413113Y1032552D01*
X1411499Y1033630D01*
Y1041944D01*
X1411499D01*
Y1067344D01*
X1411499D01*
Y1082584D01*
X1445694D01*
Y1022216D01*
D02*
G37*
G36*
X1190865Y1009020D02*
X1209915D01*
X1209960Y1007261D01*
Y990353D01*
X1210060Y989853D01*
Y978758D01*
X1209915Y977040D01*
X1195725D01*
X1194728Y978738D01*
X1195154Y980877D01*
X1194662Y983347D01*
X1194641Y983379D01*
X1194662Y983411D01*
X1195154Y985881D01*
X1194662Y988350D01*
X1193263Y990444D01*
X1191170Y991843D01*
X1188700Y992335D01*
X1183030D01*
Y992460D01*
X1182905D01*
Y998130D01*
X1182413Y1000600D01*
X1181014Y1002693D01*
X1180646Y1002940D01*
X1180545Y1003965D01*
X1181609Y1005807D01*
X1182160Y1007862D01*
Y1009990D01*
X1182150Y1010025D01*
X1183232Y1011436D01*
X1190865D01*
Y1009020D01*
D02*
G37*
G36*
X1355271Y987880D02*
X1354846Y985743D01*
X1355337Y983273D01*
X1355359Y983241D01*
X1355337Y983209D01*
X1354846Y980739D01*
X1355337Y978270D01*
X1356736Y976176D01*
X1358830Y974777D01*
X1361300Y974285D01*
X1366970D01*
Y974160D01*
X1367095D01*
Y968490D01*
X1367587Y966020D01*
X1368986Y963926D01*
X1369821Y963368D01*
X1370005Y961107D01*
X1369455Y960557D01*
X1368391Y958715D01*
X1367840Y956660D01*
Y954984D01*
X1355492D01*
Y954984D01*
X1337499D01*
Y976267D01*
X1337400Y976767D01*
Y989578D01*
X1354274D01*
X1355271Y987880D01*
D02*
G37*
G36*
X1134995Y938630D02*
X1135487Y936160D01*
X1136886Y934066D01*
X1138499Y932989D01*
Y924675D01*
X1138499D01*
Y899275D01*
X1138499D01*
Y884035D01*
X1104304D01*
Y944403D01*
X1134995D01*
Y938630D01*
D02*
G37*
G36*
X1213598Y935740D02*
X1251358D01*
Y916178D01*
X1251753Y914196D01*
X1252876Y912515D01*
X1254556Y911393D01*
X1256538Y910999D01*
X1268915D01*
Y902354D01*
X1253693D01*
X1253192Y902254D01*
X1248613D01*
Y902222D01*
X1246835Y901196D01*
X1246119Y901609D01*
X1244064Y902160D01*
X1241936D01*
X1239881Y901609D01*
X1238054Y900554D01*
X1226800D01*
X1226637Y900522D01*
X1223367Y900091D01*
X1220168Y898766D01*
X1217421Y896659D01*
X1215313Y893912D01*
X1213988Y890713D01*
X1213558Y887443D01*
X1213526Y887280D01*
Y828040D01*
X1213602Y827657D01*
X1213944Y825056D01*
X1215096Y822276D01*
X1216928Y819888D01*
X1219316Y818056D01*
X1222096Y816904D01*
X1224697Y816562D01*
X1225080Y816486D01*
X1259000D01*
X1259586Y816602D01*
X1261571Y816863D01*
X1263968Y817856D01*
X1266025Y819435D01*
X1267604Y821492D01*
X1268596Y823888D01*
X1268858Y825874D01*
X1268974Y826460D01*
Y829367D01*
X1269837Y831008D01*
X1275002D01*
X1275088Y830686D01*
X1276152Y828843D01*
X1277656Y827339D01*
X1279499Y826275D01*
X1281554Y825724D01*
X1283681D01*
X1285736Y826275D01*
X1287579Y827339D01*
X1289083Y828843D01*
X1290147Y830686D01*
X1290698Y832741D01*
Y834868D01*
X1290579Y835309D01*
X1291662Y836720D01*
X1295500D01*
X1296000Y836620D01*
X1298110D01*
Y835648D01*
X1298992Y833520D01*
X1300620Y831891D01*
X1302748Y831010D01*
X1305052D01*
X1307180Y831891D01*
X1308808Y833520D01*
X1309690Y835648D01*
Y837952D01*
X1308808Y840080D01*
X1307180Y841708D01*
X1307163Y841715D01*
X1307180Y841800D01*
Y851488D01*
X1326680D01*
X1328662Y851882D01*
X1330343Y853005D01*
X1331465Y854685D01*
X1331859Y856667D01*
Y905762D01*
X1331465Y907744D01*
X1330479Y909221D01*
X1330712Y910113D01*
X1331187Y910999D01*
X1336819D01*
Y905762D01*
Y830150D01*
X1336918Y829650D01*
Y825070D01*
X1341498D01*
X1341998Y824970D01*
X1369998D01*
X1370499Y825070D01*
X1375078D01*
Y829650D01*
X1375178Y830150D01*
Y905762D01*
Y930173D01*
X1386942D01*
Y914932D01*
X1387822D01*
X1388389Y914194D01*
Y912066D01*
X1388940Y910011D01*
X1390003Y908169D01*
X1391508Y906664D01*
X1393350Y905601D01*
X1395405Y905050D01*
X1397533D01*
X1399588Y905601D01*
X1401430Y906664D01*
X1401843Y907077D01*
X1403027Y908090D01*
X1404210Y907077D01*
X1404623Y906664D01*
X1406465Y905601D01*
X1408521Y905050D01*
X1410648D01*
X1412703Y905601D01*
X1414545Y906664D01*
X1416050Y908169D01*
X1417114Y910011D01*
X1417664Y912066D01*
Y914194D01*
X1418232Y914933D01*
X1419109D01*
Y929437D01*
X1440053D01*
X1441478Y928267D01*
Y904735D01*
X1441577Y904235D01*
Y899655D01*
X1442098D01*
X1442354Y899322D01*
Y897194D01*
X1442905Y895139D01*
X1443968Y893297D01*
X1445473Y891792D01*
X1447315Y890729D01*
X1449370Y890178D01*
X1451498D01*
X1453553Y890729D01*
X1454000Y890987D01*
X1455778Y889960D01*
Y879280D01*
X1455877Y878780D01*
Y874200D01*
X1460457D01*
X1460957Y874100D01*
X1470457D01*
X1470958Y874200D01*
X1480957D01*
X1481457Y874100D01*
X1506822D01*
X1507322Y874200D01*
X1522729D01*
Y930371D01*
X1569821D01*
Y813664D01*
Y812037D01*
X1569396Y808811D01*
X1568554Y805668D01*
X1567309Y802663D01*
X1565682Y799845D01*
X1563701Y797263D01*
X1561400Y794963D01*
X1558819Y792982D01*
X1556001Y791355D01*
X1552995Y790110D01*
X1549853Y789268D01*
X1546627Y788843D01*
X1003373D01*
X1000147Y789268D01*
X997004Y790110D01*
X993999Y791355D01*
X991181Y792982D01*
X988599Y794963D01*
X986299Y797263D01*
X984318Y799845D01*
X982691Y802663D01*
X981446Y805668D01*
X980604Y808811D01*
X980179Y812037D01*
Y813664D01*
Y932626D01*
X1093945D01*
Y941399D01*
X1097028Y943047D01*
X1097697Y943250D01*
X1099125Y942190D01*
Y884035D01*
X1099519Y882053D01*
X1100642Y880372D01*
X1102322Y879249D01*
X1104304Y878855D01*
X1138499D01*
X1138999Y878955D01*
X1143183D01*
X1143683Y878855D01*
X1191260D01*
X1193242Y879249D01*
X1194922Y880372D01*
X1196045Y882053D01*
X1196440Y884035D01*
Y904905D01*
X1196045Y906887D01*
X1194922Y908567D01*
X1193242Y909690D01*
X1191260Y910085D01*
X1173745D01*
X1173079Y911421D01*
X1172966Y911862D01*
X1173972Y913605D01*
X1174523Y915660D01*
Y917788D01*
X1174427Y918147D01*
X1175333Y919328D01*
X1175333D01*
Y933614D01*
X1176011Y934066D01*
X1177410Y936160D01*
X1177901Y938630D01*
Y944300D01*
X1183030D01*
Y952129D01*
X1213598D01*
Y935740D01*
D02*
G37*
G36*
X1239881Y886551D02*
X1241936Y886000D01*
X1244064D01*
X1246119Y886551D01*
X1246735Y886906D01*
X1247448Y886711D01*
X1248609Y885936D01*
X1248613Y885919D01*
Y884474D01*
X1248900D01*
X1248907Y884438D01*
X1250030Y882757D01*
X1251711Y881635D01*
X1253693Y881240D01*
X1273402D01*
X1273903Y881340D01*
X1275902D01*
X1276402Y881240D01*
X1279902D01*
X1280402Y881340D01*
X1290820D01*
Y876500D01*
X1264822D01*
Y874768D01*
X1263204Y874097D01*
X1261267Y872611D01*
X1260251Y871287D01*
X1259830Y871178D01*
X1258436Y871304D01*
X1258199Y871415D01*
X1257466Y872685D01*
X1255961Y874190D01*
X1254119Y875253D01*
X1252064Y875804D01*
X1249936D01*
X1247881Y875253D01*
X1246039Y874190D01*
X1244534Y872685D01*
X1243471Y870843D01*
X1242920Y868788D01*
Y868224D01*
X1242821Y867724D01*
Y841800D01*
X1242837Y841715D01*
X1242820Y841708D01*
X1241191Y840080D01*
X1240310Y837952D01*
Y835648D01*
X1241191Y833520D01*
X1242820Y831891D01*
X1244460Y831212D01*
X1244106Y829434D01*
X1226474D01*
Y885866D01*
X1226749Y887331D01*
X1228214Y887606D01*
X1238054D01*
X1239881Y886551D01*
D02*
G37*
%LPC*%
G36*
X1541998Y1168953D02*
X1538002D01*
X1534082Y1168173D01*
X1530390Y1166644D01*
X1527067Y1164423D01*
X1524241Y1161597D01*
X1522021Y1158274D01*
X1520491Y1154582D01*
X1519712Y1150662D01*
Y1146666D01*
X1520491Y1142746D01*
X1522021Y1139053D01*
X1524241Y1135731D01*
X1527067Y1132905D01*
X1530390Y1130684D01*
X1534082Y1129155D01*
X1538002Y1128375D01*
X1541998D01*
X1545918Y1129155D01*
X1549611Y1130684D01*
X1552934Y1132905D01*
X1555759Y1135731D01*
X1557980Y1139053D01*
X1559509Y1142746D01*
X1560289Y1146666D01*
Y1150662D01*
X1559509Y1154582D01*
X1557980Y1158274D01*
X1555759Y1161597D01*
X1552934Y1164423D01*
X1549611Y1166644D01*
X1545918Y1168173D01*
X1541998Y1168953D01*
D02*
G37*
G36*
X1011998D02*
X1008001D01*
X1004082Y1168173D01*
X1000389Y1166644D01*
X997066Y1164423D01*
X994240Y1161597D01*
X992020Y1158274D01*
X990491Y1154582D01*
X989711Y1150662D01*
Y1146666D01*
X990491Y1142746D01*
X992020Y1139053D01*
X994240Y1135731D01*
X997066Y1132905D01*
X1000389Y1130684D01*
X1004082Y1129155D01*
X1008001Y1128375D01*
X1011998D01*
X1015918Y1129155D01*
X1019610Y1130684D01*
X1022933Y1132905D01*
X1025759Y1135731D01*
X1027979Y1139053D01*
X1029509Y1142746D01*
X1030288Y1146666D01*
Y1150662D01*
X1029509Y1154582D01*
X1027979Y1158274D01*
X1025759Y1161597D01*
X1022933Y1164423D01*
X1019610Y1166644D01*
X1015918Y1168173D01*
X1011998Y1168953D01*
D02*
G37*
G36*
X1451986Y1159216D02*
X1431826D01*
Y1144056D01*
X1434861D01*
Y1139337D01*
X1434377Y1138499D01*
X1433826Y1136444D01*
Y1134316D01*
X1434377Y1132261D01*
X1435440Y1130419D01*
X1436945Y1128914D01*
X1438787Y1127851D01*
X1440842Y1127300D01*
X1442970D01*
X1445025Y1127851D01*
X1446867Y1128914D01*
X1448372Y1130419D01*
X1449435Y1132261D01*
X1449986Y1134316D01*
Y1136444D01*
X1449435Y1138499D01*
X1448951Y1139337D01*
Y1144056D01*
X1451986D01*
Y1159216D01*
D02*
G37*
G36*
X1541998Y838953D02*
X1538002D01*
X1534082Y838173D01*
X1530390Y836644D01*
X1527067Y834424D01*
X1524241Y831598D01*
X1522021Y828275D01*
X1520491Y824582D01*
X1519711Y820663D01*
Y816666D01*
X1520491Y812746D01*
X1522021Y809054D01*
X1524241Y805731D01*
X1527067Y802905D01*
X1530390Y800685D01*
X1534082Y799155D01*
X1538002Y798375D01*
X1541998D01*
X1545918Y799155D01*
X1549610Y800685D01*
X1552934Y802905D01*
X1555759Y805731D01*
X1557980Y809054D01*
X1559509Y812746D01*
X1560289Y816666D01*
Y820663D01*
X1559509Y824582D01*
X1557980Y828275D01*
X1555759Y831598D01*
X1552934Y834424D01*
X1549610Y836644D01*
X1545918Y838173D01*
X1541998Y838953D01*
D02*
G37*
G36*
X1011998Y838953D02*
X1008001D01*
X1004082Y838173D01*
X1000389Y836644D01*
X997066Y834423D01*
X994240Y831597D01*
X992020Y828274D01*
X990491Y824582D01*
X989711Y820662D01*
Y816666D01*
X990491Y812746D01*
X992020Y809054D01*
X994240Y805731D01*
X997066Y802905D01*
X1000389Y800685D01*
X1004082Y799155D01*
X1008001Y798375D01*
X1011998D01*
X1015918Y799155D01*
X1019610Y800685D01*
X1022933Y802905D01*
X1025759Y805731D01*
X1027979Y809054D01*
X1029509Y812746D01*
X1030288Y816666D01*
Y820662D01*
X1029509Y824582D01*
X1027979Y828274D01*
X1025759Y831597D01*
X1022933Y834423D01*
X1019610Y836644D01*
X1015918Y838173D01*
X1011998Y838953D01*
D02*
G37*
%LPD*%
D13*
X1348994Y1091904D02*
G03*
X1343977Y1096921I-5017J0D01*
G01*
X1377558Y957819D02*
G03*
X1378553Y961898I-7863J4079D01*
G01*
X1378315Y948472D02*
G03*
X1383557Y953714I0J5242D01*
G01*
X1171447Y1017910D02*
G03*
X1166443Y1012906I0J-5004D01*
G01*
X1220000Y828040D02*
G03*
X1225080Y822960I5080J0D01*
G01*
X1226800Y894080D02*
G03*
X1220000Y887280I0J-6800D01*
G01*
X1267500Y839819D02*
G03*
X1269836Y837483I2336J0D01*
G01*
X1275425D02*
G03*
X1277500Y839557I0J2075D01*
G01*
X1259000Y822960D02*
G03*
X1262500Y826460I0J3500D01*
G01*
X1267879Y868920D02*
G03*
X1264958Y865999I0J-2921D01*
G01*
X1459476Y986962D02*
G03*
X1450338Y990747I-9138J-9138D01*
G01*
X1445696Y1015741D02*
G03*
X1463656Y1023180I0J25400D01*
G01*
X1435970Y980460D02*
G03*
X1423215Y985743I-12755J-12755D01*
G01*
X1408551Y940099D02*
G03*
X1409586Y939063I1036J0D01*
G01*
X1393539Y941992D02*
G03*
X1396469Y939062I2930J0D01*
G01*
X1386560Y941514D02*
G03*
X1388561Y945601I-3175J4087D01*
G01*
X1149086Y1008926D02*
G03*
X1146453Y1002570I6356J-6356D01*
G01*
X1174080Y1008926D02*
G03*
X1171447Y1002570I6356J-6356D01*
G01*
X1163440Y1025107D02*
G03*
X1161439Y1021019I3175J-4087D01*
G01*
X1156461Y1024628D02*
G03*
X1153531Y1027558I-2930J0D01*
G01*
X1141449Y1026521D02*
G03*
X1140414Y1027557I-1036J0D01*
G01*
X1114030Y986160D02*
G03*
X1126785Y980877I12755J12755D01*
G01*
X1104304Y950879D02*
G03*
X1086344Y943440I0J-25400D01*
G01*
X1090524Y979658D02*
G03*
X1099662Y975873I9138J9138D01*
G01*
X1348994Y1081278D02*
Y1091904D01*
X1325880Y1096921D02*
X1343977D01*
X1384046Y1038255D02*
Y1088898D01*
X1383557Y1037766D02*
X1384046Y1038255D01*
X1383557Y1024740D02*
Y1037766D01*
X1378553Y961898D02*
Y971740D01*
X1360050Y946094D02*
X1362428Y948472D01*
X1378315D01*
X1402249Y961898D02*
X1403527Y963176D01*
Y971720D02*
X1403547Y971740D01*
X1403527Y963176D02*
Y971720D01*
X1326368Y1072388D02*
X1348994D01*
X1325880Y1071900D02*
X1326368Y1072388D01*
X1364550Y995751D02*
X1388561D01*
X1161439Y970869D02*
X1185450D01*
X1345967Y946094D02*
X1360050D01*
X1171447Y1017910D02*
X1179699D01*
X1166443Y994880D02*
Y1012906D01*
X1179699Y1017910D02*
X1200390D01*
X1179699D02*
Y1027556D01*
X1267879Y868920D02*
X1271652D01*
X1284652Y888920D02*
Y889670D01*
X1225080Y822960D02*
X1259000D01*
X1220000Y828040D02*
Y887280D01*
X1226800Y894080D02*
X1243000D01*
X1267500Y839819D02*
Y847550D01*
X1269836Y837483D02*
X1275425D01*
X1262500Y826460D02*
Y847550D01*
X1264958Y860044D02*
Y865999D01*
X1272500Y847550D02*
Y868920D01*
X1289427Y894445D02*
Y894752D01*
X1284652Y889670D02*
X1289427Y894445D01*
X1277500Y839557D02*
Y868920D01*
X1282500Y833922D02*
Y847550D01*
Y833922D02*
X1282618Y833804D01*
X1464943Y981495D02*
X1465578D01*
X1459476Y986962D02*
X1464943Y981495D01*
X1417550Y990747D02*
X1450338D01*
X1463656Y1023180D02*
X1465580Y1025104D01*
X1417550Y1015741D02*
X1445696D01*
X1417550Y985743D02*
X1423215D01*
X1450434Y898258D02*
X1450467D01*
Y909180D01*
X1408551Y940099D02*
Y971740D01*
X1393539Y941992D02*
Y971740D01*
X1388561Y945601D02*
Y971740D01*
X1383385Y939063D02*
X1386560Y941514D01*
X1383557Y953714D02*
Y971740D01*
X1348821Y1000729D02*
X1364550D01*
X1146453Y994880D02*
Y1002570D01*
X1171447Y994880D02*
Y1002570D01*
X1185450Y965891D02*
X1201179D01*
X1163440Y1025107D02*
X1166615Y1027557D01*
X1161439Y994880D02*
Y1021019D01*
X1156461Y994880D02*
Y1024628D01*
X1141449Y994880D02*
Y1026521D01*
X1099533Y1057440D02*
Y1068362D01*
X1099566D01*
X1166443Y916724D02*
Y928853D01*
Y941880D01*
X1126785Y980877D02*
X1132450D01*
X1104304Y950879D02*
X1132450D01*
X1084420Y941516D02*
X1086344Y943440D01*
X1099662Y975873D02*
X1132450D01*
X1085057Y985125D02*
X1090524Y979658D01*
X1084422Y985125D02*
X1085057D01*
D20*
X1360050Y961334D02*
D03*
Y946094D02*
D03*
X1345967Y946094D02*
D03*
Y961334D02*
D03*
X1349611Y998468D02*
D03*
Y983228D02*
D03*
X1465580Y1009864D02*
D03*
Y1025104D02*
D03*
X1465578Y996735D02*
D03*
Y981495D02*
D03*
X1435970Y980460D02*
D03*
Y965220D02*
D03*
X1435969Y923821D02*
D03*
Y939062D02*
D03*
X1422682Y938807D02*
D03*
Y923567D02*
D03*
X1409584Y939063D02*
D03*
Y923823D02*
D03*
X1396467Y939062D02*
D03*
Y923822D02*
D03*
X1383384Y939063D02*
D03*
Y923823D02*
D03*
X1258138Y878124D02*
D03*
Y893364D02*
D03*
X1200390Y1002670D02*
D03*
Y1017910D02*
D03*
Y983390D02*
D03*
Y968150D02*
D03*
X1114030Y1027558D02*
D03*
Y1042798D02*
D03*
X1127318Y1043052D02*
D03*
Y1027812D02*
D03*
X1140414Y1042797D02*
D03*
Y1027557D02*
D03*
X1153531Y1042798D02*
D03*
Y1027558D02*
D03*
X1166615Y1042797D02*
D03*
Y1027557D02*
D03*
X1179699Y1027556D02*
D03*
Y1042796D02*
D03*
X1114030Y1001400D02*
D03*
Y986160D02*
D03*
X1084422Y985125D02*
D03*
Y969885D02*
D03*
X1084420Y941516D02*
D03*
Y956756D02*
D03*
D21*
X1315320Y1038880D02*
D03*
Y973880D02*
D03*
X1232140Y992740D02*
D03*
Y927740D02*
D03*
D22*
X1383555Y1037766D02*
D03*
X1368315D02*
D03*
X1400071Y1037766D02*
D03*
X1415311D02*
D03*
X1465577Y939061D02*
D03*
X1450337D02*
D03*
X1450466Y923821D02*
D03*
X1465706D02*
D03*
X1435227Y909180D02*
D03*
X1450467D02*
D03*
X1277905Y906562D02*
D03*
X1262665D02*
D03*
X1134689Y928854D02*
D03*
X1149929D02*
D03*
X1181683Y928853D02*
D03*
X1166443D02*
D03*
X1099533Y1057440D02*
D03*
X1114773D02*
D03*
X1084293Y1042798D02*
D03*
X1099533D02*
D03*
X1084422Y1027558D02*
D03*
X1099662D02*
D03*
D23*
X1401341Y1054645D02*
D03*
X1421661D02*
D03*
X1401235Y1074964D02*
D03*
X1421555D02*
D03*
X1128339Y911975D02*
D03*
X1148659D02*
D03*
X1128443Y891655D02*
D03*
X1148763D02*
D03*
D24*
X1497207Y883780D02*
D03*
X1465707D02*
D03*
X1084293Y1082840D02*
D03*
X1052793D02*
D03*
D25*
X1355998Y800150D02*
D03*
Y838150D02*
D03*
D26*
Y889762D02*
D03*
X1306198D02*
D03*
D27*
X1278152Y878920D02*
D03*
D28*
X1284652Y868920D02*
D03*
X1278152D02*
D03*
X1271652D02*
D03*
Y888920D02*
D03*
X1278152D02*
D03*
X1284652D02*
D03*
D29*
X1257500Y847550D02*
D03*
X1262500D02*
D03*
X1267500D02*
D03*
X1292500D02*
D03*
X1287500D02*
D03*
X1282500D02*
D03*
X1272500D02*
D03*
X1277500D02*
D03*
D30*
X1299000D02*
D03*
X1251000D02*
D03*
X1307000D02*
D03*
X1243000D02*
D03*
D31*
X1200898Y1038609D02*
D03*
Y1064009D02*
D03*
X1325880Y1071900D02*
D03*
Y1096921D02*
D03*
D32*
X1441906Y1166636D02*
D03*
Y1151636D02*
D03*
X1364474Y1166636D02*
D03*
Y1151636D02*
D03*
X1185526D02*
D03*
Y1166636D02*
D03*
X1108094Y1151636D02*
D03*
Y1166636D02*
D03*
D57*
X1315320Y1015741D02*
G03*
X1320324Y1010737I5004J0D01*
G01*
X1232140Y950879D02*
G03*
X1227136Y955883I-5004J0D01*
G01*
X1321023Y1005733D02*
G03*
X1315320Y1000030I0J-5703D01*
G01*
X1388561Y995751D02*
G03*
X1391050Y998240I0J2489D01*
G01*
X1161439Y970869D02*
G03*
X1158950Y968380I0J-2489D01*
G01*
X1226437Y960887D02*
G03*
X1232140Y966590I0J5703D01*
G01*
X1292500Y865999D02*
G03*
X1289579Y868920I-2921J0D01*
G01*
X1315320Y1015741D02*
Y1032530D01*
X1320324Y1010737D02*
X1364550D01*
X1232140Y934090D02*
Y950879D01*
X1185450Y955883D02*
X1227136D01*
X1321023Y1005733D02*
X1364550D01*
X1320324D02*
X1321023D01*
X1315320Y973880D02*
Y1000030D01*
X1185450Y960887D02*
X1226437D01*
X1227136D01*
X1284652Y868920D02*
X1289579D01*
X1292500Y847550D02*
Y865999D01*
X1232140Y966590D02*
Y992740D01*
D58*
X1508200Y958310D02*
G03*
X1494155Y944265I0J-14045D01*
G01*
X1041800Y1008310D02*
G03*
X1055845Y1022355I0J14045D01*
G01*
X1005840Y1008310D02*
X1006130D01*
X1494155Y910168D02*
Y944265D01*
X1493751Y907431D02*
Y909764D01*
X1494155Y910168D01*
X1493120Y906800D02*
X1493751Y907431D01*
X1543870Y958310D02*
X1544160D01*
X1508200D02*
X1543870D01*
X1006130Y1008310D02*
X1041800D01*
X1056249Y1059189D02*
X1056880Y1059820D01*
X1055845Y1056452D02*
X1056249Y1056856D01*
Y1059189D01*
X1055845Y1022355D02*
Y1056452D01*
D59*
X1160526Y1151636D02*
G03*
X1153531Y1144641I0J-6995D01*
G01*
X1140414Y1144316D02*
G03*
X1133094Y1151636I-7320J0D01*
G01*
X1364474Y1143000D02*
Y1151636D01*
X1441906Y1135380D02*
Y1151636D01*
X1153531Y1042798D02*
Y1144641D01*
X1160526Y1151636D02*
X1185526D01*
X1140414Y1042797D02*
Y1144316D01*
X1108094Y1151636D02*
X1133094D01*
D60*
X1391050Y998240D02*
D03*
X1158950Y968380D02*
D03*
D61*
X1364550Y1015741D02*
D03*
Y1010737D02*
D03*
Y1005733D02*
D03*
Y1000729D02*
D03*
Y995751D02*
D03*
Y990747D02*
D03*
Y985743D02*
D03*
Y980739D02*
D03*
X1417550D02*
D03*
Y985743D02*
D03*
Y990747D02*
D03*
Y995751D02*
D03*
Y1000729D02*
D03*
Y1005733D02*
D03*
Y1010737D02*
D03*
Y1015741D02*
D03*
X1132450Y950879D02*
D03*
Y955883D02*
D03*
Y960887D02*
D03*
Y965891D02*
D03*
Y970869D02*
D03*
Y975873D02*
D03*
Y980877D02*
D03*
Y985881D02*
D03*
X1185450D02*
D03*
Y980877D02*
D03*
Y975873D02*
D03*
Y970869D02*
D03*
Y965891D02*
D03*
Y960887D02*
D03*
Y955883D02*
D03*
Y950879D02*
D03*
D62*
X1373549Y971740D02*
D03*
X1378553D02*
D03*
X1383557D02*
D03*
X1388561D02*
D03*
X1393539D02*
D03*
X1398543D02*
D03*
X1403547D02*
D03*
X1408551D02*
D03*
Y1024740D02*
D03*
X1403547D02*
D03*
X1398543D02*
D03*
X1393539D02*
D03*
X1388561D02*
D03*
X1383557D02*
D03*
X1378553D02*
D03*
X1373549D02*
D03*
X1176451Y941880D02*
D03*
X1171447D02*
D03*
X1166443D02*
D03*
X1161439D02*
D03*
X1156461D02*
D03*
X1151457D02*
D03*
X1146453D02*
D03*
X1141449D02*
D03*
Y994880D02*
D03*
X1146453D02*
D03*
X1151457D02*
D03*
X1156461D02*
D03*
X1161439D02*
D03*
X1166443D02*
D03*
X1171447D02*
D03*
X1176451D02*
D03*
D63*
X1307000Y845728D02*
X1308053Y844675D01*
X1315379D02*
X1318200Y841854D01*
X1307000Y845728D02*
Y847550D01*
X1308053Y844675D02*
X1315379D01*
X1318200Y841800D02*
Y841854D01*
X1241947Y844675D02*
X1243000Y845728D01*
X1231800Y841854D02*
X1234621Y844675D01*
X1243000Y845728D02*
Y847550D01*
X1234621Y844675D02*
X1241947D01*
X1231800Y841800D02*
Y841854D01*
X1441906Y1166636D02*
X1456182D01*
X1364474D02*
X1441906D01*
X1318200Y800000D02*
X1355998D01*
X1185526Y1166636D02*
X1364474D01*
X1108094D02*
X1185526D01*
X1456182Y1166622D02*
Y1166636D01*
X1355998Y800000D02*
Y800150D01*
X1231800Y800000D02*
X1318200D01*
Y841800D01*
D64*
X1409584Y913130D02*
Y923823D01*
X1396467Y923822D02*
X1396468Y923821D01*
Y913131D02*
X1396469Y913130D01*
X1396468Y913131D02*
Y923821D01*
D65*
X1186060Y947005D02*
D03*
X1363940Y1019615D02*
D03*
D66*
X1179115Y931736D02*
D03*
X1370885Y1034884D02*
D03*
D67*
X1419067Y1057952D02*
D03*
X1419069Y1057953D02*
D03*
X1130931Y908667D02*
D03*
D68*
X1232140Y1008841D02*
D03*
X1315320Y957779D02*
D03*
D69*
X1277905Y913084D02*
D03*
D70*
X1167472Y894470D02*
D03*
D71*
X1429326Y916056D02*
D03*
D72*
X1278152Y898545D02*
D03*
D73*
X1263547Y891797D02*
D03*
D74*
X1251000Y854762D02*
D03*
D75*
X1355998Y867956D02*
D03*
D76*
X1311340Y881215D02*
D03*
D77*
X1299000Y873781D02*
D03*
D78*
X1478462Y1008235D02*
D03*
X1071537Y958385D02*
D03*
D79*
X1457087Y998227D02*
D03*
X1092913Y968393D02*
D03*
D80*
X1493120Y991890D02*
D03*
X1056880Y974730D02*
D03*
D81*
X1465707Y911393D02*
D03*
X1084293Y1055227D02*
D03*
D82*
X1450704Y916501D02*
D03*
X1099295Y1050119D02*
D03*
D83*
X1436193Y939125D02*
D03*
X1113807Y1027495D02*
D03*
D84*
X1435970Y954046D02*
D03*
X1114030Y1012574D02*
D03*
D85*
X1401289Y1057953D02*
D03*
X1148711Y908667D02*
D03*
D86*
X1401045Y1051415D02*
D03*
X1148955Y915205D02*
D03*
D87*
X1494140Y899329D02*
D03*
X1055860Y1067291D02*
D03*
D88*
X1502502Y1009864D02*
D03*
X1047497Y956756D02*
D03*
D89*
X1475850Y996010D02*
D03*
X1074150Y970610D02*
D03*
D90*
X1120674Y1050436D02*
D03*
D91*
X1493120Y906799D02*
D03*
Y981801D02*
D03*
X1056880Y1059820D02*
D03*
Y984819D02*
D03*
D92*
X1246100Y836800D02*
D03*
X1303900D02*
D03*
D93*
X1318200Y841800D02*
D03*
X1231800D02*
D03*
D94*
X1318200Y800000D02*
D03*
X1231800D02*
D03*
D95*
X1006130Y958310D02*
D03*
Y1008310D02*
D03*
X1543870Y958310D02*
D03*
Y1008310D02*
D03*
D96*
X1229106Y1155573D02*
D03*
X1229868Y1080135D02*
D03*
X1229614Y1105281D02*
D03*
X1229360Y1130427D02*
D03*
X1178814D02*
D03*
X1204214Y1117854D02*
D03*
X1204468Y1092708D02*
D03*
X1179068Y1105281D02*
D03*
X1179322Y1080135D02*
D03*
X1280990Y1168699D02*
D03*
X1329870D02*
D03*
X1512082Y1055542D02*
D03*
X1512336Y1080688D02*
D03*
X1487698Y1068115D02*
D03*
X1487952Y1042969D02*
D03*
X1487444Y1093261D02*
D03*
X1427630Y1168699D02*
D03*
X1436898Y1118407D02*
D03*
X1462552Y1156126D02*
D03*
X1513098D02*
D03*
X1487952Y1168699D02*
D03*
X1487698Y1143553D02*
D03*
X1487444Y1118407D02*
D03*
X1512844Y1130980D02*
D03*
X1512590Y1105834D02*
D03*
X1537736Y1093261D02*
D03*
X1537990Y1118407D02*
D03*
X1537228Y1042969D02*
D03*
X1537482Y1068115D02*
D03*
X1563390Y1130980D02*
D03*
X1562882Y1080688D02*
D03*
X1563136Y1105834D02*
D03*
X1562628Y1055542D02*
D03*
X987372D02*
D03*
X986864Y1105834D02*
D03*
X987118Y1080688D02*
D03*
X986610Y1130980D02*
D03*
X1012518Y1068115D02*
D03*
X1012772Y1042969D02*
D03*
X1012010Y1118407D02*
D03*
X1012264Y1093261D02*
D03*
X1037410Y1105834D02*
D03*
X1037156Y1130980D02*
D03*
X1062556Y1118407D02*
D03*
X1062302Y1143553D02*
D03*
X1062048Y1168699D02*
D03*
X1036902Y1156126D02*
D03*
X1087448D02*
D03*
X1087702Y1130980D02*
D03*
X1087956Y1105834D02*
D03*
X1113610Y1068115D02*
D03*
X1113102Y1118407D02*
D03*
X1113356Y1093261D02*
D03*
X1384267Y895096D02*
D03*
X1371440Y796798D02*
D03*
X1396586Y796544D02*
D03*
X1446878Y796036D02*
D03*
X1421732Y796290D02*
D03*
X1497170Y795528D02*
D03*
X1472024Y795782D02*
D03*
X1522316Y795274D02*
D03*
X1384013Y821944D02*
D03*
X1409159Y821690D02*
D03*
X1459451Y821182D02*
D03*
X1434305Y821436D02*
D03*
X1509743Y820674D02*
D03*
X1484597Y820928D02*
D03*
X1396586Y847090D02*
D03*
X1446878Y846582D02*
D03*
X1421732Y846836D02*
D03*
X1472024Y846328D02*
D03*
X1497170Y846074D02*
D03*
X1522316Y845820D02*
D03*
X1484597Y868934D02*
D03*
X1509743Y868680D02*
D03*
X1384013Y869950D02*
D03*
X1534889Y868426D02*
D03*
X1560035Y868172D02*
D03*
X1547462Y845566D02*
D03*
Y896112D02*
D03*
X1560035Y921258D02*
D03*
X1534889Y921512D02*
D03*
X1065403Y922020D02*
D03*
X1040257Y921766D02*
D03*
X1090549Y922274D02*
D03*
X1015111Y921512D02*
D03*
X989965Y921258D02*
D03*
X1077976Y896874D02*
D03*
X1052830Y896620D02*
D03*
X1027684Y896366D02*
D03*
X1002538Y896112D02*
D03*
Y845566D02*
D03*
X989965Y870712D02*
D03*
X1015111Y870966D02*
D03*
X1191133Y872744D02*
D03*
X1165987Y872490D02*
D03*
X1140841Y872236D02*
D03*
X1090549Y871728D02*
D03*
X1115695Y871982D02*
D03*
X1040257Y871220D02*
D03*
X1065403Y871474D02*
D03*
X1027684Y845820D02*
D03*
X1052830Y846074D02*
D03*
X1077976Y846328D02*
D03*
X1128268Y846836D02*
D03*
X1103122Y846582D02*
D03*
X1178560Y847344D02*
D03*
X1153414Y847090D02*
D03*
X1203706Y847598D02*
D03*
X1065403Y820928D02*
D03*
X1040257Y820674D02*
D03*
X1115695Y821436D02*
D03*
X1090549Y821182D02*
D03*
X1140841Y821690D02*
D03*
X1165987Y821944D02*
D03*
X1191133Y822198D02*
D03*
X1027684Y795274D02*
D03*
X1077976Y795782D02*
D03*
X1052830Y795528D02*
D03*
X1128268Y796290D02*
D03*
X1103122Y796036D02*
D03*
X1153414Y796544D02*
D03*
X1178560Y796798D02*
D03*
X1203706Y797052D02*
D03*
X1362646Y968868D02*
D03*
X1185450Y1002940D02*
D03*
X1363828Y1100011D02*
D03*
X1373835D02*
D03*
Y1056488D02*
D03*
X1363828D02*
D03*
X1353820D02*
D03*
X1343812D02*
D03*
X1313790D02*
D03*
X1303782D02*
D03*
Y1066495D02*
D03*
Y1086510D02*
D03*
Y1076503D02*
D03*
Y1096518D02*
D03*
X1384046Y1088898D02*
D03*
X1348994Y1081278D02*
D03*
X1433727Y1038709D02*
D03*
X1122370Y1168699D02*
D03*
X1199802D02*
D03*
X1378750D02*
D03*
X1456182Y1166622D02*
D03*
X1375920Y955596D02*
D03*
X1402249Y961898D02*
D03*
X1423762Y1029949D02*
D03*
Y1038757D02*
D03*
X1433770Y1029949D02*
D03*
X1112164Y936670D02*
D03*
Y927862D02*
D03*
X1122172D02*
D03*
Y936670D02*
D03*
X1348994Y1072388D02*
D03*
X1222163Y1020444D02*
D03*
X1232171Y1010366D02*
D03*
Y1020444D02*
D03*
X1242178D02*
D03*
Y1010366D02*
D03*
X1222163D02*
D03*
X1325297Y956254D02*
D03*
X1305282D02*
D03*
Y946176D02*
D03*
X1315289D02*
D03*
Y956254D02*
D03*
X1325297Y946176D02*
D03*
X1351280Y851102D02*
D03*
X1361288D02*
D03*
Y868718D02*
D03*
Y859910D02*
D03*
X1351280Y868718D02*
D03*
Y859910D02*
D03*
X1186458Y899078D02*
D03*
Y889000D02*
D03*
X1176451Y899078D02*
D03*
Y889000D02*
D03*
X1166443D02*
D03*
Y899078D02*
D03*
X1409584Y913130D02*
D03*
X1396469D02*
D03*
X1289427Y894080D02*
D03*
X1243000D02*
D03*
X1299000Y860118D02*
D03*
X1251000Y867724D02*
D03*
X1299000D02*
D03*
X1251000Y860118D02*
D03*
X1264958Y860044D02*
D03*
X1282618Y833804D02*
D03*
X1364474Y1143000D02*
D03*
X1441906Y1135380D02*
D03*
X1450434Y898258D02*
D03*
X1398543Y988283D02*
D03*
X1383385D02*
D03*
X1398543Y998291D02*
D03*
X1383385D02*
D03*
Y1008298D02*
D03*
X1398543D02*
D03*
X1151457Y958322D02*
D03*
X1166615D02*
D03*
Y968329D02*
D03*
X1151457D02*
D03*
X1166615Y978337D02*
D03*
X1151457D02*
D03*
X1200912Y1038644D02*
D03*
X1174080Y1008926D02*
D03*
X1201166Y1063790D02*
D03*
X1149086Y1008926D02*
D03*
X1099566Y1068362D02*
D03*
X1166443Y916724D02*
D03*
M02*
