M48
;Layer_Color=9474304
;FILE_FORMAT=4:4
METRIC,LZ
;TYPE=PLATED
T01F00S00C0.3000
T03F00S00C1.0000
T04F00S00C2.0000
T05F00S00C3.0000
;TYPE=NON_PLATED
T06F00S00C0.6500
%
T01
X01027684Y00795274
X0105283Y00795528
X01040257Y00820674
X01065403Y00820928
X0105283Y00846074
X01027684Y0084582
X01002538Y00845566
X00989965Y00870712
X01015111Y00870966
X01040257Y0087122
X01065403Y00871474
X0105283Y0089662
X01027684Y00896366
X01002538Y00896112
X00989965Y00921258
X01015111Y00921512
X01040257Y00921766
X01065403Y0092202
X01090549Y00922274
X01112164Y00927862
Y0093667
X01122172
Y00927862
X01166443Y00916724
Y00899078
X01176451
X01186458
Y00889
X01176451
X01166443
X01165987Y0087249
X01191133Y00872744
X01203706Y00847598
X0117856Y00847344
X01153414Y0084709
X01128268Y00846836
X01103122Y00846582
X01077976Y00846328
X01090549Y00821182
X01115695Y00821436
X01140841Y0082169
X01165987Y00821944
X01191133Y00822198
X01203706Y00797052
X0117856Y00796798
X01153414Y00796544
X01128268Y0079629
X01103122Y00796036
X01077976Y00795782
X01090549Y00871728
X01115695Y00871982
X01140841Y00872236
X01077976Y00896874
X01151457Y00958322
Y00968329
Y00978337
X01166615
Y00968329
Y00958322
X0117408Y01008926
X0118545Y0100294
X01149086Y01008926
X01222163Y01010366
X01232171
X01242178
X01243Y0089408
X01251Y00867724
Y00860118
X01264958Y00860044
X01299Y00860118
Y00867724
X01289427Y0089408
X01282618Y00833804
X0135128Y00851102
Y0085991
Y00868718
X01361288
Y0085991
Y00851102
X01396586Y0084709
X01421732Y00846836
X01446878Y00846582
X01434305Y00821436
X01409159Y0082169
X01384013Y00821944
X0137144Y00796798
X01396586Y00796544
X01421732Y0079629
X01446878Y00796036
X01459451Y00821182
X01450434Y00898258
X01409584Y0091313
X01396469
X01384267Y00895096
X01384013Y0086995
X0137592Y00955596
X01362646Y00968868
X01383385Y00988283
Y00998291
Y01008298
X01398543
Y00998291
Y00988283
X01402249Y00961898
X01325297Y00956254
X01315289
X01305282
Y00946176
X01315289
X01325297
X01534889Y00921512
X01560035Y00921258
X01547462Y00896112
X01534889Y00868426
X01509743Y0086868
X01484597Y00868934
X01472024Y00846328
X0149717Y00846074
X01522316Y0084582
X01547462Y00845566
X01560035Y00868172
X01509743Y00820674
X01484597Y00820928
X01472024Y00795782
X0149717Y00795528
X01522316Y00795274
X01537228Y01042969
X01537482Y01068115
X01537736Y01093261
X0153799Y01118407
X01512844Y0113098
X01513098Y01156126
X01487952Y01168699
X01487698Y01143553
X01487444Y01118407
Y01093261
X01487698Y01068115
X01487952Y01042969
X01512082Y01055542
X01512336Y01080688
X0151259Y01105834
X01563136
X0156339Y0113098
X01562882Y01080688
X01562628Y01055542
X01433727Y01038709
X0143377Y01029949
X01423762
Y01038757
X01373835Y01056488
X01363828
X0135382
X01343812
X01348994Y01072388
Y01081278
X01363828Y01100011
X01373835
X01384046Y01088898
X01364474Y01143
X0137875Y01168699
X0132987
X0128099
X01229106Y01155573
X0122936Y01130427
X01229614Y01105281
X01229868Y01080135
X01204468Y01092708
X01204214Y01117854
X01179068Y01105281
X01178814Y01130427
X01179322Y01080135
X01201166Y0106379
X01200912Y01038644
X01222163Y01020444
X01232171
X01242178
X01303782Y01056488
X0131379
X01303782Y01066495
Y01076503
Y0108651
Y01096518
X01436898Y01118407
X01441906Y0113538
X01462552Y01156126
X01456182Y01166622
X0142763Y01168699
X01199802
X0112237
X01087448Y01156126
X01087702Y0113098
X01087956Y01105834
X01113102Y01118407
X01113356Y01093261
X0111361Y01068115
X01099566Y01068362
X01062556Y01118407
X01062302Y01143553
X01062048Y01168699
X01036902Y01156126
X01037156Y0113098
X0103741Y01105834
X01012264Y01093261
X01012518Y01068115
X01012772Y01042969
X00987372Y01055542
X00987118Y01080688
X00986864Y01105834
X0098661Y0113098
X0101201Y01118407
T03
X0105688Y0098482
X0149312Y009818
Y009068
X0105688Y0105982
T04
X0100613Y0095831
Y0100831
X0154387Y0100831
Y0095831
T05
X0101Y00818664
X0154Y00817956
X0154Y01148664
X0101
T06
X012461Y008368
X013039
M30
