G04*
G04 #@! TF.GenerationSoftware,Altium Limited,Altium Designer,24.5.2 (23)*
G04*
G04 Layer_Color=65535*
%FSLAX44Y44*%
%MOMM*%
G71*
G04*
G04 #@! TF.SameCoordinates,3E72796F-A718-4ACC-903D-CC6A842A6AC0*
G04*
G04*
G04 #@! TF.FilePolarity,Positive*
G04*
G01*
G75*
%ADD10C,0.3000*%
%ADD11C,0.2000*%
%ADD12C,0.1270*%
%ADD13C,0.2540*%
%ADD14C,0.1524*%
%ADD15R,1.8542X0.2920*%
%ADD16R,0.6996X1.5748*%
%ADD17R,1.8542X0.2920*%
%ADD18R,3.2000X1.1670*%
%ADD19R,1.3208X0.6350*%
G36*
X1569821Y1041245D02*
Y931164D01*
X1516888D01*
Y1041245D01*
X1459185D01*
Y1073355D01*
X1569821D01*
Y1041245D01*
D02*
G37*
G36*
X1033076Y925375D02*
X1091332D01*
Y893265D01*
X980186D01*
Y925220D01*
Y1035456D01*
X1033076D01*
Y925375D01*
D02*
G37*
%LPC*%
G36*
X1484312Y1065735D02*
X1477757D01*
X1477146Y1065711D01*
X1476535Y1065641D01*
X1475994Y1065523D01*
X1475454Y1065382D01*
X1474984Y1065218D01*
X1474514Y1065030D01*
X1474115Y1064818D01*
X1473739Y1064607D01*
X1473387Y1064395D01*
X1473105Y1064184D01*
X1472846Y1063996D01*
X1472635Y1063831D01*
X1472470Y1063691D01*
X1472353Y1063573D01*
X1472282Y1063503D01*
X1472259Y1063479D01*
X1471883Y1063033D01*
X1471577Y1062563D01*
X1471295Y1062069D01*
X1471060Y1061553D01*
X1470849Y1061012D01*
X1470685Y1060495D01*
X1470544Y1059978D01*
X1470426Y1059485D01*
X1470332Y1058992D01*
X1470285Y1058569D01*
X1470238Y1058169D01*
X1470191Y1057840D01*
Y1057558D01*
X1470168Y1057347D01*
Y1057159D01*
X1470191Y1056454D01*
X1470262Y1055796D01*
X1470356Y1055162D01*
X1470497Y1054598D01*
X1470638Y1054058D01*
X1470826Y1053541D01*
X1471013Y1053094D01*
X1471201Y1052695D01*
X1471389Y1052319D01*
X1471577Y1051990D01*
X1471765Y1051732D01*
X1471906Y1051497D01*
X1472047Y1051332D01*
X1472141Y1051191D01*
X1472212Y1051121D01*
X1472235Y1051097D01*
X1472635Y1050698D01*
X1473058Y1050369D01*
X1473504Y1050063D01*
X1473950Y1049828D01*
X1474397Y1049617D01*
X1474843Y1049429D01*
X1475266Y1049288D01*
X1475665Y1049171D01*
X1476065Y1049077D01*
X1476417Y1049006D01*
X1476746Y1048959D01*
X1477005Y1048936D01*
X1477240Y1048912D01*
X1477404Y1048889D01*
X1470168D01*
X1484312D01*
X1477545D01*
X1478038Y1048912D01*
X1478485Y1048936D01*
X1478931Y1049006D01*
X1479331Y1049100D01*
X1479707Y1049194D01*
X1480059Y1049288D01*
X1480388Y1049406D01*
X1480693Y1049547D01*
X1480952Y1049664D01*
X1481187Y1049781D01*
X1481398Y1049875D01*
X1481563Y1049969D01*
X1481704Y1050063D01*
X1481798Y1050134D01*
X1481845Y1050157D01*
X1481868Y1050181D01*
X1482174Y1050439D01*
X1482455Y1050721D01*
X1482972Y1051356D01*
X1483395Y1052013D01*
X1483724Y1052648D01*
X1483865Y1052953D01*
X1483983Y1053235D01*
X1484077Y1053494D01*
X1484171Y1053705D01*
X1484241Y1053893D01*
X1484288Y1054034D01*
X1484312Y1054128D01*
Y1054152D01*
X1481116Y1055138D01*
X1480928Y1054504D01*
X1480717Y1053964D01*
X1480505Y1053517D01*
X1480271Y1053141D01*
X1480083Y1052859D01*
X1479918Y1052671D01*
X1479801Y1052554D01*
X1479754Y1052507D01*
X1479378Y1052225D01*
X1479002Y1052037D01*
X1478626Y1051896D01*
X1478297Y1051779D01*
X1477991Y1051732D01*
X1477733Y1051708D01*
X1477639Y1051685D01*
X1477522D01*
X1477193Y1051708D01*
X1476887Y1051732D01*
X1476323Y1051896D01*
X1475830Y1052084D01*
X1475430Y1052343D01*
X1475102Y1052577D01*
X1474867Y1052765D01*
X1474773Y1052859D01*
X1474702Y1052930D01*
X1474679Y1052953D01*
X1474655Y1052977D01*
X1474467Y1053235D01*
X1474303Y1053541D01*
X1474138Y1053870D01*
X1474021Y1054222D01*
X1473833Y1054950D01*
X1473692Y1055679D01*
X1473645Y1056031D01*
X1473621Y1056337D01*
X1473574Y1056642D01*
Y1056900D01*
X1473551Y1057088D01*
Y1057253D01*
Y1057370D01*
Y1057394D01*
X1473574Y1057934D01*
X1473598Y1058428D01*
X1473645Y1058874D01*
X1473715Y1059297D01*
X1473809Y1059673D01*
X1473903Y1060025D01*
X1473997Y1060331D01*
X1474115Y1060613D01*
X1474209Y1060848D01*
X1474303Y1061059D01*
X1474397Y1061224D01*
X1474491Y1061365D01*
X1474561Y1061482D01*
X1474608Y1061553D01*
X1474655Y1061600D01*
Y1061623D01*
X1474867Y1061858D01*
X1475102Y1062069D01*
X1475336Y1062234D01*
X1475595Y1062375D01*
X1476088Y1062610D01*
X1476558Y1062774D01*
X1476958Y1062868D01*
X1477146Y1062892D01*
X1477287Y1062915D01*
X1477428Y1062939D01*
X1477592D01*
X1478062Y1062915D01*
X1478485Y1062821D01*
X1478861Y1062704D01*
X1479190Y1062563D01*
X1479448Y1062422D01*
X1479636Y1062304D01*
X1479754Y1062210D01*
X1479801Y1062187D01*
X1480106Y1061905D01*
X1480388Y1061576D01*
X1480599Y1061247D01*
X1480764Y1060918D01*
X1480881Y1060636D01*
X1480952Y1060425D01*
X1480999Y1060331D01*
Y1060260D01*
X1481022Y1060237D01*
Y1060213D01*
X1484265Y1060989D01*
X1484030Y1061670D01*
X1483771Y1062257D01*
X1483489Y1062774D01*
X1483231Y1063197D01*
X1482972Y1063526D01*
X1482878Y1063667D01*
X1482784Y1063784D01*
X1482714Y1063855D01*
X1482643Y1063925D01*
X1482620Y1063972D01*
X1482596D01*
X1482244Y1064278D01*
X1481845Y1064560D01*
X1481469Y1064795D01*
X1481069Y1064983D01*
X1480646Y1065171D01*
X1480247Y1065312D01*
X1479848Y1065429D01*
X1479472Y1065523D01*
X1479119Y1065594D01*
X1478790Y1065641D01*
X1478508Y1065688D01*
X1478250Y1065711D01*
X1478038Y1065735D01*
X1484312D01*
D02*
G37*
G36*
X1502238D02*
Y1057276D01*
X1502215Y1058005D01*
X1502144Y1058686D01*
X1502050Y1059321D01*
X1501909Y1059931D01*
X1501745Y1060472D01*
X1501557Y1060989D01*
X1501369Y1061459D01*
X1501158Y1061858D01*
X1500946Y1062234D01*
X1500758Y1062563D01*
X1500570Y1062845D01*
X1500406Y1063080D01*
X1500288Y1063244D01*
X1500171Y1063385D01*
X1500100Y1063456D01*
X1500077Y1063479D01*
X1499654Y1063878D01*
X1499207Y1064231D01*
X1498738Y1064536D01*
X1498268Y1064795D01*
X1497774Y1065006D01*
X1497304Y1065194D01*
X1496835Y1065335D01*
X1496388Y1065453D01*
X1495965Y1065547D01*
X1495566Y1065617D01*
X1495213Y1065664D01*
X1494908Y1065711D01*
X1494673D01*
X1494485Y1065735D01*
X1494321D01*
X1493616Y1065711D01*
X1492934Y1065641D01*
X1492347Y1065523D01*
X1491830Y1065406D01*
X1491619Y1065335D01*
X1491407Y1065288D01*
X1491243Y1065241D01*
X1491102Y1065171D01*
X1490984Y1065147D01*
X1490890Y1065100D01*
X1490843Y1065077D01*
X1490820D01*
X1490397Y1064889D01*
X1489997Y1064654D01*
X1489645Y1064395D01*
X1489340Y1064161D01*
X1489081Y1063949D01*
X1488870Y1063761D01*
X1488752Y1063644D01*
X1488729Y1063620D01*
X1488705Y1063597D01*
X1488376Y1063221D01*
X1488071Y1062821D01*
X1487812Y1062469D01*
X1487601Y1062116D01*
X1487437Y1061811D01*
X1487296Y1061576D01*
X1487272Y1061482D01*
X1487225Y1061412D01*
X1487202Y1061388D01*
Y1061365D01*
X1486967Y1060707D01*
X1486779Y1060002D01*
X1486661Y1059297D01*
X1486567Y1058639D01*
X1486544Y1058334D01*
X1486520Y1058052D01*
X1486497Y1057817D01*
Y1057605D01*
X1486473Y1057417D01*
Y1057182D01*
X1486497Y1056478D01*
X1486567Y1055796D01*
X1486661Y1055162D01*
X1486802Y1054575D01*
X1486967Y1054034D01*
X1487155Y1053541D01*
X1487343Y1053071D01*
X1487554Y1052671D01*
X1487742Y1052296D01*
X1487930Y1051990D01*
X1488118Y1051708D01*
X1488282Y1051473D01*
X1488423Y1051309D01*
X1488517Y1051168D01*
X1488588Y1051097D01*
X1488611Y1051074D01*
X1489034Y1050674D01*
X1489480Y1050345D01*
X1489927Y1050040D01*
X1490420Y1049805D01*
X1490890Y1049594D01*
X1491384Y1049406D01*
X1491830Y1049265D01*
X1492300Y1049147D01*
X1492723Y1049053D01*
X1493122Y1048983D01*
X1493475Y1048936D01*
X1493780Y1048912D01*
X1494015Y1048889D01*
X1494203Y1048865D01*
X1486473D01*
D01*
X1502238D01*
Y1065735D01*
D02*
G37*
G36*
X1537081Y1056642D02*
X1530949Y1056642D01*
Y1053517D01*
X1537081Y1053517D01*
Y1056642D01*
D02*
G37*
G36*
X1558838Y1065429D02*
X1545234D01*
Y1049171D01*
X1558838D01*
Y1053893D01*
Y1053870D01*
X1558814Y1054387D01*
X1558720Y1054856D01*
X1558579Y1055256D01*
X1558438Y1055632D01*
X1558297Y1055914D01*
X1558156Y1056125D01*
X1558062Y1056266D01*
X1558039Y1056313D01*
X1557710Y1056689D01*
X1557358Y1056994D01*
X1556958Y1057253D01*
X1556606Y1057441D01*
X1556277Y1057605D01*
X1555995Y1057723D01*
X1555901Y1057746D01*
X1555830Y1057770D01*
X1555783Y1057793D01*
X1555760D01*
X1556136Y1058005D01*
X1556465Y1058216D01*
X1556747Y1058475D01*
X1556982Y1058686D01*
X1557146Y1058898D01*
X1557287Y1059062D01*
X1557381Y1059180D01*
X1557405Y1059227D01*
X1557616Y1059603D01*
X1557780Y1059955D01*
X1557874Y1060307D01*
X1557968Y1060636D01*
X1558015Y1060918D01*
X1558039Y1061130D01*
Y1061271D01*
Y1061294D01*
Y1061318D01*
X1558015Y1061693D01*
X1557968Y1062069D01*
X1557874Y1062375D01*
X1557780Y1062657D01*
X1557686Y1062892D01*
X1557592Y1063080D01*
X1557546Y1063174D01*
X1557522Y1063221D01*
X1557334Y1063526D01*
X1557123Y1063785D01*
X1556911Y1064019D01*
X1556723Y1064231D01*
X1556535Y1064372D01*
X1556394Y1064489D01*
X1556300Y1064560D01*
X1556277Y1064583D01*
X1555995Y1064771D01*
X1555689Y1064912D01*
X1555408Y1065030D01*
X1555149Y1065124D01*
X1554914Y1065194D01*
X1554750Y1065241D01*
X1554632Y1065265D01*
X1554585D01*
X1554186Y1065312D01*
X1553739Y1065359D01*
X1553270Y1065382D01*
X1552800Y1065406D01*
X1552377Y1065429D01*
X1558838D01*
D02*
G37*
G36*
X1522679Y1065312D02*
X1511213D01*
Y1049171D01*
X1522679D01*
Y1051920D01*
Y1051920D01*
X1514503D01*
Y1065312D01*
X1522679D01*
D02*
G37*
G36*
X1507995Y1065429D02*
X1504705D01*
Y1049171D01*
X1507995D01*
Y1065429D01*
D02*
G37*
G36*
X1545686Y1026754D02*
X1542053D01*
X1538490Y1026045D01*
X1535133Y1024655D01*
X1532112Y1022636D01*
X1529543Y1020067D01*
X1527525Y1017047D01*
X1526134Y1013690D01*
X1525426Y1010126D01*
Y1008310D01*
Y1006493D01*
X1526134Y1002930D01*
X1527525Y999573D01*
X1529543Y996552D01*
X1532112Y993983D01*
X1535133Y991965D01*
X1538490Y990574D01*
X1542053Y989866D01*
X1545686D01*
X1549250Y990574D01*
X1552607Y991965D01*
X1555627Y993983D01*
X1558196Y996552D01*
X1560215Y999573D01*
X1561605Y1002930D01*
X1562314Y1006493D01*
Y1008310D01*
Y1010126D01*
X1561605Y1013690D01*
X1560215Y1017047D01*
X1558196Y1020067D01*
X1555627Y1022636D01*
X1552607Y1024655D01*
X1549250Y1026045D01*
X1545686Y1026754D01*
D02*
G37*
G36*
X1545977Y976754D02*
X1542343D01*
X1538780Y976045D01*
X1535423Y974655D01*
X1532402Y972636D01*
X1529833Y970067D01*
X1527815Y967047D01*
X1526425Y963690D01*
X1525716Y960126D01*
Y958310D01*
Y956493D01*
X1526425Y952930D01*
X1527815Y949573D01*
X1529833Y946552D01*
X1532402Y943983D01*
X1535423Y941965D01*
X1538780Y940574D01*
X1542343Y939866D01*
X1545977D01*
X1549540Y940574D01*
X1552897Y941965D01*
X1555917Y943983D01*
X1558486Y946552D01*
X1560505Y949573D01*
X1561895Y952930D01*
X1562604Y956493D01*
Y958310D01*
Y960126D01*
X1561895Y963690D01*
X1560505Y967047D01*
X1558486Y970067D01*
X1555917Y972636D01*
X1552897Y974655D01*
X1549540Y976045D01*
X1545977Y976754D01*
D02*
G37*
%LPD*%
G36*
X1494743Y1062915D02*
X1495096Y1062868D01*
X1495425Y1062821D01*
X1495730Y1062727D01*
X1496271Y1062492D01*
X1496529Y1062375D01*
X1496741Y1062257D01*
X1496952Y1062116D01*
X1497116Y1061999D01*
X1497257Y1061881D01*
X1497398Y1061764D01*
X1497492Y1061670D01*
X1497563Y1061623D01*
X1497586Y1061576D01*
X1497610Y1061553D01*
X1497821Y1061271D01*
X1498033Y1060965D01*
X1498197Y1060660D01*
X1498338Y1060307D01*
X1498550Y1059602D01*
X1498691Y1058921D01*
X1498761Y1058616D01*
X1498785Y1058310D01*
X1498808Y1058052D01*
X1498831Y1057817D01*
X1498855Y1057605D01*
Y1057464D01*
Y1057370D01*
Y1057347D01*
X1498831Y1056830D01*
X1498808Y1056337D01*
X1498738Y1055890D01*
X1498667Y1055491D01*
X1498573Y1055091D01*
X1498456Y1054739D01*
X1498338Y1054434D01*
X1498221Y1054152D01*
X1498103Y1053893D01*
X1497986Y1053682D01*
X1497892Y1053494D01*
X1497774Y1053329D01*
X1497704Y1053212D01*
X1497633Y1053141D01*
X1497610Y1053094D01*
X1497586Y1053071D01*
X1497351Y1052812D01*
X1497093Y1052601D01*
X1496811Y1052413D01*
X1496552Y1052249D01*
X1496271Y1052131D01*
X1496012Y1052013D01*
X1495495Y1051849D01*
X1495049Y1051732D01*
X1494861Y1051708D01*
X1494696Y1051685D01*
X1494556Y1051661D01*
X1494368D01*
X1494015Y1051685D01*
X1493663Y1051732D01*
X1493334Y1051802D01*
X1493028Y1051896D01*
X1492464Y1052107D01*
X1492018Y1052390D01*
X1491806Y1052507D01*
X1491642Y1052648D01*
X1491478Y1052765D01*
X1491360Y1052883D01*
X1491266Y1052953D01*
X1491196Y1053024D01*
X1491149Y1053071D01*
X1491125Y1053094D01*
X1490914Y1053376D01*
X1490702Y1053682D01*
X1490538Y1054011D01*
X1490397Y1054363D01*
X1490162Y1055044D01*
X1490021Y1055726D01*
X1489974Y1056055D01*
X1489927Y1056337D01*
X1489903Y1056619D01*
X1489880Y1056853D01*
X1489857Y1057041D01*
Y1057182D01*
Y1057276D01*
Y1057300D01*
X1489880Y1057817D01*
X1489903Y1058287D01*
X1489974Y1058733D01*
X1490044Y1059156D01*
X1490138Y1059532D01*
X1490232Y1059884D01*
X1490350Y1060190D01*
X1490467Y1060472D01*
X1490585Y1060730D01*
X1490702Y1060942D01*
X1490796Y1061106D01*
X1490890Y1061271D01*
X1490961Y1061388D01*
X1491031Y1061459D01*
X1491055Y1061506D01*
X1491078Y1061529D01*
X1491313Y1061787D01*
X1491572Y1061999D01*
X1491853Y1062187D01*
X1492112Y1062351D01*
X1492394Y1062492D01*
X1492676Y1062586D01*
X1493193Y1062774D01*
X1493663Y1062868D01*
X1493851Y1062892D01*
X1494039Y1062915D01*
X1494180Y1062939D01*
X1494368D01*
X1494743Y1062915D01*
D02*
G37*
G36*
X1502238Y1048865D02*
X1494368D01*
X1495025Y1048889D01*
X1495636Y1048959D01*
X1496224Y1049077D01*
X1496764Y1049218D01*
X1497281Y1049382D01*
X1497751Y1049570D01*
X1498174Y1049758D01*
X1498573Y1049969D01*
X1498902Y1050181D01*
X1499207Y1050369D01*
X1499466Y1050557D01*
X1499677Y1050721D01*
X1499865Y1050862D01*
X1499983Y1050980D01*
X1500053Y1051050D01*
X1500077Y1051074D01*
X1500453Y1051520D01*
X1500782Y1051990D01*
X1501087Y1052483D01*
X1501322Y1052977D01*
X1501534Y1053494D01*
X1501721Y1054011D01*
X1501862Y1054528D01*
X1501980Y1055021D01*
X1502050Y1055467D01*
X1502121Y1055914D01*
X1502168Y1056290D01*
X1502215Y1056619D01*
Y1056900D01*
X1502238Y1057112D01*
Y1048865D01*
D02*
G37*
G36*
X1552048Y1062704D02*
X1552659D01*
X1552800Y1062680D01*
X1553058D01*
X1553152Y1062657D01*
X1553176D01*
X1553457Y1062610D01*
X1553716Y1062539D01*
X1553927Y1062445D01*
X1554115Y1062351D01*
X1554233Y1062257D01*
X1554350Y1062163D01*
X1554397Y1062116D01*
X1554421Y1062093D01*
X1554562Y1061905D01*
X1554656Y1061693D01*
X1554750Y1061506D01*
X1554797Y1061318D01*
X1554820Y1061130D01*
X1554844Y1060989D01*
Y1060895D01*
Y1060871D01*
X1554820Y1060589D01*
X1554773Y1060331D01*
X1554679Y1060119D01*
X1554609Y1059931D01*
X1554515Y1059767D01*
X1554421Y1059673D01*
X1554374Y1059603D01*
X1554350Y1059579D01*
X1554162Y1059415D01*
X1553951Y1059297D01*
X1553739Y1059203D01*
X1553528Y1059133D01*
X1553316Y1059062D01*
X1553176Y1059039D01*
X1553082Y1059015D01*
X1552941D01*
X1552800Y1058992D01*
X1552071D01*
X1551672Y1058968D01*
X1548524D01*
Y1062727D01*
X1551789D01*
X1552048Y1062704D01*
D02*
G37*
G36*
X1552259Y1056243D02*
X1552541Y1056219D01*
X1552823D01*
X1553058Y1056196D01*
X1553270Y1056172D01*
X1553434Y1056149D01*
X1553598Y1056125D01*
X1553716Y1056102D01*
X1553904Y1056078D01*
X1554021Y1056031D01*
X1554045D01*
X1554280Y1055937D01*
X1554491Y1055820D01*
X1554679Y1055702D01*
X1554820Y1055561D01*
X1554938Y1055467D01*
X1555008Y1055373D01*
X1555055Y1055303D01*
X1555079Y1055279D01*
X1555196Y1055068D01*
X1555290Y1054856D01*
X1555361Y1054669D01*
X1555408Y1054457D01*
X1555431Y1054293D01*
X1555455Y1054152D01*
Y1054058D01*
Y1054034D01*
X1555431Y1053729D01*
X1555384Y1053447D01*
X1555314Y1053212D01*
X1555220Y1053024D01*
X1555126Y1052859D01*
X1555055Y1052742D01*
X1555008Y1052671D01*
X1554985Y1052648D01*
X1554797Y1052484D01*
X1554609Y1052343D01*
X1554397Y1052225D01*
X1554209Y1052131D01*
X1554045Y1052084D01*
X1553904Y1052037D01*
X1553810Y1052014D01*
X1553786D01*
X1553692Y1051990D01*
X1553551D01*
X1553246Y1051967D01*
X1552870Y1051943D01*
X1552494D01*
X1552142Y1051920D01*
X1548524D01*
Y1056266D01*
X1551930D01*
X1552259Y1056243D01*
D02*
G37*
G36*
X1558838Y1049171D02*
X1552283D01*
X1552682Y1049194D01*
X1553387D01*
X1553669Y1049218D01*
X1554115D01*
X1554280Y1049241D01*
X1554515D01*
X1554609Y1049265D01*
X1554703D01*
X1555173Y1049335D01*
X1555596Y1049453D01*
X1555971Y1049570D01*
X1556300Y1049711D01*
X1556559Y1049828D01*
X1556747Y1049946D01*
X1556864Y1050016D01*
X1556911Y1050040D01*
X1557240Y1050298D01*
X1557499Y1050580D01*
X1557757Y1050839D01*
X1557945Y1051121D01*
X1558109Y1051356D01*
X1558227Y1051544D01*
X1558297Y1051661D01*
X1558321Y1051708D01*
X1558485Y1052107D01*
X1558626Y1052484D01*
X1558720Y1052859D01*
X1558767Y1053188D01*
X1558814Y1053470D01*
X1558838Y1053682D01*
Y1049171D01*
D02*
G37*
%LPC*%
G36*
X1007621Y1026754D02*
X1003987D01*
X1000424Y1026045D01*
X997067Y1024655D01*
X994046Y1022636D01*
X991478Y1020068D01*
X989459Y1017047D01*
X988069Y1013690D01*
X987360Y1010127D01*
Y1008310D01*
Y1006493D01*
X988069Y1002930D01*
X989459Y999573D01*
X991478Y996553D01*
X994046Y993983D01*
X997067Y991965D01*
X1000424Y990575D01*
X1003987Y989866D01*
X1007621D01*
X1011184Y990575D01*
X1014541Y991965D01*
X1017561Y993983D01*
X1020131Y996553D01*
X1022149Y999573D01*
X1023539Y1002930D01*
X1024248Y1006493D01*
Y1008310D01*
Y1010127D01*
X1023539Y1013690D01*
X1022149Y1017047D01*
X1020131Y1020068D01*
X1017561Y1022636D01*
X1014541Y1024655D01*
X1011184Y1026045D01*
X1007621Y1026754D01*
D02*
G37*
G36*
X1007911Y976754D02*
X1004277D01*
X1000714Y976045D01*
X997357Y974655D01*
X994336Y972636D01*
X991768Y970068D01*
X989749Y967047D01*
X988359Y963690D01*
X987650Y960127D01*
Y958310D01*
Y956493D01*
X988359Y952930D01*
X989749Y949573D01*
X991768Y946553D01*
X994336Y943983D01*
X997357Y941965D01*
X1000714Y940575D01*
X1004277Y939866D01*
X1007911D01*
X1011474Y940575D01*
X1014831Y941965D01*
X1017851Y943983D01*
X1020421Y946553D01*
X1022439Y949573D01*
X1023829Y952930D01*
X1024538Y956493D01*
Y958310D01*
Y960127D01*
X1023829Y963690D01*
X1022439Y967047D01*
X1020421Y970068D01*
X1017851Y972636D01*
X1014831Y974655D01*
X1011474Y976045D01*
X1007911Y976754D01*
D02*
G37*
G36*
X998778Y917755D02*
X998496D01*
X997885Y917731D01*
X997274Y917661D01*
X996734Y917543D01*
X996193Y917402D01*
X995723Y917238D01*
X995254Y917050D01*
X994854Y916838D01*
X994478Y916627D01*
X994126Y916415D01*
X993844Y916204D01*
X993585Y916016D01*
X993374Y915852D01*
X993210Y915711D01*
X993092Y915593D01*
X993022Y915523D01*
X992998Y915499D01*
X992622Y915053D01*
X992317Y914583D01*
X992035Y914090D01*
X991800Y913573D01*
X991588Y913032D01*
X991424Y912515D01*
X991283Y911998D01*
X991165Y911505D01*
X991071Y911012D01*
X991024Y910589D01*
X990977Y910189D01*
X990930Y909860D01*
Y909578D01*
X990907Y909367D01*
Y909179D01*
X990930Y908474D01*
X991001Y907816D01*
X991095Y907182D01*
X991236Y906618D01*
X991377Y906078D01*
X991565Y905561D01*
X991753Y905114D01*
X991941Y904715D01*
X992129Y904339D01*
X992317Y904010D01*
X992505Y903752D01*
X992646Y903517D01*
X992787Y903352D01*
X992881Y903211D01*
X992951Y903141D01*
X992975Y903117D01*
X993374Y902718D01*
X993797Y902389D01*
X994243Y902084D01*
X994690Y901849D01*
X995136Y901637D01*
X995583Y901449D01*
X996005Y901308D01*
X996405Y901191D01*
X996804Y901097D01*
X997157Y901026D01*
X997486Y900979D01*
X997744Y900956D01*
X997979Y900932D01*
X998143Y900909D01*
X998284D01*
X998778Y900932D01*
X999224Y900956D01*
X999671Y901026D01*
X1000070Y901120D01*
X1000446Y901214D01*
X1000798Y901308D01*
X1001127Y901426D01*
X1001433Y901567D01*
X1001691Y901684D01*
X1001926Y901802D01*
X1002138Y901896D01*
X1002302Y901990D01*
X1002443Y902084D01*
X1002537Y902154D01*
X1002584Y902178D01*
X1002607Y902201D01*
X1002913Y902459D01*
X1003195Y902741D01*
X1003712Y903376D01*
X1004135Y904034D01*
X1004464Y904668D01*
X1004605Y904973D01*
X1004722Y905255D01*
X1004816Y905514D01*
X1004910Y905725D01*
X1004980Y905913D01*
X1005027Y906054D01*
X1005051Y906148D01*
Y906172D01*
X1001856Y907159D01*
X1001668Y906524D01*
X1001456Y905984D01*
X1001245Y905537D01*
X1001010Y905161D01*
X1000822Y904879D01*
X1000657Y904691D01*
X1000540Y904574D01*
X1000493Y904527D01*
X1000117Y904245D01*
X999741Y904057D01*
X999365Y903916D01*
X999036Y903799D01*
X998731Y903752D01*
X998472Y903728D01*
X998378Y903705D01*
X998261D01*
X997932Y903728D01*
X997627Y903752D01*
X997063Y903916D01*
X996569Y904104D01*
X996170Y904363D01*
X995841Y904597D01*
X995606Y904786D01*
X995512Y904879D01*
X995442Y904950D01*
X995418Y904973D01*
X995395Y904997D01*
X995207Y905255D01*
X995042Y905561D01*
X994878Y905890D01*
X994760Y906242D01*
X994572Y906971D01*
X994431Y907699D01*
X994384Y908051D01*
X994361Y908357D01*
X994314Y908662D01*
Y908921D01*
X994290Y909109D01*
Y909273D01*
Y909390D01*
Y909414D01*
X994314Y909954D01*
X994337Y910448D01*
X994384Y910894D01*
X994455Y911317D01*
X994549Y911693D01*
X994643Y912045D01*
X994737Y912351D01*
X994854Y912633D01*
X994948Y912868D01*
X995042Y913079D01*
X995136Y913244D01*
X995230Y913385D01*
X995301Y913502D01*
X995348Y913573D01*
X995395Y913620D01*
Y913643D01*
X995606Y913878D01*
X995841Y914090D01*
X996076Y914254D01*
X996334Y914395D01*
X996828Y914630D01*
X997298Y914794D01*
X997697Y914888D01*
X997885Y914912D01*
X998026Y914935D01*
X998167Y914959D01*
X998331D01*
X998801Y914935D01*
X999224Y914841D01*
X999600Y914724D01*
X999929Y914583D01*
X1000188Y914442D01*
X1000376Y914324D01*
X1000493Y914230D01*
X1000540Y914207D01*
X1000845Y913925D01*
X1001127Y913596D01*
X1001339Y913267D01*
X1001503Y912938D01*
X1001621Y912656D01*
X1001691Y912445D01*
X1001738Y912351D01*
Y912280D01*
X1001762Y912257D01*
Y912233D01*
X1005004Y913009D01*
X1004769Y913690D01*
X1004511Y914277D01*
X1004229Y914794D01*
X1003970Y915217D01*
X1003712Y915546D01*
X1003618Y915687D01*
X1003524Y915805D01*
X1003453Y915875D01*
X1003383Y915946D01*
X1003359Y915993D01*
X1003336D01*
X1002983Y916298D01*
X1002584Y916580D01*
X1002208Y916815D01*
X1001809Y917003D01*
X1001386Y917191D01*
X1000986Y917332D01*
X1000587Y917449D01*
X1000211Y917543D01*
X999859Y917614D01*
X999530Y917661D01*
X999248Y917708D01*
X998989Y917731D01*
X998778Y917755D01*
D02*
G37*
G36*
X1057821Y908662D02*
X1051689D01*
Y905537D01*
X1057821D01*
Y908662D01*
D02*
G37*
G36*
X1074079Y917449D02*
X1070602D01*
X1064305Y901191D01*
X1067783D01*
X1069122Y904879D01*
X1075654D01*
X1077063Y901191D01*
X1080611D01*
X1074079Y917449D01*
D02*
G37*
G36*
X1035242Y917332D02*
X1031953D01*
Y901191D01*
X1043418D01*
Y903940D01*
X1035242D01*
Y917332D01*
D02*
G37*
G36*
X1028734Y917449D02*
X1025445D01*
Y901191D01*
X1028734D01*
Y917449D01*
D02*
G37*
G36*
X1015224Y917755D02*
X1015060D01*
X1014355Y917731D01*
X1013674Y917661D01*
X1013086Y917543D01*
X1012569Y917426D01*
X1012358Y917355D01*
X1012147Y917308D01*
X1011982Y917261D01*
X1011841Y917191D01*
X1011724Y917167D01*
X1011630Y917120D01*
X1011583Y917097D01*
X1011559D01*
X1011136Y916909D01*
X1010737Y916674D01*
X1010384Y916415D01*
X1010079Y916180D01*
X1009820Y915969D01*
X1009609Y915781D01*
X1009492Y915664D01*
X1009468Y915640D01*
X1009445Y915617D01*
X1009116Y915241D01*
X1008810Y914841D01*
X1008552Y914489D01*
X1008340Y914137D01*
X1008176Y913831D01*
X1008035Y913596D01*
X1008011Y913502D01*
X1007964Y913432D01*
X1007941Y913408D01*
Y913385D01*
X1007706Y912727D01*
X1007518Y912022D01*
X1007401Y911317D01*
X1007307Y910659D01*
X1007283Y910354D01*
X1007260Y910072D01*
X1007236Y909837D01*
Y909625D01*
X1007213Y909437D01*
Y909202D01*
X1007236Y908498D01*
X1007307Y907816D01*
X1007401Y907182D01*
X1007542Y906595D01*
X1007706Y906054D01*
X1007894Y905561D01*
X1008082Y905091D01*
X1008293Y904691D01*
X1008481Y904316D01*
X1008669Y904010D01*
X1008857Y903728D01*
X1009022Y903493D01*
X1009163Y903329D01*
X1009257Y903188D01*
X1009327Y903117D01*
X1009351Y903094D01*
X1009773Y902694D01*
X1010220Y902365D01*
X1010666Y902060D01*
X1011160Y901825D01*
X1011630Y901614D01*
X1012123Y901426D01*
X1012569Y901285D01*
X1013039Y901167D01*
X1013462Y901073D01*
X1013862Y901003D01*
X1014214Y900956D01*
X1014520Y900932D01*
X1014754Y900909D01*
X1014942Y900885D01*
X1015107D01*
X1015765Y900909D01*
X1016376Y900979D01*
X1016963Y901097D01*
X1017503Y901238D01*
X1018020Y901402D01*
X1018490Y901590D01*
X1018913Y901778D01*
X1019313Y901990D01*
X1019641Y902201D01*
X1019947Y902389D01*
X1020205Y902577D01*
X1020417Y902741D01*
X1020605Y902882D01*
X1020722Y903000D01*
X1020793Y903070D01*
X1020816Y903094D01*
X1021192Y903540D01*
X1021521Y904010D01*
X1021826Y904503D01*
X1022061Y904997D01*
X1022273Y905514D01*
X1022461Y906031D01*
X1022602Y906548D01*
X1022719Y907041D01*
X1022790Y907487D01*
X1022860Y907934D01*
X1022907Y908310D01*
X1022954Y908639D01*
Y908921D01*
X1022978Y909132D01*
Y909296D01*
X1022954Y910025D01*
X1022884Y910706D01*
X1022790Y911341D01*
X1022649Y911951D01*
X1022484Y912492D01*
X1022296Y913009D01*
X1022108Y913479D01*
X1021897Y913878D01*
X1021685Y914254D01*
X1021497Y914583D01*
X1021310Y914865D01*
X1021145Y915100D01*
X1021028Y915264D01*
X1020910Y915405D01*
X1020840Y915476D01*
X1020816Y915499D01*
X1020393Y915899D01*
X1019947Y916251D01*
X1019477Y916556D01*
X1019007Y916815D01*
X1018514Y917026D01*
X1018044Y917214D01*
X1017574Y917355D01*
X1017127Y917473D01*
X1016704Y917567D01*
X1016305Y917637D01*
X1015953Y917684D01*
X1015647Y917731D01*
X1015412D01*
X1015224Y917755D01*
D02*
G37*
%LPD*%
G36*
X1074596Y907628D02*
X1070109D01*
X1072317Y913667D01*
X1074596Y907628D01*
D02*
G37*
G36*
X1015483Y914935D02*
X1015835Y914888D01*
X1016164Y914841D01*
X1016470Y914747D01*
X1017010Y914512D01*
X1017268Y914395D01*
X1017480Y914277D01*
X1017691Y914137D01*
X1017856Y914019D01*
X1017997Y913902D01*
X1018138Y913784D01*
X1018232Y913690D01*
X1018302Y913643D01*
X1018326Y913596D01*
X1018349Y913573D01*
X1018561Y913291D01*
X1018772Y912985D01*
X1018936Y912680D01*
X1019078Y912327D01*
X1019289Y911622D01*
X1019430Y910941D01*
X1019500Y910636D01*
X1019524Y910330D01*
X1019547Y910072D01*
X1019571Y909837D01*
X1019594Y909625D01*
Y909484D01*
Y909390D01*
Y909367D01*
X1019571Y908850D01*
X1019547Y908357D01*
X1019477Y907910D01*
X1019406Y907511D01*
X1019313Y907112D01*
X1019195Y906759D01*
X1019078Y906454D01*
X1018960Y906172D01*
X1018843Y905913D01*
X1018725Y905702D01*
X1018631Y905514D01*
X1018514Y905349D01*
X1018443Y905232D01*
X1018373Y905161D01*
X1018349Y905114D01*
X1018326Y905091D01*
X1018091Y904833D01*
X1017832Y904621D01*
X1017550Y904433D01*
X1017292Y904269D01*
X1017010Y904151D01*
X1016751Y904034D01*
X1016235Y903869D01*
X1015788Y903752D01*
X1015600Y903728D01*
X1015436Y903705D01*
X1015295Y903681D01*
X1015107D01*
X1014754Y903705D01*
X1014402Y903752D01*
X1014073Y903822D01*
X1013768Y903916D01*
X1013204Y904128D01*
X1012757Y904409D01*
X1012546Y904527D01*
X1012381Y904668D01*
X1012217Y904786D01*
X1012100Y904903D01*
X1012005Y904973D01*
X1011935Y905044D01*
X1011888Y905091D01*
X1011864Y905114D01*
X1011653Y905396D01*
X1011442Y905702D01*
X1011277Y906031D01*
X1011136Y906383D01*
X1010901Y907065D01*
X1010760Y907746D01*
X1010713Y908075D01*
X1010666Y908357D01*
X1010643Y908639D01*
X1010619Y908874D01*
X1010596Y909062D01*
Y909202D01*
Y909296D01*
Y909320D01*
X1010619Y909837D01*
X1010643Y910307D01*
X1010713Y910753D01*
X1010784Y911176D01*
X1010878Y911552D01*
X1010972Y911904D01*
X1011089Y912210D01*
X1011207Y912492D01*
X1011324Y912750D01*
X1011442Y912962D01*
X1011536Y913126D01*
X1011630Y913291D01*
X1011700Y913408D01*
X1011771Y913479D01*
X1011794Y913526D01*
X1011818Y913549D01*
X1012053Y913808D01*
X1012311Y914019D01*
X1012593Y914207D01*
X1012851Y914371D01*
X1013133Y914512D01*
X1013415Y914606D01*
X1013932Y914794D01*
X1014402Y914888D01*
X1014590Y914912D01*
X1014778Y914935D01*
X1014919Y914959D01*
X1015107D01*
X1015483Y914935D01*
D02*
G37*
D10*
X1356649Y1015572D02*
G03*
X1353649Y1015559I-1500J-13D01*
G01*
D02*
G03*
X1356649Y1015546I1500J0D01*
G01*
X1196351Y951061D02*
G03*
X1193351Y951074I-1500J0D01*
G01*
Y951048D02*
G03*
X1196351Y951061I1500J13D01*
G01*
D11*
X1243500Y860000D02*
G03*
X1243500Y860000I-1000J0D01*
G01*
X1364050Y971240D02*
Y975292D01*
Y971240D02*
X1368102D01*
X1364050Y1021190D02*
Y1025241D01*
X1368102D01*
X1413999Y971240D02*
X1418051D01*
Y975292D01*
X1413999Y1025241D02*
X1418051D01*
Y1021190D02*
Y1025241D01*
X1475620Y899300D02*
X1486456D01*
X1499784D02*
X1510620D01*
X1499785Y989300D02*
X1510620D01*
X1475620D02*
X1486455D01*
X1475620Y899300D02*
Y989300D01*
X1510620Y899300D02*
X1510620Y989300D01*
X1319700Y814000D02*
Y826500D01*
X1230300Y814000D02*
Y826500D01*
X1319700Y774000D02*
Y786800D01*
X1230300Y774000D02*
Y786800D01*
X1131949Y941379D02*
Y945430D01*
Y941379D02*
X1136000D01*
X1131949Y991328D02*
Y995379D01*
X1136000D01*
X1181898Y941379D02*
X1185949D01*
Y945430D01*
X1181898Y995379D02*
X1185949D01*
Y991328D02*
Y995379D01*
X1063544Y1067320D02*
X1074380D01*
X1039380D02*
X1050216D01*
X1039380Y977320D02*
X1050215D01*
X1063545D02*
X1074380D01*
Y1067320D01*
X1039380Y977320D02*
X1039380Y1067320D01*
X1196580Y1048007D02*
X1205216D01*
X1191500Y1042927D02*
X1196580Y1048007D01*
X1205216D02*
X1210296Y1042927D01*
X1196580Y1029211D02*
X1205216D01*
X1210296Y1034291D01*
Y1042927D01*
X1191500Y1034291D02*
Y1042927D01*
Y1034291D02*
X1196580Y1029211D01*
Y1073407D02*
X1205216D01*
X1191500Y1068327D02*
X1196580Y1073407D01*
X1205216D02*
X1210296Y1068327D01*
X1196580Y1054611D02*
X1205216D01*
X1210296Y1059691D01*
Y1068327D01*
X1191500Y1059691D02*
Y1068327D01*
Y1059691D02*
X1196580Y1054611D01*
X1330198Y1081298D02*
X1335278Y1076218D01*
Y1067582D02*
Y1076218D01*
X1316482Y1067582D02*
Y1076218D01*
X1321562Y1081298D01*
X1330198D01*
X1316482Y1067582D02*
X1321562Y1062502D01*
X1330198D02*
X1335278Y1067582D01*
X1321562Y1062502D02*
X1330198D01*
Y1106319D02*
X1335278Y1101239D01*
Y1092603D02*
Y1101239D01*
X1316482Y1092603D02*
Y1101239D01*
X1321562Y1106319D01*
X1330198D01*
X1316482Y1092603D02*
X1321562Y1087523D01*
X1330198D02*
X1335278Y1092603D01*
X1321562Y1087523D02*
X1330198D01*
X643630Y710810D02*
Y1255810D01*
X98630Y710810D02*
X643630D01*
X98630D02*
Y1255810D01*
X643630D01*
X1906370Y710810D02*
X2451370D01*
Y1255810D01*
X1906370D02*
X2451370D01*
X1906370Y710810D02*
Y1255810D01*
D12*
X1354716Y966160D02*
X1365384D01*
X1354716Y958286D02*
Y966160D01*
X1365384Y958286D02*
Y966160D01*
X1354716Y941268D02*
X1365384D01*
X1354716D02*
Y949142D01*
X1365384Y941268D02*
Y949142D01*
X1340633Y941522D02*
Y965906D01*
X1351301D01*
X1340633Y941522D02*
X1351301D01*
Y965906D01*
X1388381Y1032432D02*
Y1043100D01*
X1380507D02*
X1388381D01*
X1380507Y1032432D02*
X1388381D01*
X1363489D02*
Y1043100D01*
X1371363D01*
X1363489Y1032432D02*
X1371363D01*
X1344277Y1003294D02*
X1354945D01*
X1344277Y995420D02*
Y1003294D01*
X1354945Y995420D02*
Y1003294D01*
X1344277Y978402D02*
X1354945D01*
X1344277D02*
Y986276D01*
X1354945Y978402D02*
Y986276D01*
X1395245Y1032431D02*
Y1043100D01*
Y1032431D02*
X1403119D01*
X1395245Y1043100D02*
X1403119D01*
X1420137Y1032431D02*
Y1043100D01*
X1412263Y1032431D02*
X1420137D01*
X1412263Y1043100D02*
X1420137D01*
X1395245Y1046009D02*
Y1063281D01*
Y1046009D02*
X1405405D01*
X1395245Y1063281D02*
X1405405D01*
X1427757Y1046009D02*
Y1063281D01*
X1417597Y1046009D02*
X1427757D01*
X1417597Y1063281D02*
X1427757D01*
X1395139Y1066328D02*
Y1083600D01*
Y1066328D02*
X1405299D01*
X1395139Y1083600D02*
X1405299D01*
X1427651Y1066328D02*
Y1083600D01*
X1417491Y1066328D02*
X1427651D01*
X1417491Y1083600D02*
X1427651D01*
X1460246Y1005038D02*
X1470914D01*
Y1012912D01*
X1460246Y1005038D02*
Y1012912D01*
Y1029930D02*
X1470914D01*
Y1022056D02*
Y1029930D01*
X1460246Y1022056D02*
Y1029930D01*
X1460244Y1001561D02*
X1470912D01*
X1460244Y993687D02*
Y1001561D01*
X1470912Y993687D02*
Y1001561D01*
X1460244Y976669D02*
X1470912D01*
X1460244D02*
Y984543D01*
X1470912Y976669D02*
Y984543D01*
X1430636Y985286D02*
X1441304D01*
X1430636Y977412D02*
Y985286D01*
X1441304Y977412D02*
Y985286D01*
X1430636Y960394D02*
X1441304D01*
X1430636D02*
Y968268D01*
X1441304Y960394D02*
Y968268D01*
X1445765Y933727D02*
X1470149D01*
X1445765D02*
Y944395D01*
X1470149Y933727D02*
Y944395D01*
X1445765D02*
X1470149D01*
X1430635Y919249D02*
Y943633D01*
X1441303D01*
X1430635Y919249D02*
X1441303D01*
Y943633D01*
X1417348Y943633D02*
X1428016D01*
X1417348Y935759D02*
Y943633D01*
X1428016Y935759D02*
Y943633D01*
X1417348Y918741D02*
X1428016D01*
X1417348D02*
Y926615D01*
X1428016Y918741D02*
Y926615D01*
X1414918Y919251D02*
Y943635D01*
X1404250Y919251D02*
X1414918D01*
X1404250Y943635D02*
X1414918D01*
X1404250Y919251D02*
Y943635D01*
X1401801Y919250D02*
Y943634D01*
X1391133Y919250D02*
X1401801D01*
X1391133Y943634D02*
X1401801D01*
X1391133Y919250D02*
Y943634D01*
X1388718Y919251D02*
Y943635D01*
X1378050Y919251D02*
X1388718D01*
X1378050Y943635D02*
X1388718D01*
X1378050Y919251D02*
Y943635D01*
X1445894Y929155D02*
X1470278D01*
Y918487D02*
Y929155D01*
X1445894Y918487D02*
Y929155D01*
Y918487D02*
X1470278D01*
X1430655Y914514D02*
X1455039D01*
Y903846D02*
Y914514D01*
X1430655Y903846D02*
Y914514D01*
Y903846D02*
X1455039D01*
X1471805Y876414D02*
X1495173D01*
Y877938D01*
X1471805Y891146D02*
X1495173D01*
Y889622D02*
Y891146D01*
X1340671Y790727D02*
X1344171D01*
X1340671D02*
Y848981D01*
X1367825Y790727D02*
X1371325D01*
Y848981D01*
X1313572Y871728D02*
X1349640D01*
X1313572Y907796D02*
X1349640D01*
X1267660Y868920D02*
X1268098D01*
X1288205D02*
X1288644D01*
X1267660Y889081D02*
X1268098D01*
X1267660Y868920D02*
Y888921D01*
X1288644Y868920D02*
Y888921D01*
X1283753Y894082D02*
X1286293D01*
X1285023Y892812D02*
X1286293Y894082D01*
X1283753D02*
X1285023Y892812D01*
X1282731Y901228D02*
Y911896D01*
X1274857D02*
X1282731D01*
X1274857Y901228D02*
X1282731D01*
X1257839D02*
Y911896D01*
X1265713D01*
X1257839Y901228D02*
X1265713D01*
X1252804Y873552D02*
Y897936D01*
X1263472D01*
X1252804Y873552D02*
X1263472D01*
Y897936D01*
X1129863Y923520D02*
X1137737D01*
X1129863Y934188D02*
X1137737D01*
X1129863Y923520D02*
Y934188D01*
X1146881Y923520D02*
X1154755D01*
X1146881Y934188D02*
X1154755D01*
Y923520D02*
Y934188D01*
X1122243Y903339D02*
X1132403D01*
X1122243Y920611D02*
X1132403D01*
X1122243Y903339D02*
Y920611D01*
X1144595Y903339D02*
X1154755D01*
X1144595Y920611D02*
X1154755D01*
Y903339D02*
Y920611D01*
X1122347Y883019D02*
X1132507D01*
X1122347Y900291D02*
X1132507D01*
X1122347Y883019D02*
Y900291D01*
X1144699Y883019D02*
X1154859D01*
X1144699Y900291D02*
X1154859D01*
Y883019D02*
Y900291D01*
X1178635Y934187D02*
X1186509D01*
X1178635Y923519D02*
X1186509D01*
Y934187D01*
X1161617D02*
X1169491D01*
X1161617Y923519D02*
X1169491D01*
X1161617D02*
Y934187D01*
X1195056Y998098D02*
Y1022482D01*
X1205724D01*
X1195056Y998098D02*
X1205724D01*
Y1022482D01*
X1195056Y980342D02*
Y988216D01*
X1205724Y980342D02*
Y988216D01*
X1195056D02*
X1205724D01*
X1195056Y963324D02*
Y971198D01*
X1205724Y963324D02*
Y971198D01*
X1195056Y963324D02*
X1205724D01*
X1094961Y1062774D02*
X1119345D01*
Y1052106D02*
Y1062774D01*
X1094961Y1052106D02*
Y1062774D01*
Y1052106D02*
X1119345D01*
X1108696Y1022986D02*
Y1047370D01*
X1119364D01*
X1108696Y1022986D02*
X1119364D01*
Y1047370D01*
X1121984Y1040004D02*
Y1047878D01*
X1132652Y1040004D02*
Y1047878D01*
X1121984D02*
X1132652D01*
X1121984Y1022986D02*
Y1030860D01*
X1132652Y1022986D02*
Y1030860D01*
X1121984Y1022986D02*
X1132652D01*
X1145748Y1022985D02*
Y1047369D01*
X1135080Y1022985D02*
X1145748D01*
X1135080Y1047369D02*
X1145748D01*
X1135080Y1022985D02*
Y1047369D01*
X1158865Y1022986D02*
Y1047370D01*
X1148197Y1022986D02*
X1158865D01*
X1148197Y1047370D02*
X1158865D01*
X1148197Y1022986D02*
Y1047370D01*
X1171949Y1022985D02*
Y1047369D01*
X1161281Y1022985D02*
X1171949D01*
X1161281Y1047369D02*
X1171949D01*
X1161281Y1022985D02*
Y1047369D01*
X1185033Y1022730D02*
Y1030604D01*
X1174365Y1022730D02*
Y1030604D01*
Y1022730D02*
X1185033D01*
Y1039748D02*
Y1047622D01*
X1174365Y1039748D02*
Y1047622D01*
X1185033D01*
X1079721Y1048132D02*
X1104105D01*
Y1037464D02*
Y1048132D01*
X1079721Y1037464D02*
Y1048132D01*
Y1037464D02*
X1104105D01*
X1079850Y1032892D02*
X1104234D01*
Y1022224D02*
Y1032892D01*
X1079850Y1022224D02*
Y1032892D01*
Y1022224D02*
X1104234D01*
X1108696Y998352D02*
Y1006226D01*
X1119364Y998352D02*
Y1006226D01*
X1108696D02*
X1119364D01*
X1108696Y981334D02*
Y989208D01*
X1119364Y981334D02*
Y989208D01*
X1108696Y981334D02*
X1119364D01*
X1079088Y982077D02*
Y989951D01*
X1089756Y982077D02*
Y989951D01*
X1079088D02*
X1089756D01*
X1079088Y965059D02*
Y972933D01*
X1089756Y965059D02*
Y972933D01*
X1079088Y965059D02*
X1089756D01*
X1089754Y936690D02*
Y944564D01*
X1079086Y936690D02*
Y944564D01*
Y936690D02*
X1089754D01*
Y953708D02*
Y961582D01*
X1079086Y953708D02*
Y961582D01*
X1089754D01*
X1054827Y1075474D02*
Y1076998D01*
Y1075474D02*
X1078195D01*
X1054827Y1088682D02*
Y1090206D01*
X1078195D01*
X1435810Y1170312D02*
X1448002D01*
Y1163454D02*
Y1170312D01*
X1435810Y1163454D02*
Y1170312D01*
Y1147960D02*
X1448002D01*
Y1154818D01*
X1435810Y1147960D02*
Y1154818D01*
X1358378Y1170312D02*
X1370570D01*
Y1163454D02*
Y1170312D01*
X1358378Y1163454D02*
Y1170312D01*
Y1147960D02*
X1370570D01*
Y1154818D01*
X1358378Y1147960D02*
Y1154818D01*
X1179430Y1147960D02*
Y1154818D01*
X1191622Y1147960D02*
Y1154818D01*
X1179430Y1147960D02*
X1191622D01*
X1179430Y1163454D02*
Y1170312D01*
X1191622Y1163454D02*
Y1170312D01*
X1179430D02*
X1191622D01*
X1101998Y1147960D02*
Y1154818D01*
X1114190Y1147960D02*
Y1154818D01*
X1101998Y1147960D02*
X1114190D01*
X1101998Y1163454D02*
Y1170312D01*
X1114190Y1163454D02*
Y1170312D01*
X1101998D02*
X1114190D01*
D13*
X1296778Y963962D02*
Y1048745D01*
X1333862D01*
Y963962D02*
Y1048745D01*
X1296778Y963962D02*
X1333862D01*
X1213598Y1002658D02*
X1250682D01*
X1213598Y917874D02*
Y1002658D01*
Y917874D02*
X1250682D01*
Y1002658D01*
D14*
X1041781Y792879D02*
X1044743D01*
X1043262D01*
Y801766D01*
X1041781Y800285D01*
X1055112Y801766D02*
X1049187D01*
Y797323D01*
X1052149Y798804D01*
X1053631D01*
X1055112Y797323D01*
Y794361D01*
X1053631Y792879D01*
X1050668D01*
X1049187Y794361D01*
X1058074Y801766D02*
Y792879D01*
X1061036Y795842D01*
X1063999Y792879D01*
Y801766D01*
X1066961Y797323D02*
X1072886D01*
X1075848Y801766D02*
Y792879D01*
X1080292D01*
X1081773Y794361D01*
Y800285D01*
X1080292Y801766D01*
X1075848D01*
X1084735D02*
Y794361D01*
X1086217Y792879D01*
X1089179D01*
X1090660Y794361D01*
Y801766D01*
X1093623Y792879D02*
Y798804D01*
X1096585Y801766D01*
X1099547Y798804D01*
Y792879D01*
Y797323D01*
X1093623D01*
X1102510Y801766D02*
Y792879D01*
X1108435D01*
X1111397Y797323D02*
X1117322D01*
X1120284Y801766D02*
X1126209D01*
X1123246D01*
Y792879D01*
X1129171D02*
Y801766D01*
X1133615D01*
X1135096Y800285D01*
Y797323D01*
X1133615Y795842D01*
X1129171D01*
X1132133D02*
X1135096Y792879D01*
X1138058D02*
Y798804D01*
X1141021Y801766D01*
X1143983Y798804D01*
Y792879D01*
Y797323D01*
X1138058D01*
X1146945Y792879D02*
Y801766D01*
X1152870Y792879D01*
Y801766D01*
X1161757Y800285D02*
X1160276Y801766D01*
X1157314D01*
X1155833Y800285D01*
Y798804D01*
X1157314Y797323D01*
X1160276D01*
X1161757Y795842D01*
Y794361D01*
X1160276Y792879D01*
X1157314D01*
X1155833Y794361D01*
X1164720Y792879D02*
Y801766D01*
X1167682Y798804D01*
X1170644Y801766D01*
Y792879D01*
X1173607Y801766D02*
X1176569D01*
X1175088D01*
Y792879D01*
X1173607D01*
X1176569D01*
X1181013Y801766D02*
X1186937D01*
X1183975D01*
Y792879D01*
X1189900Y801766D02*
X1195825D01*
X1192862D01*
Y792879D01*
X1204712Y801766D02*
X1198787D01*
Y792879D01*
X1204712D01*
X1198787Y797323D02*
X1201749D01*
X1207674Y792879D02*
Y801766D01*
X1212118D01*
X1213599Y800285D01*
Y797323D01*
X1212118Y795842D01*
X1207674D01*
X1210636D02*
X1213599Y792879D01*
X1054341Y963790D02*
X1053071Y962520D01*
Y959981D01*
X1054341Y958711D01*
X1059419D01*
X1060689Y959981D01*
Y962520D01*
X1059419Y963790D01*
X1053071Y971407D02*
Y966329D01*
X1056880D01*
X1055610Y968868D01*
Y970138D01*
X1056880Y971407D01*
X1059419D01*
X1060689Y970138D01*
Y967598D01*
X1059419Y966329D01*
X1490581Y1000291D02*
X1489311Y999021D01*
Y996482D01*
X1490581Y995213D01*
X1495659D01*
X1496929Y996482D01*
Y999021D01*
X1495659Y1000291D01*
X1496929Y1006639D02*
X1489311D01*
X1493120Y1002830D01*
Y1007909D01*
X1107681Y953685D02*
Y947337D01*
X1108950Y946068D01*
X1111489D01*
X1112759Y947337D01*
Y953685D01*
X1120377D02*
X1115298D01*
Y949877D01*
X1117837Y951146D01*
X1119107D01*
X1120377Y949877D01*
Y947337D01*
X1119107Y946068D01*
X1116568D01*
X1115298Y947337D01*
X1427422Y1024048D02*
Y1017701D01*
X1428692Y1016431D01*
X1431231D01*
X1432500Y1017701D01*
Y1024048D01*
X1438848Y1016431D02*
Y1024048D01*
X1435040Y1020240D01*
X1440118D01*
X1292862Y867409D02*
Y861061D01*
X1294131Y859791D01*
X1296670D01*
X1297940Y861061D01*
Y867409D01*
X1300479Y859791D02*
X1303018D01*
X1301749D01*
Y867409D01*
X1300479Y866139D01*
X1216663Y1042453D02*
X1221742D01*
X1219202D01*
Y1034835D01*
X1224281D02*
Y1042453D01*
X1228090D01*
X1229359Y1041183D01*
Y1038644D01*
X1228090Y1037374D01*
X1224281D01*
X1235707Y1034835D02*
Y1042453D01*
X1231898Y1038644D01*
X1236977D01*
X1290323Y1100327D02*
X1295402D01*
X1292863D01*
Y1092709D01*
X1297941D02*
Y1100327D01*
X1301750D01*
X1303019Y1099057D01*
Y1096518D01*
X1301750Y1095248D01*
X1297941D01*
X1305558Y1099057D02*
X1306828Y1100327D01*
X1309367D01*
X1310637Y1099057D01*
Y1097788D01*
X1309367Y1096518D01*
X1308098D01*
X1309367D01*
X1310637Y1095248D01*
Y1093979D01*
X1309367Y1092709D01*
X1306828D01*
X1305558Y1093979D01*
X1216663Y1067599D02*
X1221742D01*
X1219202D01*
Y1059981D01*
X1224281D02*
Y1067599D01*
X1228090D01*
X1229359Y1066329D01*
Y1063790D01*
X1228090Y1062520D01*
X1224281D01*
X1236977Y1059981D02*
X1231898D01*
X1236977Y1065060D01*
Y1066329D01*
X1235707Y1067599D01*
X1233168D01*
X1231898Y1066329D01*
X1290132Y1076197D02*
X1295210D01*
X1292671D01*
Y1068579D01*
X1297749D02*
Y1076197D01*
X1301558D01*
X1302827Y1074927D01*
Y1072388D01*
X1301558Y1071118D01*
X1297749D01*
X1305367Y1068579D02*
X1307906D01*
X1306636D01*
Y1076197D01*
X1305367Y1074927D01*
X1169544Y1006557D02*
Y1014175D01*
X1173352D01*
X1174622Y1012905D01*
Y1010366D01*
X1173352Y1009096D01*
X1169544D01*
X1172083D02*
X1174622Y1006557D01*
X1177161Y1014175D02*
X1182240D01*
X1179700D01*
Y1006557D01*
X1189857D02*
X1184779D01*
X1189857Y1011636D01*
Y1012905D01*
X1188587Y1014175D01*
X1186048D01*
X1184779Y1012905D01*
X1350009Y918213D02*
X1342391D01*
Y922022D01*
X1343661Y923291D01*
X1346200D01*
X1347469Y922022D01*
Y918213D01*
Y920752D02*
X1350009Y923291D01*
X1342391Y925830D02*
Y930909D01*
Y928370D01*
X1350009D01*
Y933448D02*
Y935987D01*
Y934718D01*
X1342391D01*
X1343661Y933448D01*
X1263649Y982466D02*
X1256031D01*
Y986274D01*
X1257301Y987544D01*
X1259840D01*
X1261110Y986274D01*
Y982466D01*
Y985005D02*
X1263649Y987544D01*
Y990083D02*
Y992622D01*
Y991353D01*
X1256031D01*
X1257301Y990083D01*
X1256031Y996431D02*
Y1001509D01*
X1257301D01*
X1262379Y996431D01*
X1263649D01*
X1291174Y963486D02*
X1283556D01*
Y967295D01*
X1284826Y968565D01*
X1287365D01*
X1288635Y967295D01*
Y963486D01*
Y966025D02*
X1291174Y968565D01*
Y971104D02*
Y973643D01*
Y972373D01*
X1283556D01*
X1284826Y971104D01*
X1283556Y982530D02*
X1284826Y979991D01*
X1287365Y977452D01*
X1289904D01*
X1291174Y978721D01*
Y981260D01*
X1289904Y982530D01*
X1288635D01*
X1287365Y981260D01*
Y977452D01*
X1170424Y1053472D02*
X1162807D01*
Y1057281D01*
X1164076Y1058550D01*
X1166616D01*
X1167885Y1057281D01*
Y1053472D01*
Y1056011D02*
X1170424Y1058550D01*
Y1061090D02*
Y1063629D01*
Y1062359D01*
X1162807D01*
X1164076Y1061090D01*
X1162807Y1072516D02*
Y1067438D01*
X1166616D01*
X1165346Y1069977D01*
Y1071246D01*
X1166616Y1072516D01*
X1169155D01*
X1170424Y1071246D01*
Y1068707D01*
X1169155Y1067438D01*
X1387191Y894324D02*
X1379574D01*
Y898133D01*
X1380843Y899402D01*
X1383382D01*
X1384652Y898133D01*
Y894324D01*
Y896863D02*
X1387191Y899402D01*
Y901942D02*
Y904481D01*
Y903211D01*
X1379574D01*
X1380843Y901942D01*
X1387191Y912098D02*
X1379574D01*
X1383382Y908289D01*
Y913368D01*
X1157340Y1053472D02*
X1149723D01*
Y1057281D01*
X1150993Y1058550D01*
X1153532D01*
X1154801Y1057281D01*
Y1053472D01*
Y1056011D02*
X1157340Y1058550D01*
Y1061090D02*
Y1063629D01*
Y1062359D01*
X1149723D01*
X1150993Y1061090D01*
Y1067438D02*
X1149723Y1068707D01*
Y1071246D01*
X1150993Y1072516D01*
X1152262D01*
X1153532Y1071246D01*
Y1069977D01*
Y1071246D01*
X1154801Y1072516D01*
X1156071D01*
X1157340Y1071246D01*
Y1068707D01*
X1156071Y1067438D01*
X1400278Y894324D02*
X1392660D01*
Y898133D01*
X1393930Y899402D01*
X1396469D01*
X1397738Y898133D01*
Y894324D01*
Y896863D02*
X1400278Y899402D01*
Y901942D02*
Y904481D01*
Y903211D01*
X1392660D01*
X1393930Y901942D01*
X1400278Y913368D02*
Y908289D01*
X1395199Y913368D01*
X1393930D01*
X1392660Y912098D01*
Y909559D01*
X1393930Y908289D01*
X1144223Y1053472D02*
X1136606D01*
Y1057281D01*
X1137875Y1058550D01*
X1140414D01*
X1141684Y1057281D01*
Y1053472D01*
Y1056011D02*
X1144223Y1058550D01*
Y1061090D02*
Y1063629D01*
Y1062359D01*
X1136606D01*
X1137875Y1061090D01*
X1144223Y1067438D02*
Y1069977D01*
Y1068707D01*
X1136606D01*
X1137875Y1067438D01*
X1413393Y894324D02*
X1405775D01*
Y898133D01*
X1407045Y899402D01*
X1409584D01*
X1410854Y898133D01*
Y894324D01*
Y896863D02*
X1413393Y899402D01*
Y901942D02*
Y904481D01*
Y903211D01*
X1405775D01*
X1407045Y901942D01*
Y908289D02*
X1405775Y909559D01*
Y912098D01*
X1407045Y913368D01*
X1412124D01*
X1413393Y912098D01*
Y909559D01*
X1412124Y908289D01*
X1407045D01*
X1105624Y1068071D02*
Y1075689D01*
X1109433D01*
X1110702Y1074419D01*
Y1071880D01*
X1109433Y1070610D01*
X1105624D01*
X1108163D02*
X1110702Y1068071D01*
X1113241Y1069341D02*
X1114511Y1068071D01*
X1117050D01*
X1118320Y1069341D01*
Y1074419D01*
X1117050Y1075689D01*
X1114511D01*
X1113241Y1074419D01*
Y1073150D01*
X1114511Y1071880D01*
X1118320D01*
X1431292Y890271D02*
Y897889D01*
X1435101D01*
X1436370Y896619D01*
Y894080D01*
X1435101Y892810D01*
X1431292D01*
X1433831D02*
X1436370Y890271D01*
X1438910Y896619D02*
X1440179Y897889D01*
X1442718D01*
X1443988Y896619D01*
Y895350D01*
X1442718Y894080D01*
X1443988Y892810D01*
Y891541D01*
X1442718Y890271D01*
X1440179D01*
X1438910Y891541D01*
Y892810D01*
X1440179Y894080D01*
X1438910Y895350D01*
Y896619D01*
X1440179Y894080D02*
X1442718D01*
X1108499Y1011273D02*
Y1018891D01*
X1112308D01*
X1113577Y1017621D01*
Y1015082D01*
X1112308Y1013812D01*
X1108499D01*
X1111038D02*
X1113577Y1011273D01*
X1116116Y1018891D02*
X1121195D01*
Y1017621D01*
X1116116Y1012543D01*
Y1011273D01*
X1429271Y948777D02*
Y956395D01*
X1433080D01*
X1434350Y955125D01*
Y952586D01*
X1433080Y951317D01*
X1429271D01*
X1431810D02*
X1434350Y948777D01*
X1441967Y956395D02*
X1439428Y955125D01*
X1436889Y952586D01*
Y950047D01*
X1438159Y948777D01*
X1440698D01*
X1441967Y950047D01*
Y951317D01*
X1440698Y952586D01*
X1436889D01*
X1087973Y1053472D02*
X1080355D01*
Y1057281D01*
X1081625Y1058550D01*
X1084164D01*
X1085434Y1057281D01*
Y1053472D01*
Y1056011D02*
X1087973Y1058550D01*
X1080355Y1066168D02*
Y1061090D01*
X1084164D01*
X1082894Y1063629D01*
Y1064898D01*
X1084164Y1066168D01*
X1086703D01*
X1087973Y1064898D01*
Y1062359D01*
X1086703Y1061090D01*
X1469643Y900452D02*
X1462025D01*
Y904261D01*
X1463295Y905530D01*
X1465834D01*
X1467104Y904261D01*
Y900452D01*
Y902991D02*
X1469643Y905530D01*
Y911878D02*
X1462025D01*
X1465834Y908070D01*
Y913148D01*
X1085695Y1011273D02*
Y1018891D01*
X1089504D01*
X1090773Y1017621D01*
Y1015082D01*
X1089504Y1013812D01*
X1085695D01*
X1088234D02*
X1090773Y1011273D01*
X1093312Y1017621D02*
X1094582Y1018891D01*
X1097121D01*
X1098391Y1017621D01*
Y1016352D01*
X1097121Y1015082D01*
X1095852D01*
X1097121D01*
X1098391Y1013812D01*
Y1012543D01*
X1097121Y1011273D01*
X1094582D01*
X1093312Y1012543D01*
X1451737Y949109D02*
Y956726D01*
X1455546D01*
X1456815Y955457D01*
Y952917D01*
X1455546Y951648D01*
X1451737D01*
X1454276D02*
X1456815Y949109D01*
X1464433D02*
X1459355D01*
X1464433Y954187D01*
Y955457D01*
X1463163Y956726D01*
X1460624D01*
X1459355Y955457D01*
X1247309Y873841D02*
X1239691D01*
Y877650D01*
X1240961Y878920D01*
X1243500D01*
X1244770Y877650D01*
Y873841D01*
Y876381D02*
X1247309Y878920D01*
Y881459D02*
Y883998D01*
Y882729D01*
X1239691D01*
X1240961Y881459D01*
X1181786Y1113794D02*
X1189404D01*
Y1118873D01*
X1181786Y1126490D02*
Y1121412D01*
X1189404D01*
Y1126490D01*
X1185595Y1121412D02*
Y1123951D01*
X1181786Y1129030D02*
X1189404D01*
Y1132838D01*
X1188134Y1134108D01*
X1183056D01*
X1181786Y1132838D01*
Y1129030D01*
X1189404Y1140456D02*
X1181786D01*
X1185595Y1136647D01*
Y1141725D01*
X1360787Y1113794D02*
X1368405D01*
Y1118873D01*
X1360787Y1126490D02*
Y1121412D01*
X1368405D01*
Y1126490D01*
X1364596Y1121412D02*
Y1123951D01*
X1360787Y1129030D02*
X1368405D01*
Y1132838D01*
X1367135Y1134108D01*
X1362057D01*
X1360787Y1132838D01*
Y1129030D01*
X1362057Y1136647D02*
X1360787Y1137917D01*
Y1140456D01*
X1362057Y1141725D01*
X1363327D01*
X1364596Y1140456D01*
Y1139186D01*
Y1140456D01*
X1365866Y1141725D01*
X1367135D01*
X1368405Y1140456D01*
Y1137917D01*
X1367135Y1136647D01*
X1104354Y1113794D02*
X1111972D01*
Y1118873D01*
X1104354Y1126490D02*
Y1121412D01*
X1111972D01*
Y1126490D01*
X1108163Y1121412D02*
Y1123951D01*
X1104354Y1129030D02*
X1111972D01*
Y1132838D01*
X1110702Y1134108D01*
X1105624D01*
X1104354Y1132838D01*
Y1129030D01*
X1111972Y1141725D02*
Y1136647D01*
X1106893Y1141725D01*
X1105624D01*
X1104354Y1140456D01*
Y1137917D01*
X1105624Y1136647D01*
X1438166Y1117604D02*
X1445784D01*
Y1122682D01*
X1438166Y1130300D02*
Y1125222D01*
X1445784D01*
Y1130300D01*
X1441975Y1125222D02*
Y1127761D01*
X1438166Y1132839D02*
X1445784D01*
Y1136648D01*
X1444514Y1137917D01*
X1439436D01*
X1438166Y1136648D01*
Y1132839D01*
X1445784Y1140457D02*
Y1142996D01*
Y1141726D01*
X1438166D01*
X1439436Y1140457D01*
X1216660Y824229D02*
X1214121D01*
X1215390D01*
Y817881D01*
X1214121Y816611D01*
X1212851D01*
X1211582Y817881D01*
X1219199Y816611D02*
X1221738D01*
X1220469D01*
Y824229D01*
X1219199Y822959D01*
X1303020Y918209D02*
X1297942D01*
Y914400D01*
X1300481D01*
X1297942D01*
Y910591D01*
X1305559D02*
X1308098D01*
X1306829D01*
Y918209D01*
X1305559Y916939D01*
X1083781Y1102386D02*
Y1094769D01*
X1087590D01*
X1088859Y1096038D01*
Y1101117D01*
X1087590Y1102386D01*
X1083781D01*
X1091399Y1101117D02*
X1092668Y1102386D01*
X1095207D01*
X1096477Y1101117D01*
Y1099847D01*
X1095207Y1098578D01*
X1093938D01*
X1095207D01*
X1096477Y1097308D01*
Y1096038D01*
X1095207Y1094769D01*
X1092668D01*
X1091399Y1096038D01*
X1453752Y871282D02*
Y863664D01*
X1457561D01*
X1458830Y864934D01*
Y870013D01*
X1457561Y871282D01*
X1453752D01*
X1466448Y863664D02*
X1461370D01*
X1466448Y868743D01*
Y870013D01*
X1465178Y871282D01*
X1462639D01*
X1461370Y870013D01*
X1377312Y848503D02*
X1384930D01*
Y852312D01*
X1383660Y853581D01*
X1378582D01*
X1377312Y852312D01*
Y848503D01*
X1384930Y856121D02*
Y858660D01*
Y857390D01*
X1377312D01*
X1378582Y856121D01*
X1197301Y929056D02*
X1196032Y927786D01*
Y925247D01*
X1197301Y923977D01*
X1202380D01*
X1203649Y925247D01*
Y927786D01*
X1202380Y929056D01*
X1203649Y936673D02*
Y931595D01*
X1198571Y936673D01*
X1197301D01*
X1196032Y935404D01*
Y932865D01*
X1197301Y931595D01*
Y939212D02*
X1196032Y940482D01*
Y943021D01*
X1197301Y944291D01*
X1198571D01*
X1199840Y943021D01*
Y941752D01*
Y943021D01*
X1201110Y944291D01*
X1202380D01*
X1203649Y943021D01*
Y940482D01*
X1202380Y939212D01*
X1340993Y1012891D02*
X1339724Y1011621D01*
Y1009082D01*
X1340993Y1007812D01*
X1346072D01*
X1347341Y1009082D01*
Y1011621D01*
X1346072Y1012891D01*
X1347341Y1020508D02*
Y1015430D01*
X1342263Y1020508D01*
X1340993D01*
X1339724Y1019239D01*
Y1016700D01*
X1340993Y1015430D01*
X1347341Y1028126D02*
Y1023047D01*
X1342263Y1028126D01*
X1340993D01*
X1339724Y1026856D01*
Y1024317D01*
X1340993Y1023047D01*
X1174826Y916939D02*
X1173557Y918209D01*
X1171018D01*
X1169748Y916939D01*
Y911861D01*
X1171018Y910591D01*
X1173557D01*
X1174826Y911861D01*
X1182444Y910591D02*
X1177365D01*
X1182444Y915670D01*
Y916939D01*
X1181174Y918209D01*
X1178635D01*
X1177365Y916939D01*
X1184983Y910591D02*
X1187522D01*
X1186253D01*
Y918209D01*
X1184983Y916939D01*
X1370641Y1054860D02*
X1369371Y1056130D01*
X1366832D01*
X1365562Y1054860D01*
Y1049782D01*
X1366832Y1048512D01*
X1369371D01*
X1370641Y1049782D01*
X1378258Y1048512D02*
X1373180D01*
X1378258Y1053590D01*
Y1054860D01*
X1376989Y1056130D01*
X1374450D01*
X1373180Y1054860D01*
X1380797D02*
X1382067Y1056130D01*
X1384606D01*
X1385876Y1054860D01*
Y1049782D01*
X1384606Y1048512D01*
X1382067D01*
X1380797Y1049782D01*
Y1054860D01*
X1177161Y1058550D02*
X1175892Y1057281D01*
Y1054742D01*
X1177161Y1053472D01*
X1182240D01*
X1183509Y1054742D01*
Y1057281D01*
X1182240Y1058550D01*
X1183509Y1061090D02*
Y1063629D01*
Y1062359D01*
X1175892D01*
X1177161Y1061090D01*
X1182240Y1067438D02*
X1183509Y1068707D01*
Y1071246D01*
X1182240Y1072516D01*
X1177161D01*
X1175892Y1071246D01*
Y1068707D01*
X1177161Y1067438D01*
X1178431D01*
X1179700Y1068707D01*
Y1072516D01*
X1357513Y922656D02*
X1356243Y921387D01*
Y918848D01*
X1357513Y917578D01*
X1362591D01*
X1363860Y918848D01*
Y921387D01*
X1362591Y922656D01*
X1363860Y925196D02*
Y927735D01*
Y926465D01*
X1356243D01*
X1357513Y925196D01*
Y931544D02*
X1356243Y932813D01*
Y935352D01*
X1357513Y936622D01*
X1358782D01*
X1360052Y935352D01*
X1361321Y936622D01*
X1362591D01*
X1363860Y935352D01*
Y932813D01*
X1362591Y931544D01*
X1361321D01*
X1360052Y932813D01*
X1358782Y931544D01*
X1357513D01*
X1360052Y932813D02*
Y935352D01*
X1103237Y931392D02*
X1101968Y932662D01*
X1099428D01*
X1098159Y931392D01*
Y926314D01*
X1099428Y925044D01*
X1101968D01*
X1103237Y926314D01*
X1105776Y925044D02*
X1108316D01*
X1107046D01*
Y932662D01*
X1105776Y931392D01*
X1112124Y932662D02*
X1117203D01*
Y931392D01*
X1112124Y926314D01*
Y925044D01*
X1103237Y914514D02*
X1101968Y915784D01*
X1099428D01*
X1098159Y914514D01*
Y909436D01*
X1099428Y908167D01*
X1101968D01*
X1103237Y909436D01*
X1105776Y908167D02*
X1108316D01*
X1107046D01*
Y915784D01*
X1105776Y914514D01*
X1117203Y915784D02*
X1114663Y914514D01*
X1112124Y911975D01*
Y909436D01*
X1113394Y908167D01*
X1115933D01*
X1117203Y909436D01*
Y910706D01*
X1115933Y911975D01*
X1112124D01*
X1102996Y894079D02*
X1101727Y895349D01*
X1099188D01*
X1097918Y894079D01*
Y889001D01*
X1099188Y887731D01*
X1101727D01*
X1102996Y889001D01*
X1105536Y887731D02*
X1108075D01*
X1106805D01*
Y895349D01*
X1105536Y894079D01*
X1116962Y895349D02*
X1111884D01*
Y891540D01*
X1114423Y892810D01*
X1115692D01*
X1116962Y891540D01*
Y889001D01*
X1115692Y887731D01*
X1113153D01*
X1111884Y889001D01*
X1438276Y1040306D02*
X1437007Y1041575D01*
X1434468D01*
X1433198Y1040306D01*
Y1035227D01*
X1434468Y1033958D01*
X1437007D01*
X1438276Y1035227D01*
X1440816Y1033958D02*
X1443355D01*
X1442085D01*
Y1041575D01*
X1440816Y1040306D01*
X1450972Y1033958D02*
Y1041575D01*
X1447164Y1037766D01*
X1452242D01*
X1438276Y1077502D02*
X1437007Y1078772D01*
X1434468D01*
X1433198Y1077502D01*
Y1072424D01*
X1434468Y1071154D01*
X1437007D01*
X1438276Y1072424D01*
X1440816Y1071154D02*
X1443355D01*
X1442085D01*
Y1078772D01*
X1440816Y1077502D01*
X1447164D02*
X1448433Y1078772D01*
X1450972D01*
X1452242Y1077502D01*
Y1076233D01*
X1450972Y1074963D01*
X1449703D01*
X1450972D01*
X1452242Y1073694D01*
Y1072424D01*
X1450972Y1071154D01*
X1448433D01*
X1447164Y1072424D01*
X1438276Y1057184D02*
X1437007Y1058453D01*
X1434468D01*
X1433198Y1057184D01*
Y1052105D01*
X1434468Y1050835D01*
X1437007D01*
X1438276Y1052105D01*
X1440816Y1050835D02*
X1443355D01*
X1442085D01*
Y1058453D01*
X1440816Y1057184D01*
X1452242Y1050835D02*
X1447164D01*
X1452242Y1055914D01*
Y1057184D01*
X1450972Y1058453D01*
X1448433D01*
X1447164Y1057184D01*
X1094741Y974146D02*
X1093471Y972877D01*
Y970337D01*
X1094741Y969068D01*
X1099819D01*
X1101089Y970337D01*
Y972877D01*
X1099819Y974146D01*
X1101089Y976685D02*
Y979224D01*
Y977955D01*
X1093471D01*
X1094741Y976685D01*
X1101089Y983033D02*
Y985572D01*
Y984303D01*
X1093471D01*
X1094741Y983033D01*
X1068650Y944523D02*
X1067381Y943254D01*
Y940715D01*
X1068650Y939445D01*
X1073728D01*
X1074998Y940715D01*
Y943254D01*
X1073728Y944523D01*
X1074998Y947063D02*
Y949602D01*
Y948332D01*
X1067381D01*
X1068650Y947063D01*
Y953410D02*
X1067381Y954680D01*
Y957219D01*
X1068650Y958489D01*
X1073728D01*
X1074998Y957219D01*
Y954680D01*
X1073728Y953410D01*
X1068650D01*
X1450255Y981482D02*
X1448986Y980212D01*
Y977673D01*
X1450255Y976404D01*
X1455334D01*
X1456603Y977673D01*
Y980212D01*
X1455334Y981482D01*
Y984021D02*
X1456603Y985291D01*
Y987830D01*
X1455334Y989099D01*
X1450255D01*
X1448986Y987830D01*
Y985291D01*
X1450255Y984021D01*
X1451525D01*
X1452794Y985291D01*
Y989099D01*
X1476272Y1015289D02*
X1475003Y1014019D01*
Y1011480D01*
X1476272Y1010211D01*
X1481351D01*
X1482620Y1011480D01*
Y1014019D01*
X1481351Y1015289D01*
X1476272Y1017828D02*
X1475003Y1019098D01*
Y1021637D01*
X1476272Y1022906D01*
X1477542D01*
X1478811Y1021637D01*
X1480081Y1022906D01*
X1481351D01*
X1482620Y1021637D01*
Y1019098D01*
X1481351Y1017828D01*
X1480081D01*
X1478811Y1019098D01*
X1477542Y1017828D01*
X1476272D01*
X1478811Y1019098D02*
Y1021637D01*
X1124777Y1058550D02*
X1123507Y1057281D01*
Y1054742D01*
X1124777Y1053472D01*
X1129855D01*
X1131125Y1054742D01*
Y1057281D01*
X1129855Y1058550D01*
X1123507Y1061090D02*
Y1066168D01*
X1124777D01*
X1129855Y1061090D01*
X1131125D01*
X1420145Y899182D02*
X1418875Y897913D01*
Y895374D01*
X1420145Y894104D01*
X1425223D01*
X1426493Y895374D01*
Y897913D01*
X1425223Y899182D01*
X1418875Y906800D02*
X1420145Y904261D01*
X1422684Y901722D01*
X1425223D01*
X1426493Y902991D01*
Y905530D01*
X1425223Y906800D01*
X1423954D01*
X1422684Y905530D01*
Y901722D01*
X1111489Y967798D02*
X1110220Y966528D01*
Y963989D01*
X1111489Y962720D01*
X1116568D01*
X1117837Y963989D01*
Y966528D01*
X1116568Y967798D01*
X1111489Y970337D02*
X1110220Y971607D01*
Y974146D01*
X1111489Y975416D01*
X1112759D01*
X1114029Y974146D01*
Y972877D01*
Y974146D01*
X1115298Y975416D01*
X1116568D01*
X1117837Y974146D01*
Y971607D01*
X1116568Y970337D01*
X1433432Y996253D02*
X1432162Y994983D01*
Y992444D01*
X1433432Y991174D01*
X1438510D01*
X1439780Y992444D01*
Y994983D01*
X1438510Y996253D01*
X1439780Y1003870D02*
Y998792D01*
X1434701Y1003870D01*
X1433432D01*
X1432162Y1002601D01*
Y1000061D01*
X1433432Y998792D01*
X1270284Y924559D02*
X1269014Y925829D01*
X1266475D01*
X1265205Y924559D01*
Y919481D01*
X1266475Y918211D01*
X1269014D01*
X1270284Y919481D01*
X1272823Y918211D02*
X1275362D01*
X1274092D01*
Y925829D01*
X1272823Y924559D01*
D15*
X1462534Y877240D02*
D03*
X1087466Y1089380D02*
D03*
D16*
X1456761Y883780D02*
D03*
X1093240Y1082840D02*
D03*
D17*
X1462535Y890319D02*
D03*
X1087466Y1076300D02*
D03*
D18*
X1355998Y853235D02*
D03*
D19*
X1441906Y1173487D02*
D03*
X1364474Y1173487D02*
D03*
X1185526Y1173487D02*
D03*
X1108094D02*
D03*
M02*
