G04*
G04 #@! TF.GenerationSoftware,Altium Limited,Altium Designer,24.5.2 (23)*
G04*
G04 Layer_Color=8388736*
%FSLAX44Y44*%
%MOMM*%
G71*
G04*
G04 #@! TF.SameCoordinates,3E72796F-A718-4ACC-903D-CC6A842A6AC0*
G04*
G04*
G04 #@! TF.FilePolarity,Negative*
G04*
G01*
G75*
%ADD33R,1.0090X0.8820*%
%ADD34R,1.0922X0.9652*%
%ADD35R,3.6032X1.8032*%
%ADD36R,0.8820X1.0090*%
%ADD37R,3.9000X3.9000*%
%ADD38O,1.0000X0.3500*%
%ADD39O,0.3500X1.0000*%
%ADD40R,1.1560X1.6640*%
%ADD41R,0.9652X1.0922*%
%ADD42R,1.1532X1.1032*%
%ADD43R,3.0032X1.8032*%
%ADD44R,1.9832X3.4032*%
%ADD45R,1.7016X1.1016*%
%ADD46R,0.4516X0.6016*%
%ADD47R,0.4000X1.2500*%
%ADD48R,0.7000X1.2500*%
G04:AMPARAMS|DCode=49|XSize=1.7272mm|YSize=1.7272mm|CornerRadius=0mm|HoleSize=0mm|Usage=FLASHONLY|Rotation=180.000|XOffset=0mm|YOffset=0mm|HoleType=Round|Shape=Octagon|*
%AMOCTAGOND49*
4,1,8,-0.8636,0.4318,-0.8636,-0.4318,-0.4318,-0.8636,0.4318,-0.8636,0.8636,-0.4318,0.8636,0.4318,0.4318,0.8636,-0.4318,0.8636,-0.8636,0.4318,0.0*
%
%ADD49OCTAGOND49*%

%ADD50R,1.2032X0.7032*%
%ADD51C,1.8032*%
%ADD52C,0.8532*%
%ADD53O,1.2032X2.3032*%
%ADD54O,1.2032X2.0032*%
%ADD55C,3.2032*%
%ADD56C,0.2032*%
D33*
X1360050Y961334D02*
D03*
Y946094D02*
D03*
X1349611Y998468D02*
D03*
Y983228D02*
D03*
X1465580Y1009864D02*
D03*
Y1025104D02*
D03*
X1465578Y996735D02*
D03*
Y981495D02*
D03*
X1435970Y980460D02*
D03*
Y965220D02*
D03*
X1422682Y938807D02*
D03*
Y923567D02*
D03*
X1200390Y983390D02*
D03*
Y968150D02*
D03*
X1127318Y1043052D02*
D03*
Y1027812D02*
D03*
X1179699Y1027556D02*
D03*
Y1042796D02*
D03*
X1114030Y1001400D02*
D03*
Y986160D02*
D03*
X1084422Y985125D02*
D03*
Y969885D02*
D03*
X1084420Y941516D02*
D03*
Y956756D02*
D03*
D34*
X1345967Y946094D02*
D03*
Y961334D02*
D03*
X1435969Y923821D02*
D03*
Y939062D02*
D03*
X1409584Y939063D02*
D03*
Y923823D02*
D03*
X1396467Y939062D02*
D03*
Y923822D02*
D03*
X1383384Y939063D02*
D03*
Y923823D02*
D03*
X1258138Y878124D02*
D03*
Y893364D02*
D03*
X1200390Y1002670D02*
D03*
Y1017910D02*
D03*
X1114030Y1027558D02*
D03*
Y1042798D02*
D03*
X1140414Y1042797D02*
D03*
Y1027557D02*
D03*
X1153531Y1042798D02*
D03*
Y1027558D02*
D03*
X1166615Y1042797D02*
D03*
Y1027557D02*
D03*
D35*
X1315320Y1038880D02*
D03*
Y973880D02*
D03*
X1232140Y992740D02*
D03*
Y927740D02*
D03*
D36*
X1383555Y1037766D02*
D03*
X1368315D02*
D03*
X1400071Y1037766D02*
D03*
X1415311D02*
D03*
X1277905Y906562D02*
D03*
X1262665D02*
D03*
X1134689Y928854D02*
D03*
X1149929D02*
D03*
X1181683Y928853D02*
D03*
X1166443D02*
D03*
D37*
X1391050Y998240D02*
D03*
X1158950Y968380D02*
D03*
D38*
X1364550Y1015741D02*
D03*
Y1010737D02*
D03*
Y1005733D02*
D03*
Y1000729D02*
D03*
Y995751D02*
D03*
Y990747D02*
D03*
Y985743D02*
D03*
Y980739D02*
D03*
X1417550D02*
D03*
Y985743D02*
D03*
Y990747D02*
D03*
Y995751D02*
D03*
Y1000729D02*
D03*
Y1005733D02*
D03*
Y1010737D02*
D03*
Y1015741D02*
D03*
X1132450Y950879D02*
D03*
Y955883D02*
D03*
Y960887D02*
D03*
Y965891D02*
D03*
Y970869D02*
D03*
Y975873D02*
D03*
Y980877D02*
D03*
Y985881D02*
D03*
X1185450D02*
D03*
Y980877D02*
D03*
Y975873D02*
D03*
Y970869D02*
D03*
Y965891D02*
D03*
Y960887D02*
D03*
Y955883D02*
D03*
Y950879D02*
D03*
D39*
X1373549Y971740D02*
D03*
X1378553D02*
D03*
X1383557D02*
D03*
X1388561D02*
D03*
X1393539D02*
D03*
X1398543D02*
D03*
X1403547D02*
D03*
X1408551D02*
D03*
Y1024740D02*
D03*
X1403547D02*
D03*
X1398543D02*
D03*
X1393539D02*
D03*
X1388561D02*
D03*
X1383557D02*
D03*
X1378553D02*
D03*
X1373549D02*
D03*
X1176451Y941880D02*
D03*
X1171447D02*
D03*
X1166443D02*
D03*
X1161439D02*
D03*
X1156461D02*
D03*
X1151457D02*
D03*
X1146453D02*
D03*
X1141449D02*
D03*
Y994880D02*
D03*
X1146453D02*
D03*
X1151457D02*
D03*
X1156461D02*
D03*
X1161439D02*
D03*
X1166443D02*
D03*
X1171447D02*
D03*
X1176451D02*
D03*
D40*
X1401341Y1054645D02*
D03*
X1421661D02*
D03*
X1401235Y1074964D02*
D03*
X1421555D02*
D03*
X1128339Y911975D02*
D03*
X1148659D02*
D03*
X1128443Y891655D02*
D03*
X1148763D02*
D03*
D41*
X1465577Y939061D02*
D03*
X1450337D02*
D03*
X1450466Y923821D02*
D03*
X1465706D02*
D03*
X1435227Y909180D02*
D03*
X1450467D02*
D03*
X1099533Y1057440D02*
D03*
X1114773D02*
D03*
X1084293Y1042798D02*
D03*
X1099533D02*
D03*
X1084422Y1027558D02*
D03*
X1099662D02*
D03*
D42*
X1497207Y883780D02*
D03*
X1465707D02*
D03*
X1084293Y1082840D02*
D03*
X1052793D02*
D03*
D43*
X1355998Y800150D02*
D03*
Y838150D02*
D03*
D44*
Y889762D02*
D03*
X1306198D02*
D03*
D45*
X1278152Y878920D02*
D03*
D46*
X1284652Y868920D02*
D03*
X1278152D02*
D03*
X1271652D02*
D03*
Y888920D02*
D03*
X1278152D02*
D03*
X1284652D02*
D03*
D47*
X1257500Y847550D02*
D03*
X1262500D02*
D03*
X1267500D02*
D03*
X1292500D02*
D03*
X1287500D02*
D03*
X1282500D02*
D03*
X1272500D02*
D03*
X1277500D02*
D03*
D48*
X1299000D02*
D03*
X1251000D02*
D03*
X1307000D02*
D03*
X1243000D02*
D03*
D49*
X1200898Y1038609D02*
D03*
Y1064009D02*
D03*
X1325880Y1071900D02*
D03*
Y1096921D02*
D03*
D50*
X1441906Y1166636D02*
D03*
Y1151636D02*
D03*
X1364474Y1166636D02*
D03*
Y1151636D02*
D03*
X1185526D02*
D03*
Y1166636D02*
D03*
X1108094Y1151636D02*
D03*
Y1166636D02*
D03*
D51*
X1493120Y906799D02*
D03*
Y981801D02*
D03*
X1056880Y1059820D02*
D03*
Y984819D02*
D03*
D52*
X1246100Y836800D02*
D03*
X1303900D02*
D03*
D53*
X1318200Y841800D02*
D03*
X1231800D02*
D03*
D54*
X1318200Y800000D02*
D03*
X1231800D02*
D03*
D55*
X1006130Y958310D02*
D03*
Y1008310D02*
D03*
X1543870Y958310D02*
D03*
Y1008310D02*
D03*
D56*
X1540000Y817956D02*
D03*
X1540000Y1148664D02*
D03*
X1010000D02*
D03*
Y818664D02*
D03*
M02*
