G04*
G04 #@! TF.GenerationSoftware,Altium Limited,Altium Designer,24.5.2 (23)*
G04*
G04 Layer_Color=255*
%FSLAX44Y44*%
%MOMM*%
G71*
G04*
G04 #@! TF.SameCoordinates,3E72796F-A718-4ACC-903D-CC6A842A6AC0*
G04*
G04*
G04 #@! TF.FilePolarity,Positive*
G04*
G01*
G75*
%ADD20R,0.8890X0.7620*%
%ADD21R,3.4000X1.6000*%
%ADD22R,0.7620X0.8890*%
%ADD23R,1.0160X1.5240*%
%ADD24R,0.9500X0.9000*%
%ADD25R,2.8000X1.6000*%
%ADD26R,1.7800X3.2000*%
%ADD27R,1.6000X1.0000*%
%ADD28R,0.3500X0.5000*%
%ADD29R,0.3000X1.1500*%
%ADD30R,0.6000X1.1500*%
G04:AMPARAMS|DCode=31|XSize=1.524mm|YSize=1.524mm|CornerRadius=0mm|HoleSize=0mm|Usage=FLASHONLY|Rotation=180.000|XOffset=0mm|YOffset=0mm|HoleType=Round|Shape=Octagon|*
%AMOCTAGOND31*
4,1,8,-0.7620,0.3810,-0.7620,-0.3810,-0.3810,-0.7620,0.3810,-0.7620,0.7620,-0.3810,0.7620,0.3810,0.3810,0.7620,-0.3810,0.7620,-0.7620,0.3810,0.0*
%
%ADD31OCTAGOND31*%

%ADD32R,1.0000X0.5000*%
%ADD60R,3.8000X3.8000*%
%ADD61O,0.9000X0.2500*%
%ADD62O,0.2500X0.9000*%
%ADD91C,1.6000*%
%ADD92C,0.6500*%
%ADD93O,1.0000X2.1000*%
%ADD94O,1.0000X1.8000*%
%ADD95C,3.0000*%
D20*
X1360050Y961334D02*
D03*
Y946094D02*
D03*
X1345967Y946094D02*
D03*
Y961334D02*
D03*
X1349611Y998468D02*
D03*
Y983228D02*
D03*
X1465580Y1009864D02*
D03*
Y1025104D02*
D03*
X1465578Y996735D02*
D03*
Y981495D02*
D03*
X1435970Y980460D02*
D03*
Y965220D02*
D03*
X1435969Y923821D02*
D03*
Y939062D02*
D03*
X1422682Y938807D02*
D03*
Y923567D02*
D03*
X1409584Y939063D02*
D03*
Y923823D02*
D03*
X1396467Y939062D02*
D03*
Y923822D02*
D03*
X1383384Y939063D02*
D03*
Y923823D02*
D03*
X1258138Y878124D02*
D03*
Y893364D02*
D03*
X1200390Y1002670D02*
D03*
Y1017910D02*
D03*
Y983390D02*
D03*
Y968150D02*
D03*
X1114030Y1027558D02*
D03*
Y1042798D02*
D03*
X1127318Y1043052D02*
D03*
Y1027812D02*
D03*
X1140414Y1042797D02*
D03*
Y1027557D02*
D03*
X1153531Y1042798D02*
D03*
Y1027558D02*
D03*
X1166615Y1042797D02*
D03*
Y1027557D02*
D03*
X1179699Y1027556D02*
D03*
Y1042796D02*
D03*
X1114030Y1001400D02*
D03*
Y986160D02*
D03*
X1084422Y985125D02*
D03*
Y969885D02*
D03*
X1084420Y941516D02*
D03*
Y956756D02*
D03*
D21*
X1315320Y1038880D02*
D03*
Y973880D02*
D03*
X1232140Y992740D02*
D03*
Y927740D02*
D03*
D22*
X1383555Y1037766D02*
D03*
X1368315D02*
D03*
X1400071Y1037766D02*
D03*
X1415311D02*
D03*
X1465577Y939061D02*
D03*
X1450337D02*
D03*
X1450466Y923821D02*
D03*
X1465706D02*
D03*
X1435227Y909180D02*
D03*
X1450467D02*
D03*
X1277905Y906562D02*
D03*
X1262665D02*
D03*
X1134689Y928854D02*
D03*
X1149929D02*
D03*
X1181683Y928853D02*
D03*
X1166443D02*
D03*
X1099533Y1057440D02*
D03*
X1114773D02*
D03*
X1084293Y1042798D02*
D03*
X1099533D02*
D03*
X1084422Y1027558D02*
D03*
X1099662D02*
D03*
D23*
X1401341Y1054645D02*
D03*
X1421661D02*
D03*
X1401235Y1074964D02*
D03*
X1421555D02*
D03*
X1128339Y911975D02*
D03*
X1148659D02*
D03*
X1128443Y891655D02*
D03*
X1148763D02*
D03*
D24*
X1497207Y883780D02*
D03*
X1465707D02*
D03*
X1084293Y1082840D02*
D03*
X1052793D02*
D03*
D25*
X1355998Y800150D02*
D03*
Y838150D02*
D03*
D26*
Y889762D02*
D03*
X1306198D02*
D03*
D27*
X1278152Y878920D02*
D03*
D28*
X1284652Y868920D02*
D03*
X1278152D02*
D03*
X1271652D02*
D03*
Y888920D02*
D03*
X1278152D02*
D03*
X1284652D02*
D03*
D29*
X1257500Y847550D02*
D03*
X1262500D02*
D03*
X1267500D02*
D03*
X1292500D02*
D03*
X1287500D02*
D03*
X1282500D02*
D03*
X1272500D02*
D03*
X1277500D02*
D03*
D30*
X1299000D02*
D03*
X1251000D02*
D03*
X1307000D02*
D03*
X1243000D02*
D03*
D31*
X1200898Y1038609D02*
D03*
Y1064009D02*
D03*
X1325880Y1071900D02*
D03*
Y1096921D02*
D03*
D32*
X1441906Y1166636D02*
D03*
Y1151636D02*
D03*
X1364474Y1166636D02*
D03*
Y1151636D02*
D03*
X1185526D02*
D03*
Y1166636D02*
D03*
X1108094Y1151636D02*
D03*
Y1166636D02*
D03*
D60*
X1391050Y998240D02*
D03*
X1158950Y968380D02*
D03*
D61*
X1364550Y1015741D02*
D03*
Y1010737D02*
D03*
Y1005733D02*
D03*
Y1000729D02*
D03*
Y995751D02*
D03*
Y990747D02*
D03*
Y985743D02*
D03*
Y980739D02*
D03*
X1417550D02*
D03*
Y985743D02*
D03*
Y990747D02*
D03*
Y995751D02*
D03*
Y1000729D02*
D03*
Y1005733D02*
D03*
Y1010737D02*
D03*
Y1015741D02*
D03*
X1132450Y950879D02*
D03*
Y955883D02*
D03*
Y960887D02*
D03*
Y965891D02*
D03*
Y970869D02*
D03*
Y975873D02*
D03*
Y980877D02*
D03*
Y985881D02*
D03*
X1185450D02*
D03*
Y980877D02*
D03*
Y975873D02*
D03*
Y970869D02*
D03*
Y965891D02*
D03*
Y960887D02*
D03*
Y955883D02*
D03*
Y950879D02*
D03*
D62*
X1373549Y971740D02*
D03*
X1378553D02*
D03*
X1383557D02*
D03*
X1388561D02*
D03*
X1393539D02*
D03*
X1398543D02*
D03*
X1403547D02*
D03*
X1408551D02*
D03*
Y1024740D02*
D03*
X1403547D02*
D03*
X1398543D02*
D03*
X1393539D02*
D03*
X1388561D02*
D03*
X1383557D02*
D03*
X1378553D02*
D03*
X1373549D02*
D03*
X1176451Y941880D02*
D03*
X1171447D02*
D03*
X1166443D02*
D03*
X1161439D02*
D03*
X1156461D02*
D03*
X1151457D02*
D03*
X1146453D02*
D03*
X1141449D02*
D03*
Y994880D02*
D03*
X1146453D02*
D03*
X1151457D02*
D03*
X1156461D02*
D03*
X1161439D02*
D03*
X1166443D02*
D03*
X1171447D02*
D03*
X1176451D02*
D03*
D91*
X1493120Y906799D02*
D03*
Y981801D02*
D03*
X1056880Y1059820D02*
D03*
Y984819D02*
D03*
D92*
X1246100Y836800D02*
D03*
X1303900D02*
D03*
D93*
X1318200Y841800D02*
D03*
X1231800D02*
D03*
D94*
X1318200Y800000D02*
D03*
X1231800D02*
D03*
D95*
X1006130Y958310D02*
D03*
Y1008310D02*
D03*
X1543870Y958310D02*
D03*
Y1008310D02*
D03*
M02*
