G04*
G04 #@! TF.GenerationSoftware,Altium Limited,Altium Designer,25.4.2 (15)*
G04*
G04 Layer_Color=128*
%FSLAX25Y25*%
%MOIN*%
G70*
G04*
G04 #@! TF.SameCoordinates,B977156D-3F5D-4D44-89CA-F2FD908ED1DE*
G04*
G04*
G04 #@! TF.FilePolarity,Positive*
G04*
G01*
G75*
%ADD11C,0.00500*%
D11*
X475352Y254284D02*
X479092D01*
X477222Y252414D02*
Y256154D01*
X475352Y264284D02*
X479092D01*
X477222Y262414D02*
Y266154D01*
X475352Y274284D02*
X479092D01*
X477222Y272414D02*
Y276154D01*
X475352Y284284D02*
X479092D01*
X477222Y282414D02*
Y286154D01*
X312230Y294400D02*
X315970D01*
X314100Y292530D02*
Y296270D01*
X312230Y284400D02*
X315970D01*
X314100Y282530D02*
Y286270D01*
X312230Y274400D02*
X315970D01*
X314100Y272530D02*
Y276270D01*
X312230Y264400D02*
X315970D01*
X314100Y262530D02*
Y266270D01*
X312230Y254400D02*
X315970D01*
X314100Y252530D02*
Y256270D01*
X403118Y485900D02*
X407843D01*
X405480Y483538D02*
Y488262D01*
X383433Y485900D02*
X388158D01*
X385795Y483538D02*
Y488262D01*
X336741Y331132D02*
X337922D01*
X337332Y330542D02*
Y331723D01*
X314409Y450500D02*
X315591D01*
X315000Y449909D02*
Y451090D01*
X314409Y443800D02*
X315591D01*
X315000Y443210D02*
Y444390D01*
X314610Y423600D02*
X315791D01*
X315200Y423009D02*
Y424191D01*
X314409Y437400D02*
X315591D01*
X315000Y436809D02*
Y437991D01*
X357415Y335169D02*
X358596D01*
X358005Y334578D02*
Y335759D01*
X469809Y390189D02*
X470991D01*
X470400Y389598D02*
Y390779D01*
X469809Y413601D02*
X470991D01*
X470400Y413010D02*
Y414191D01*
X469809Y398063D02*
X470991D01*
X470400Y397472D02*
Y398654D01*
X469809Y405937D02*
X470991D01*
X470400Y405346D02*
Y406528D01*
X469809Y423050D02*
X470991D01*
X470400Y422459D02*
Y423640D01*
X484309Y398063D02*
X485491D01*
X484900Y397472D02*
Y398654D01*
X484209Y405937D02*
X485391D01*
X484800Y405346D02*
Y406528D01*
X492209Y410400D02*
X493391D01*
X492800Y409809D02*
Y410990D01*
X485447Y347984D02*
X486628D01*
X486037Y347394D02*
Y348575D01*
X485447Y343069D02*
X486628D01*
X486037Y342478D02*
Y343659D01*
X485447Y352900D02*
X486628D01*
X486037Y352309D02*
Y353490D01*
X478684Y352900D02*
X479865D01*
X479274Y352309D02*
Y353490D01*
X492209Y352900D02*
X493391D01*
X492800Y352309D02*
Y353490D01*
X418409Y273169D02*
X419591D01*
X419000Y272579D02*
Y273760D01*
X325160Y322093D02*
X326341D01*
X325750Y321502D02*
Y322684D01*
X346024Y430839D02*
X347205D01*
X346614Y430248D02*
Y431429D01*
X383809Y391000D02*
X384991D01*
X384400Y390409D02*
Y391590D01*
X389910Y391000D02*
X391090D01*
X390500Y390409D02*
Y391590D01*
X394910Y405500D02*
X396091D01*
X395500Y404910D02*
Y406090D01*
X399909Y409593D02*
X401090D01*
X400500Y409003D02*
Y410184D01*
X394910Y409593D02*
X396091D01*
X395500Y409003D02*
Y410184D01*
X314610Y429800D02*
X315791D01*
X315200Y429210D02*
Y430391D01*
X317709Y396800D02*
X318891D01*
X318300Y396210D02*
Y397391D01*
X311409Y392969D02*
X312591D01*
X312000Y392378D02*
Y393559D01*
X322141Y392369D02*
X323322D01*
X322731Y391778D02*
Y392959D01*
X325841Y392369D02*
X327022D01*
X326431Y391778D02*
Y392959D01*
X322141Y418350D02*
X323322D01*
X322731Y417760D02*
Y418940D01*
X329541Y412032D02*
X330722D01*
X330132Y411441D02*
Y412622D01*
X323941Y464032D02*
X325122D01*
X324532Y463442D02*
Y464623D01*
X323941Y455166D02*
X325122D01*
X324532Y454576D02*
Y455757D01*
X323941Y446916D02*
X325122D01*
X324532Y446326D02*
Y447507D01*
X323941Y440666D02*
X325122D01*
X324532Y440076D02*
Y441257D01*
X323941Y434166D02*
X325122D01*
X324532Y433576D02*
Y434757D01*
X301410Y425500D02*
X302590D01*
X302000Y424909D02*
Y426090D01*
X296609Y409637D02*
X297791D01*
X297200Y409047D02*
Y410228D01*
X296609Y416800D02*
X297791D01*
X297200Y416210D02*
Y417390D01*
X375510Y266634D02*
X376691D01*
X376100Y266044D02*
Y267225D01*
X368848Y303590D02*
X370029D01*
X369439Y303000D02*
Y304181D01*
X369013Y309935D02*
X370194D01*
X369604Y309345D02*
Y310526D01*
X390706Y310221D02*
X391887D01*
X391297Y309630D02*
Y310811D01*
X463518Y329625D02*
X464700D01*
X464109Y329034D02*
Y330215D01*
X475210Y318500D02*
X476391D01*
X475800Y317910D02*
Y319091D01*
X475210Y324500D02*
X476391D01*
X475800Y323909D02*
Y325091D01*
X300609Y359746D02*
X301791D01*
X301200Y359155D02*
Y360336D01*
X410916Y357507D02*
X412097D01*
X411506Y356916D02*
Y358098D01*
X410916Y361028D02*
X412097D01*
X411506Y360437D02*
Y361618D01*
X303413Y362937D02*
X304594D01*
X304003Y362347D02*
Y363528D01*
X429310Y304200D02*
X430490D01*
X429900Y303609D02*
Y304790D01*
X422810Y304200D02*
X423990D01*
X423400Y303609D02*
Y304790D01*
X429310Y281395D02*
X430490D01*
X429900Y280804D02*
Y281985D01*
X423709Y281395D02*
X424891D01*
X424300Y280804D02*
Y281985D01*
X349695Y349532D02*
X350876D01*
X350285Y348941D02*
Y350122D01*
X340178Y346169D02*
X341359D01*
X340769Y345578D02*
Y346759D01*
X347981Y379309D02*
X349162D01*
X348571Y378719D02*
Y379900D01*
X347981Y384395D02*
X349162D01*
X348571Y383805D02*
Y384986D01*
X347981Y389500D02*
X349162D01*
X348571Y388910D02*
Y390090D01*
X367550Y379309D02*
X368731D01*
X368140Y378719D02*
Y379900D01*
X309409Y354746D02*
X310591D01*
X310000Y354155D02*
Y355336D01*
X309409Y364746D02*
X310591D01*
X310000Y364155D02*
Y365336D01*
X407109Y377200D02*
X408290D01*
X407700Y376609D02*
Y377790D01*
X402106Y377200D02*
X403287D01*
X402696Y376609D02*
Y377790D01*
X410916Y364925D02*
X412097D01*
X411506Y364335D02*
Y365516D01*
X394309Y343800D02*
X395491D01*
X394900Y343210D02*
Y344391D01*
X412310Y343800D02*
X413490D01*
X412900Y343210D02*
Y344391D01*
X417310Y364925D02*
X418491D01*
X417900Y364335D02*
Y365516D01*
X400310Y343800D02*
X401490D01*
X400900Y343210D02*
Y344391D01*
X333372Y392301D02*
X334554D01*
X333963Y391711D02*
Y392892D01*
X364908Y396435D02*
X366090D01*
X365499Y395844D02*
Y397025D01*
X340678Y357732D02*
X341859D01*
X341268Y357141D02*
Y358322D01*
X336741Y361668D02*
X337922D01*
X337332Y361078D02*
Y362259D01*
X450036Y313559D02*
X451217D01*
X450627Y312968D02*
Y314150D01*
X492209Y368600D02*
X493391D01*
X492800Y368009D02*
Y369191D01*
X427009Y338000D02*
X428191D01*
X427600Y337409D02*
Y338591D01*
X367550Y365588D02*
X368731D01*
X368140Y364998D02*
Y366179D01*
X434309Y273222D02*
X435491D01*
X434900Y272632D02*
Y273813D01*
X360109Y321655D02*
X361291D01*
X360700Y321064D02*
Y322245D01*
X368848Y285400D02*
X370029D01*
X369439Y284809D02*
Y285991D01*
X357571Y285400D02*
X358752D01*
X358161Y284809D02*
Y285991D01*
X363210Y285400D02*
X364390D01*
X363800Y284809D02*
Y285991D01*
X357571Y263300D02*
X358752D01*
X358161Y262709D02*
Y263891D01*
X363210Y271600D02*
X364390D01*
X363800Y271009D02*
Y272190D01*
X368848Y263288D02*
X370029D01*
X369439Y262697D02*
Y263878D01*
X356509Y316800D02*
X357691D01*
X357100Y316210D02*
Y317390D01*
X357415Y341168D02*
X358596D01*
X358005Y340578D02*
Y341759D01*
X453209Y385700D02*
X454390D01*
X453800Y385109D02*
Y386291D01*
X429709Y334700D02*
X430891D01*
X430300Y334109D02*
Y335291D01*
X374410Y385700D02*
X375590D01*
X375000Y385109D02*
Y386291D01*
X441773Y385700D02*
X442954D01*
X442364Y385109D02*
Y386291D01*
X433133Y391500D02*
X434314D01*
X433723Y390910D02*
Y392091D01*
X347309Y465300D02*
X348491D01*
X347900Y464710D02*
Y465891D01*
X347309Y461100D02*
X348491D01*
X347900Y460509D02*
Y461691D01*
X360148Y405631D02*
X361330D01*
X360739Y405041D02*
Y406222D01*
X383809Y415765D02*
X384991D01*
X384400Y415175D02*
Y416356D01*
X303609Y389500D02*
X304790D01*
X304200Y388910D02*
Y390090D01*
X472324Y435900D02*
X473505D01*
X472914Y435310D02*
Y436490D01*
X467324Y435900D02*
X468505D01*
X467914Y435310D02*
Y436490D01*
X462324Y435900D02*
X463505D01*
X462914Y435310D02*
Y436490D01*
X484209Y410400D02*
X485391D01*
X484800Y409809D02*
Y410990D01*
X411510Y396400D02*
X412690D01*
X412100Y395810D02*
Y396990D01*
X330024Y451000D02*
X331205D01*
X330614Y450410D02*
Y451590D01*
X462324Y479946D02*
X463505D01*
X462914Y479355D02*
Y480536D01*
X426264Y500800D02*
X427445D01*
X426855Y500210D02*
Y501391D01*
X434014Y500800D02*
X435195D01*
X434605Y500210D02*
Y501391D01*
X440812Y500800D02*
X441993D01*
X441402Y500210D02*
Y501391D01*
X418514Y500800D02*
X419695D01*
X419105Y500210D02*
Y501391D01*
X447610Y500800D02*
X448791D01*
X448200Y500210D02*
Y501391D01*
X462324Y495500D02*
X463505D01*
X462914Y494909D02*
Y496091D01*
X456066Y495500D02*
X457247D01*
X456656Y494909D02*
Y496091D01*
X313610Y477539D02*
X314791D01*
X314200Y476949D02*
Y478130D01*
X319409Y477539D02*
X320590D01*
X320000Y476949D02*
Y478130D01*
X313610Y472300D02*
X314791D01*
X314200Y471709D02*
Y472891D01*
X319409Y472300D02*
X320590D01*
X320000Y471709D02*
Y472891D01*
X340924Y472161D02*
X342105D01*
X341514Y471570D02*
Y472751D01*
X335124Y472161D02*
X336305D01*
X335714Y471570D02*
Y472751D01*
X426209Y479100D02*
X427390D01*
X426800Y478510D02*
Y479691D01*
X434014Y479223D02*
X435195D01*
X434605Y478632D02*
Y479813D01*
X418514Y479223D02*
X419695D01*
X419105Y478632D02*
Y479813D01*
X387802Y463946D02*
X388983D01*
X388392Y463355D02*
Y464536D01*
X392904Y463946D02*
X394085D01*
X393495Y463355D02*
Y464536D01*
X398007Y463946D02*
X399188D01*
X398597Y463355D02*
Y464536D01*
X403110Y459423D02*
X404290D01*
X403700Y458832D02*
Y460013D01*
X403110Y454900D02*
X404290D01*
X403700Y454310D02*
Y455490D01*
X382699Y463946D02*
X383880D01*
X383290Y463355D02*
Y464536D01*
X340924Y477400D02*
X342105D01*
X341514Y476810D02*
Y477990D01*
X335124Y477400D02*
X336305D01*
X335714Y476810D02*
Y477990D01*
X328809Y472300D02*
X329991D01*
X329400Y471709D02*
Y472891D01*
X328809Y468166D02*
X329991D01*
X329400Y467576D02*
Y468757D01*
X350024Y451000D02*
X351205D01*
X350614Y450410D02*
Y451590D01*
X346024Y451000D02*
X347205D01*
X346614Y450410D02*
Y451590D01*
X338024Y451000D02*
X339205D01*
X338614Y450410D02*
Y451590D01*
X403109Y463946D02*
X404290D01*
X403700Y463355D02*
Y464536D01*
M02*
