M48
;Layer_Color=9474304
;FILE_FORMAT=2:5
INCH,LZ
;TYPE=PLATED
T01F00S00C0.01181
T02F00S00C0.03740
T03F00S00C0.04724
%
T01
X0358161Y02633
X0369439Y0263288
X03761Y0266634
X03638Y02716
Y02854
X0369439
X0358161
X0369439Y030359
X0369604Y0309935
X0391297Y0310221
X04234Y03042
X04299
Y0281395
X04243
X0419Y0273169
X04349Y0273222
X031Y0354746
Y0364746
X0304003Y0362937
X03012Y0359746
X03042Y03895
X0312Y0392969
X02972Y0409637
Y04168
X0302Y04255
X03152Y04236
Y04298
X0315Y04374
Y04438
Y04505
X0324532Y0446916
Y0440666
Y0434166
X0322731Y041835
X0330132Y0412032
X0326431Y0392369
X0322731
X03183Y03968
X0333963Y0392301
X0348571Y03895
Y0384395
Y0379309
X036814
X0375Y03857
X03844Y0391
X03905
X03955Y04055
Y0409593
X04005
X03844Y0415765
X0360739Y0405631
X0365499Y0396435
X036814Y0365588
X0350285Y0349532
X0340769Y0346169
X0341268Y0357732
X0337332Y0361668
Y0331132
X032575Y0322093
X03607Y0321655
X03571Y03168
X0358005Y0335169
Y0341168
X03949Y03438
X04009
X04129
X0411506Y0357507
Y0361028
Y0364925
X04179
X04077Y03772
X0402696
X04121Y03964
X0433723Y03915
X0442364Y03857
X04538
X0462914Y04359
X0467914
X04037Y04549
Y0459423
X04037Y0463946
X0398597
X0393495
X0388392
X038329
X03479Y04653
Y04611
X0346614Y0451
X0350614
X0338614
X0330614
X0324532Y0455166
Y0464032
X03294Y0468166
X0346614Y0430839
X04276Y0338
X04303Y03347
X0464109Y0329625
X0450627Y0313559
X04758Y03185
Y03245
X0486037Y0343069
Y0347984
Y03529
X0479274
X04928
Y03686
X04849Y0398063
X04848Y0405937
Y04104
X04928
X04704Y0413601
Y0405937
Y0398063
Y0390189
Y042305
X0472914Y04359
X0462914Y0479946
Y04955
X0456656
X04482Y05008
X0441402
X0434605
X0426855
X0419105
Y0479223
X04268Y04791
X0434605Y0479223
X0341514Y04774
Y0472161
X0335714
Y04774
X03294Y04723
X032
Y0477539
X03142
Y04723
T02
X0477222Y0254284
Y0264284
Y0274284
Y0284284
X03141Y02844
Y02944
Y02744
Y02644
Y02544
T03
X0385795Y04859
X040548
M30
