G04*
G04 #@! TF.GenerationSoftware,Altium Limited,Altium Designer,25.4.2 (15)*
G04*
G04 Layer_Physical_Order=1*
G04 Layer_Color=255*
%FSLAX25Y25*%
%MOIN*%
G70*
G04*
G04 #@! TF.SameCoordinates,B977156D-3F5D-4D44-89CA-F2FD908ED1DE*
G04*
G04*
G04 #@! TF.FilePolarity,Positive*
G04*
G01*
G75*
%ADD13R,0.02559X0.04134*%
%ADD19R,0.01772X0.01772*%
%ADD20C,0.02000*%
%ADD21C,0.01500*%
%ADD22C,0.01000*%
%ADD23C,0.06299*%
%ADD24R,0.06299X0.06299*%
%ADD25C,0.07087*%
%ADD26C,0.02362*%
G36*
X438118Y476200D02*
X414100D01*
Y480796D01*
X414100Y481433D01*
X414117Y481450D01*
X414100Y481461D01*
Y492400D01*
X384100Y492400D01*
X373900Y482200D01*
X323400D01*
Y470050D01*
X310400D01*
Y507600D01*
X438118D01*
Y476200D01*
D02*
G37*
G36*
X481232Y434379D02*
X481310Y433989D01*
X481531Y433658D01*
X481862Y433437D01*
X482252Y433360D01*
X496980D01*
Y325163D01*
X482252D01*
X481862Y325085D01*
X481531Y324864D01*
X481310Y324533D01*
X481232Y324143D01*
Y288434D01*
X473073D01*
Y280135D01*
X481232D01*
Y277038D01*
X480581Y276844D01*
X480532Y276843D01*
X479770Y277605D01*
X478824Y278151D01*
X477769Y278434D01*
X476676D01*
X475621Y278151D01*
X474674Y277605D01*
X473902Y276832D01*
X473355Y275886D01*
X473073Y274831D01*
Y273738D01*
X473355Y272683D01*
X473902Y271736D01*
X474674Y270964D01*
X475621Y270417D01*
X476676Y270135D01*
X477769D01*
X478824Y270417D01*
X479770Y270964D01*
X480532Y271726D01*
X480581Y271725D01*
X481232Y271531D01*
Y267038D01*
X480581Y266844D01*
X480532Y266843D01*
X479770Y267605D01*
X478824Y268151D01*
X477769Y268434D01*
X476676D01*
X475621Y268151D01*
X474674Y267605D01*
X473902Y266832D01*
X473355Y265886D01*
X473073Y264831D01*
Y263738D01*
X473355Y262683D01*
X473902Y261736D01*
X474674Y260964D01*
X475621Y260418D01*
X476676Y260135D01*
X477769D01*
X478824Y260418D01*
X479770Y260964D01*
X480532Y261726D01*
X480581Y261725D01*
X481232Y261531D01*
Y250359D01*
X318745Y250322D01*
X318250Y250817D01*
Y252871D01*
X345000D01*
X345585Y252987D01*
X346081Y253319D01*
X351367Y258604D01*
X351698Y259100D01*
X351815Y259685D01*
Y288692D01*
X352515Y288904D01*
X352555Y288843D01*
X355980Y285418D01*
Y284966D01*
X356312Y284165D01*
X356926Y283551D01*
X357728Y283219D01*
X358595D01*
X359397Y283551D01*
X360010Y284165D01*
X360343Y284966D01*
Y285705D01*
X360704Y285953D01*
X360989Y286048D01*
X361619Y285418D01*
Y284966D01*
X361951Y284165D01*
X362564Y283551D01*
X363366Y283219D01*
X364234D01*
X365036Y283551D01*
X365649Y284165D01*
X365981Y284966D01*
Y285705D01*
X366342Y285953D01*
X366628Y286048D01*
X367257Y285418D01*
Y284966D01*
X367590Y284165D01*
X368203Y283551D01*
X369005Y283219D01*
X369872D01*
X370674Y283551D01*
X371288Y284165D01*
X371620Y284966D01*
Y285834D01*
X371288Y286635D01*
X370674Y287249D01*
X369872Y287581D01*
X369420D01*
X362229Y294772D01*
Y320100D01*
X362549Y320419D01*
X362881Y321221D01*
Y322089D01*
X362549Y322890D01*
X361935Y323504D01*
X361134Y323836D01*
X360266D01*
X359465Y323504D01*
X358851Y322890D01*
X358519Y322089D01*
Y321221D01*
X358851Y320419D01*
X359171Y320100D01*
Y318804D01*
X358471Y318514D01*
X358335Y318649D01*
X357534Y318981D01*
X356666D01*
X355865Y318649D01*
X355166Y318940D01*
Y336166D01*
X357987Y338987D01*
X358439D01*
X359241Y339319D01*
X359855Y339933D01*
X360187Y340735D01*
Y341602D01*
X359855Y342404D01*
X359241Y343018D01*
X358439Y343350D01*
X357572D01*
X356770Y343018D01*
X356156Y342404D01*
X355824Y341602D01*
Y341150D01*
X352555Y337881D01*
X352515Y337820D01*
X351815Y338033D01*
Y347976D01*
X352134Y348296D01*
X352466Y349098D01*
Y349965D01*
X352134Y350767D01*
X351521Y351380D01*
X350719Y351713D01*
X349851D01*
X349262Y351468D01*
X348562Y351807D01*
Y352892D01*
X351647Y355978D01*
X409951D01*
X410271Y355658D01*
X411072Y355326D01*
X411940D01*
X412742Y355658D01*
X413061Y355978D01*
X413559D01*
X414471Y355066D01*
Y346229D01*
X413771Y345800D01*
X413334Y345981D01*
X412466D01*
X411664Y345649D01*
X411051Y345036D01*
X410719Y344234D01*
Y343366D01*
X411051Y342565D01*
X411664Y341951D01*
X412466Y341619D01*
X413334D01*
X413771Y341800D01*
X414471Y341371D01*
Y306202D01*
X414587Y305617D01*
X414919Y305120D01*
X419721Y300319D01*
X420217Y299987D01*
X420802Y299871D01*
X427100D01*
X427685Y299987D01*
X428181Y300319D01*
X429882Y302019D01*
X430334D01*
X431136Y302351D01*
X431749Y302964D01*
X432081Y303766D01*
Y304634D01*
X431749Y305435D01*
X431136Y306049D01*
X430334Y306381D01*
X429466D01*
X428664Y306049D01*
X428051Y305435D01*
X427719Y304634D01*
Y304182D01*
X426621Y303084D01*
X425941Y303132D01*
X425563Y303723D01*
X425581Y303766D01*
Y304634D01*
X425249Y305435D01*
X424636Y306049D01*
X423834Y306381D01*
X423382D01*
X421050Y308713D01*
Y357158D01*
X420933Y357744D01*
X420602Y358240D01*
X416733Y362109D01*
X416236Y362440D01*
X415651Y362557D01*
X413061D01*
X412742Y362877D01*
X411940Y363209D01*
X411072D01*
X410271Y362877D01*
X409951Y362557D01*
X350675D01*
X350090Y362440D01*
X349593Y362109D01*
X343150Y355666D01*
X342819Y355170D01*
X342702Y354584D01*
Y348309D01*
X342004Y348018D01*
X341202Y348350D01*
X340335D01*
X339533Y348018D01*
X339213Y347698D01*
X310199D01*
X308329Y349568D01*
Y352417D01*
X309029Y352787D01*
X309566Y352565D01*
X310434D01*
X311235Y352897D01*
X311849Y353510D01*
X312181Y354312D01*
Y355180D01*
X311849Y355981D01*
X311529Y356301D01*
Y358560D01*
X320998Y368029D01*
X366582D01*
X366684Y367841D01*
X366796Y367329D01*
X366291Y366824D01*
X365959Y366022D01*
Y365154D01*
X366291Y364353D01*
X366905Y363739D01*
X367706Y363407D01*
X368574D01*
X369376Y363739D01*
X369989Y364353D01*
X370321Y365154D01*
Y366022D01*
X369989Y366824D01*
X369484Y367329D01*
X369596Y367841D01*
X369699Y368029D01*
X423308D01*
X426071Y365266D01*
Y339555D01*
X425751Y339235D01*
X425419Y338434D01*
Y337566D01*
X425751Y336765D01*
X426365Y336151D01*
X427166Y335819D01*
X427645D01*
X428129Y335158D01*
X428119Y335134D01*
Y334266D01*
X428451Y333465D01*
X429065Y332851D01*
X429866Y332519D01*
X430734D01*
X431535Y332851D01*
X432149Y333465D01*
X432481Y334266D01*
Y335134D01*
X432149Y335935D01*
X431829Y336255D01*
Y367646D01*
X431713Y368231D01*
X431381Y368727D01*
X430331Y369778D01*
X430598Y370425D01*
X488812D01*
X490619Y368618D01*
Y368166D01*
X490951Y367365D01*
X491565Y366751D01*
X492366Y366419D01*
X493234D01*
X494035Y366751D01*
X494649Y367365D01*
X494981Y368166D01*
Y369034D01*
X494649Y369835D01*
X494035Y370449D01*
X493234Y370781D01*
X492782D01*
X490527Y373036D01*
X490031Y373367D01*
X489446Y373484D01*
X444736D01*
X444446Y374184D01*
X453782Y383519D01*
X454234D01*
X455035Y383851D01*
X455649Y384465D01*
X455981Y385266D01*
Y386134D01*
X455649Y386935D01*
X455035Y387549D01*
X454234Y387881D01*
X453366D01*
X452564Y387549D01*
X451951Y386935D01*
X451619Y386134D01*
Y385682D01*
X442257Y376320D01*
X309900D01*
X309315Y376204D01*
X308819Y375872D01*
X305719Y372772D01*
X305387Y372276D01*
X305271Y371690D01*
Y365531D01*
X304571Y365063D01*
X304437Y365118D01*
X303569D01*
X302768Y364786D01*
X302154Y364173D01*
X301822Y363371D01*
Y362574D01*
X301792Y362470D01*
X301303Y361927D01*
X300766D01*
X300641Y361875D01*
X299941Y362343D01*
Y376067D01*
X304129Y380255D01*
X345463D01*
X346390Y379328D01*
Y378876D01*
X346723Y378074D01*
X347336Y377460D01*
X348138Y377128D01*
X349005D01*
X349807Y377460D01*
X350421Y378074D01*
X350753Y378876D01*
Y379743D01*
X350421Y380545D01*
X349807Y381158D01*
X349238Y381394D01*
X349133Y381567D01*
X349133Y381568D01*
X349443Y382396D01*
X349807Y382546D01*
X350421Y383160D01*
X350753Y383961D01*
Y384829D01*
X350421Y385631D01*
X349807Y386244D01*
X349005Y386576D01*
X348138D01*
X347336Y386244D01*
X347016Y385925D01*
X302160D01*
X301575Y385808D01*
X301079Y385477D01*
X294995Y379393D01*
X294299Y379641D01*
X294295Y379644D01*
Y433320D01*
X309024D01*
X309414Y433398D01*
X309745Y433619D01*
X309965Y433950D01*
X310043Y434340D01*
Y468737D01*
X310400Y469030D01*
X323400D01*
X323790Y469108D01*
X324121Y469329D01*
X324342Y469659D01*
X324420Y470050D01*
Y481180D01*
X333281D01*
X333494Y480480D01*
X333479Y480471D01*
X333258Y480140D01*
X333180Y479750D01*
Y470050D01*
X333258Y469659D01*
X333479Y469329D01*
X333810Y469108D01*
X334200Y469030D01*
X379480D01*
Y452700D01*
X379558Y452310D01*
X379779Y451979D01*
X380110Y451758D01*
X380500Y451680D01*
X411074D01*
X411464Y451758D01*
X411795Y451979D01*
X412016Y452310D01*
X412093Y452700D01*
Y475217D01*
X413918D01*
Y475217D01*
X414100Y475180D01*
X438118D01*
X438508Y475258D01*
X438838Y475479D01*
X439060Y475810D01*
X439137Y476200D01*
Y507600D01*
X439722Y508163D01*
X481233Y508163D01*
X481232Y434379D01*
D02*
G37*
G36*
X411074Y452700D02*
X380500D01*
Y470050D01*
X334200D01*
Y479750D01*
X398074D01*
X399774Y481450D01*
Y490650D01*
X411074D01*
Y452700D01*
D02*
G37*
G36*
X306419Y338019D02*
X306915Y337687D01*
X307500Y337571D01*
X342623D01*
X343208Y337687D01*
X343704Y338019D01*
X348056Y342370D01*
X348300Y342341D01*
X348756Y342129D01*
Y260319D01*
X344367Y255929D01*
X318250D01*
Y258550D01*
X310043D01*
Y261727D01*
X310743Y261915D01*
X310780Y261852D01*
X311552Y261080D01*
X312498Y260533D01*
X313554Y260250D01*
X314646D01*
X315702Y260533D01*
X316648Y261080D01*
X317421Y261852D01*
X317861Y262616D01*
X333746D01*
X334429Y262752D01*
X335008Y263138D01*
X338593Y266724D01*
X338593Y266724D01*
X338980Y267302D01*
X339116Y267985D01*
Y329832D01*
X339180Y329897D01*
X339513Y330699D01*
Y331566D01*
X339180Y332368D01*
X338567Y332981D01*
X337765Y333313D01*
X336898D01*
X336096Y332981D01*
X335483Y332368D01*
X335150Y331566D01*
Y330699D01*
X335483Y329897D01*
X335547Y329832D01*
Y268724D01*
X333007Y266184D01*
X317861D01*
X317421Y266948D01*
X316648Y267721D01*
X315702Y268267D01*
X314646Y268550D01*
X313554D01*
X312498Y268267D01*
X311552Y267721D01*
X310780Y266948D01*
X310743Y266885D01*
X310043Y267073D01*
Y281727D01*
X310743Y281915D01*
X310780Y281852D01*
X311552Y281080D01*
X312498Y280533D01*
X313554Y280250D01*
X314646D01*
X315702Y280533D01*
X316648Y281080D01*
X317421Y281852D01*
X317967Y282798D01*
X318250Y283854D01*
Y284946D01*
X317967Y286002D01*
X317929Y286067D01*
X320981Y289119D01*
X321313Y289615D01*
X321429Y290200D01*
Y321222D01*
X321313Y321807D01*
X320981Y322304D01*
X300362Y342923D01*
X300389Y343059D01*
X301148Y343289D01*
X306419Y338019D01*
D02*
G37*
%LPC*%
G36*
X437000Y503200D02*
X416800D01*
Y498500D01*
X437000D01*
Y503200D01*
D02*
G37*
G36*
X372780Y501060D02*
X371276D01*
X369801Y500767D01*
X368412Y500192D01*
X367162Y499356D01*
X366099Y498293D01*
X365263Y497043D01*
X364688Y495654D01*
X364395Y494179D01*
Y492675D01*
X364688Y491200D01*
X365263Y489811D01*
X366099Y488561D01*
X367162Y487498D01*
X368412Y486662D01*
X369801Y486087D01*
X371276Y485794D01*
X372780D01*
X374254Y486087D01*
X375644Y486662D01*
X376894Y487498D01*
X377957Y488561D01*
X378793Y489811D01*
X379368Y491200D01*
X379661Y492675D01*
Y494179D01*
X379368Y495654D01*
X378793Y497043D01*
X377957Y498293D01*
X376894Y499356D01*
X375644Y500192D01*
X374254Y500767D01*
X372780Y501060D01*
D02*
G37*
G36*
X315434Y452681D02*
X314566D01*
X313765Y452349D01*
X313151Y451735D01*
X312819Y450934D01*
Y450066D01*
X313151Y449264D01*
X313765Y448651D01*
X314566Y448319D01*
X315434D01*
X316235Y448651D01*
X316849Y449264D01*
X317181Y450066D01*
Y450934D01*
X316849Y451735D01*
X316235Y452349D01*
X315434Y452681D01*
D02*
G37*
G36*
Y445981D02*
X314566D01*
X313765Y445649D01*
X313151Y445036D01*
X312819Y444234D01*
Y443366D01*
X313151Y442564D01*
X313765Y441951D01*
X314566Y441619D01*
X315434D01*
X316235Y441951D01*
X316849Y442564D01*
X317181Y443366D01*
Y444234D01*
X316849Y445036D01*
X316235Y445649D01*
X315434Y445981D01*
D02*
G37*
G36*
Y439581D02*
X314566D01*
X313765Y439249D01*
X313151Y438635D01*
X312819Y437834D01*
Y436966D01*
X313151Y436165D01*
X313765Y435551D01*
X314566Y435219D01*
X315434D01*
X316235Y435551D01*
X316849Y436165D01*
X317181Y436966D01*
Y437834D01*
X316849Y438635D01*
X316235Y439249D01*
X315434Y439581D01*
D02*
G37*
G36*
X315634Y431981D02*
X314766D01*
X313965Y431649D01*
X313351Y431036D01*
X313019Y430234D01*
Y429366D01*
X313351Y428565D01*
X313965Y427951D01*
X314766Y427619D01*
X315634D01*
X316436Y427951D01*
X317049Y428565D01*
X317381Y429366D01*
Y430234D01*
X317049Y431036D01*
X316436Y431649D01*
X315634Y431981D01*
D02*
G37*
G36*
Y425781D02*
X314766D01*
X313965Y425449D01*
X313351Y424835D01*
X313019Y424034D01*
Y423166D01*
X313351Y422365D01*
X313965Y421751D01*
X314766Y421419D01*
X315634D01*
X316436Y421751D01*
X317049Y422365D01*
X317381Y423166D01*
Y424034D01*
X317049Y424835D01*
X316436Y425449D01*
X315634Y425781D01*
D02*
G37*
G36*
X463348Y438081D02*
X462480D01*
X461679Y437749D01*
X461065Y437136D01*
X460733Y436334D01*
Y435466D01*
X460875Y435123D01*
Y424988D01*
X453692Y417804D01*
X385176D01*
X384834Y417946D01*
X383966D01*
X383165Y417614D01*
X382551Y417001D01*
X382219Y416199D01*
Y415332D01*
X382551Y414530D01*
X383165Y413916D01*
X383966Y413584D01*
X384834D01*
X385176Y413726D01*
X454537D01*
X455317Y413881D01*
X455978Y414323D01*
X464356Y422701D01*
X464798Y423362D01*
X464953Y424143D01*
Y435123D01*
X465095Y435466D01*
Y436334D01*
X464763Y437136D01*
X464150Y437749D01*
X463348Y438081D01*
D02*
G37*
G36*
X297634Y418981D02*
X296766D01*
X295965Y418649D01*
X295351Y418036D01*
X295019Y417234D01*
Y416366D01*
X295351Y415564D01*
X295965Y414951D01*
X296766Y414619D01*
X297634D01*
X298435Y414951D01*
X299049Y415564D01*
X299381Y416366D01*
Y417234D01*
X299049Y418036D01*
X298435Y418649D01*
X297634Y418981D01*
D02*
G37*
G36*
X330565Y414213D02*
X329698D01*
X328896Y413881D01*
X328282Y413267D01*
X327950Y412465D01*
Y411598D01*
X328282Y410796D01*
X328896Y410182D01*
X329698Y409850D01*
X330565D01*
X331367Y410182D01*
X331980Y410796D01*
X332313Y411598D01*
Y412465D01*
X331980Y413267D01*
X331367Y413881D01*
X330565Y414213D01*
D02*
G37*
G36*
X485234Y412581D02*
X484366D01*
X484024Y412439D01*
X416300D01*
X415520Y412284D01*
X414858Y411842D01*
X410658Y407642D01*
X410216Y406980D01*
X410061Y406200D01*
Y397177D01*
X409919Y396834D01*
Y395966D01*
X410251Y395164D01*
X410864Y394551D01*
X411666Y394219D01*
X412534D01*
X413336Y394551D01*
X413949Y395164D01*
X414281Y395966D01*
Y396834D01*
X414139Y397177D01*
Y405355D01*
X417145Y408361D01*
X484024D01*
X484366Y408219D01*
X485234D01*
X486035Y408551D01*
X486649Y409164D01*
X486981Y409966D01*
Y410834D01*
X486649Y411635D01*
X486035Y412249D01*
X485234Y412581D01*
D02*
G37*
G36*
X297634Y411818D02*
X296766D01*
X295965Y411486D01*
X295351Y410873D01*
X295019Y410071D01*
Y409203D01*
X295351Y408401D01*
X295965Y407788D01*
X296766Y407456D01*
X297634D01*
X298435Y407788D01*
X299049Y408401D01*
X299381Y409203D01*
Y410071D01*
X299049Y410873D01*
X298435Y411486D01*
X297634Y411818D01*
D02*
G37*
G36*
X355469Y456475D02*
X334560D01*
X333975Y456359D01*
X333478Y456027D01*
X330632Y453181D01*
X330180D01*
X329379Y452849D01*
X328765Y452236D01*
X328433Y451434D01*
Y450566D01*
X328765Y449764D01*
X329379Y449151D01*
X330180Y448819D01*
X331048D01*
X331850Y449151D01*
X332463Y449764D01*
X332795Y450566D01*
Y451018D01*
X335193Y453416D01*
X354836D01*
X359209Y449043D01*
Y407186D01*
X358890Y406867D01*
X358558Y406065D01*
Y405197D01*
X358890Y404396D01*
X359503Y403782D01*
X360305Y403450D01*
X361173D01*
X361974Y403782D01*
X362588Y404396D01*
X362920Y405197D01*
Y406065D01*
X362588Y406867D01*
X362268Y407186D01*
Y449676D01*
X362152Y450261D01*
X361820Y450758D01*
X356551Y456027D01*
X356054Y456359D01*
X355469Y456475D01*
D02*
G37*
G36*
X395934Y411774D02*
X395066D01*
X394265Y411442D01*
X393651Y410829D01*
X393319Y410027D01*
Y409159D01*
X393651Y408358D01*
X394008Y408001D01*
X394187Y407547D01*
X394008Y407093D01*
X393651Y406736D01*
X393319Y405934D01*
Y405066D01*
X393651Y404264D01*
X394265Y403651D01*
X395066Y403319D01*
X395934D01*
X396736Y403651D01*
X397349Y404264D01*
X397681Y405066D01*
Y405934D01*
X397349Y406736D01*
X396992Y407093D01*
X396813Y407547D01*
X396992Y408001D01*
X397349Y408358D01*
X397681Y409159D01*
Y410027D01*
X397349Y410829D01*
X396736Y411442D01*
X395934Y411774D01*
D02*
G37*
G36*
X463348Y482127D02*
X462480D01*
X461679Y481795D01*
X461065Y481181D01*
X460733Y480379D01*
Y479927D01*
X457219Y476413D01*
X456887Y475917D01*
X456771Y475331D01*
Y429410D01*
X449806Y422445D01*
X374237D01*
X373652Y422329D01*
X373156Y421997D01*
X368678Y417520D01*
X368347Y417024D01*
X368230Y416438D01*
Y397846D01*
X367530Y397574D01*
X367283Y397843D01*
Y453617D01*
X367147Y454300D01*
X366761Y454879D01*
X359278Y462362D01*
X358699Y462748D01*
X358016Y462884D01*
X349684D01*
Y464000D01*
X349749Y464065D01*
X350081Y464866D01*
Y465734D01*
X349749Y466536D01*
X349135Y467149D01*
X348334Y467481D01*
X347466D01*
X346665Y467149D01*
X346051Y466536D01*
X345719Y465734D01*
Y464866D01*
X346051Y464065D01*
X346116Y464000D01*
Y462400D01*
X346051Y462335D01*
X345719Y461534D01*
Y460666D01*
X346051Y459865D01*
X346665Y459251D01*
X347466Y458919D01*
X348334D01*
X349135Y459251D01*
X349200Y459316D01*
X357277D01*
X363715Y452878D01*
Y397735D01*
X363650Y397670D01*
X363318Y396868D01*
Y396001D01*
X363650Y395199D01*
X364264Y394586D01*
X364396Y394531D01*
X364257Y393830D01*
X335518D01*
X335198Y394150D01*
X334397Y394482D01*
X333529D01*
X332728Y394150D01*
X332114Y393537D01*
X331782Y392735D01*
Y391867D01*
X331839Y391729D01*
X331371Y391029D01*
X305755D01*
X305435Y391349D01*
X304634Y391681D01*
X303766D01*
X302964Y391349D01*
X302351Y390736D01*
X302019Y389934D01*
Y389066D01*
X302351Y388264D01*
X302964Y387651D01*
X303766Y387319D01*
X304634D01*
X305435Y387651D01*
X305755Y387971D01*
X347016D01*
X347336Y387651D01*
X348138Y387319D01*
X349005D01*
X349807Y387651D01*
X350421Y388264D01*
X350753Y389066D01*
Y389934D01*
X350695Y390072D01*
X351163Y390772D01*
X366502D01*
X367087Y390888D01*
X367583Y391220D01*
X370841Y394477D01*
X371172Y394973D01*
X371289Y395559D01*
Y415805D01*
X374870Y419386D01*
X450440D01*
X451025Y419503D01*
X451521Y419834D01*
X459381Y427695D01*
X459713Y428191D01*
X459829Y428776D01*
Y474698D01*
X462896Y477765D01*
X463348D01*
X464150Y478097D01*
X464763Y478710D01*
X465095Y479512D01*
Y480379D01*
X464763Y481181D01*
X464150Y481795D01*
X463348Y482127D01*
D02*
G37*
G36*
X442797Y387881D02*
X441930D01*
X441128Y387549D01*
X441063Y387484D01*
X376300D01*
X376236Y387549D01*
X375434Y387881D01*
X374566D01*
X373764Y387549D01*
X373151Y386935D01*
X372819Y386134D01*
Y385266D01*
X373151Y384465D01*
X373764Y383851D01*
X374566Y383519D01*
X375434D01*
X376236Y383851D01*
X376300Y383916D01*
X441063D01*
X441128Y383851D01*
X441930Y383519D01*
X442797D01*
X443599Y383851D01*
X444213Y384465D01*
X444545Y385266D01*
Y386134D01*
X444213Y386935D01*
X443599Y387549D01*
X442797Y387881D01*
D02*
G37*
G36*
X395334Y345981D02*
X394466D01*
X393665Y345649D01*
X393051Y345036D01*
X392719Y344234D01*
Y343366D01*
X393051Y342565D01*
X393665Y341951D01*
X394466Y341619D01*
X395334D01*
X396135Y341951D01*
X396749Y342565D01*
X397081Y343366D01*
Y344234D01*
X396749Y345036D01*
X396135Y345649D01*
X395334Y345981D01*
D02*
G37*
G36*
X476234Y326681D02*
X475366D01*
X474565Y326349D01*
X473951Y325735D01*
X473619Y324934D01*
Y324066D01*
X473951Y323265D01*
X474565Y322651D01*
X475366Y322319D01*
X476234D01*
X477036Y322651D01*
X477649Y323265D01*
X477981Y324066D01*
Y324934D01*
X477649Y325735D01*
X477036Y326349D01*
X476234Y326681D01*
D02*
G37*
G36*
X369872Y305772D02*
X369005D01*
X368203Y305440D01*
X367590Y304826D01*
X367257Y304024D01*
Y303157D01*
X367590Y302355D01*
X368203Y301742D01*
X369005Y301410D01*
X369872D01*
X370674Y301742D01*
X371288Y302355D01*
X371620Y303157D01*
Y304024D01*
X371288Y304826D01*
X370674Y305440D01*
X369872Y305772D01*
D02*
G37*
G36*
X430334Y283576D02*
X429466D01*
X428664Y283244D01*
X428051Y282630D01*
X427719Y281829D01*
Y280961D01*
X428051Y280159D01*
X428664Y279546D01*
X429466Y279214D01*
X430334D01*
X431136Y279546D01*
X431749Y280159D01*
X432081Y280961D01*
Y281829D01*
X431749Y282630D01*
X431136Y283244D01*
X430334Y283576D01*
D02*
G37*
G36*
X424734D02*
X423866D01*
X423065Y283244D01*
X422451Y282630D01*
X422119Y281829D01*
Y280961D01*
X422451Y280159D01*
X423065Y279546D01*
X423866Y279214D01*
X424734D01*
X425535Y279546D01*
X426149Y280159D01*
X426481Y280961D01*
Y281829D01*
X426149Y282630D01*
X425535Y283244D01*
X424734Y283576D01*
D02*
G37*
G36*
X433712Y276236D02*
X429153D01*
Y270102D01*
X433712D01*
Y270724D01*
X434294Y271112D01*
X434466Y271041D01*
X435334D01*
X436135Y271373D01*
X436749Y271987D01*
X437081Y272788D01*
Y273656D01*
X436749Y274458D01*
X436135Y275071D01*
X435334Y275403D01*
X434466D01*
X434294Y275332D01*
X433712Y275721D01*
Y276236D01*
D02*
G37*
G36*
X451520Y284486D02*
X450016D01*
X448541Y284192D01*
X447152Y283617D01*
X445902Y282782D01*
X444839Y281718D01*
X444003Y280468D01*
X443428Y279079D01*
X443135Y277604D01*
Y276100D01*
X443428Y274626D01*
X444003Y273236D01*
X444839Y271986D01*
X445902Y270923D01*
X447152Y270088D01*
X448541Y269512D01*
X450016Y269219D01*
X451520D01*
X452995Y269512D01*
X454384Y270088D01*
X455634Y270923D01*
X456697Y271986D01*
X457533Y273236D01*
X458108Y274626D01*
X458401Y276100D01*
Y277604D01*
X458108Y279079D01*
X457533Y280468D01*
X456697Y281718D01*
X455634Y282782D01*
X454384Y283617D01*
X452995Y284192D01*
X451520Y284486D01*
D02*
G37*
G36*
X364234Y273781D02*
X363366D01*
X362564Y273449D01*
X361951Y272835D01*
X361619Y272034D01*
Y271546D01*
X361487Y271415D01*
X361156Y270918D01*
X361039Y270333D01*
Y268520D01*
X360683D01*
Y264823D01*
X359723D01*
X359397Y265149D01*
X358595Y265481D01*
X357728D01*
X356926Y265149D01*
X356312Y264535D01*
X355980Y263734D01*
Y262866D01*
X356312Y262065D01*
X356926Y261451D01*
X357728Y261119D01*
X358595D01*
X359397Y261451D01*
X359711Y261765D01*
X360683D01*
Y261402D01*
X367801D01*
X367801Y261402D01*
X368470Y261328D01*
X369005Y261107D01*
X369872D01*
X370674Y261439D01*
X371288Y262052D01*
X371620Y262854D01*
Y263722D01*
X371442Y264150D01*
X371876Y264850D01*
X374800D01*
X374865Y264785D01*
X375666Y264453D01*
X376534D01*
X377336Y264785D01*
X377949Y265399D01*
X378281Y266200D01*
Y267068D01*
X377949Y267870D01*
X377336Y268483D01*
X376534Y268815D01*
X375666D01*
X374865Y268483D01*
X374800Y268419D01*
X367801D01*
Y268520D01*
X364098D01*
Y269419D01*
X364234D01*
X365036Y269751D01*
X365649Y270364D01*
X365981Y271166D01*
Y272034D01*
X365649Y272835D01*
X365036Y273449D01*
X364234Y273781D01*
D02*
G37*
G36*
X433712Y259898D02*
X429153D01*
Y253764D01*
X433712D01*
Y259898D01*
D02*
G37*
G36*
X425247D02*
X420688D01*
Y253764D01*
X425247D01*
Y259898D01*
D02*
G37*
%LPD*%
D13*
X431432Y273169D02*
D03*
X422968D02*
D03*
X431432Y256831D02*
D03*
X422968D02*
D03*
D19*
X362568Y266634D02*
D03*
Y263288D02*
D03*
X365915D02*
D03*
Y266634D02*
D03*
D20*
X454537Y415765D02*
X462914Y424143D01*
X384400Y415765D02*
X454537D01*
X462914Y424143D02*
Y435900D01*
X412100Y396400D02*
Y406200D01*
X416300Y410400D02*
X484800D01*
X412100Y406200D02*
X416300Y410400D01*
D21*
X314100Y264400D02*
X333746D01*
X337332Y267985D02*
Y331132D01*
X333746Y264400D02*
X337332Y267985D01*
X419000Y273169D02*
X422968D01*
X365915Y266634D02*
X376100D01*
X365499Y396435D02*
Y453617D01*
X358016Y461100D02*
X365499Y453617D01*
X347900Y461100D02*
X358016D01*
X375000Y385700D02*
X442364D01*
X347900Y461100D02*
Y465300D01*
D22*
X416000Y306202D02*
Y355700D01*
Y306202D02*
X420802Y301400D01*
X427100D01*
X429900Y304200D01*
X411506Y357507D02*
X414193D01*
X419521Y308080D02*
X423400Y304200D01*
X419521Y308080D02*
Y357158D01*
X411506Y361028D02*
X415651D01*
X414193Y357507D02*
X416000Y355700D01*
X415651Y361028D02*
X419521Y357158D01*
X350675Y361028D02*
X411506D01*
X351014Y357507D02*
X411506D01*
X347032Y353525D02*
X351014Y357507D01*
X342623Y339100D02*
X347032Y343510D01*
Y353525D01*
X301200Y345400D02*
Y359746D01*
X307500Y339100D02*
X342623D01*
X301200Y345400D02*
X307500Y339100D01*
X344232Y354584D02*
X350675Y361028D01*
X341532Y341732D02*
X344232Y344432D01*
Y354584D01*
X304003Y346497D02*
Y362937D01*
X308768Y341732D02*
X341532D01*
X304003Y346497D02*
X308768Y341732D01*
X345000Y254400D02*
X350285Y259685D01*
X314100Y254400D02*
X345000D01*
X350285Y259685D02*
Y349532D01*
X310000Y354746D02*
Y359193D01*
X320365Y369558D02*
X423942D01*
X310000Y359193D02*
X320365Y369558D01*
X298411Y342711D02*
X319900Y321222D01*
X298411Y376701D02*
X303495Y381785D01*
X298411Y342711D02*
Y376701D01*
X309565Y346169D02*
X340769D01*
X306800Y348934D02*
X309565Y346169D01*
X306800Y371690D02*
X309900Y374791D01*
X306800Y348934D02*
Y371690D01*
X309900Y374791D02*
X442891D01*
X319900Y290200D02*
Y321222D01*
X303495Y381785D02*
X346096D01*
X348571Y379309D01*
X295900Y341271D02*
Y378135D01*
X302160Y384395D01*
X348571D01*
X314100Y294400D02*
Y323072D01*
X295900Y341271D02*
X314100Y323072D01*
Y284400D02*
X319900Y290200D01*
X304200Y389500D02*
X348571D01*
X317209Y371954D02*
X425991D01*
X310000Y364746D02*
X317209Y371954D01*
X366502Y392301D02*
X369760Y395559D01*
X333963Y392301D02*
X366502D01*
X369760Y395559D02*
Y416438D01*
X374237Y420916D02*
X450440D01*
X369760Y416438D02*
X374237Y420916D01*
X425991Y371954D02*
X489446D01*
X492800Y368600D01*
X430300Y334700D02*
Y367646D01*
X427600Y338000D02*
Y365900D01*
X442891Y374791D02*
X453800Y385700D01*
X425991Y371954D02*
X430300Y367646D01*
X423942Y369558D02*
X427600Y365900D01*
X431432Y273169D02*
X431485Y273222D01*
X434900D01*
X360700Y294139D02*
Y321655D01*
Y294139D02*
X369439Y285400D01*
X353637Y289925D02*
X358161Y285400D01*
X353637Y289925D02*
Y336800D01*
X357100Y292100D02*
Y316800D01*
Y292100D02*
X363800Y285400D01*
X358168Y263294D02*
X362562D01*
X362568Y263288D01*
X358161Y263300D02*
X358168Y263294D01*
X362568Y266634D02*
Y270333D01*
X363800Y271565D01*
Y271600D01*
X365915Y263288D02*
X369439D01*
X353637Y336800D02*
X358005Y341168D01*
X330614Y451000D02*
X334560Y454946D01*
X355469D02*
X360739Y449676D01*
X334560Y454946D02*
X355469D01*
X360739Y405631D02*
Y449676D01*
X450440Y420916D02*
X458300Y428776D01*
Y475331D01*
X462914Y479946D01*
D23*
X477222Y254284D02*
D03*
Y264284D02*
D03*
Y274284D02*
D03*
X314100Y294400D02*
D03*
Y284400D02*
D03*
Y274400D02*
D03*
Y264400D02*
D03*
D24*
X477222Y284284D02*
D03*
X314100Y254400D02*
D03*
D25*
X405480Y485900D02*
D03*
X385795D02*
D03*
D26*
X337332Y331132D02*
D03*
X315000Y450500D02*
D03*
Y443800D02*
D03*
X315200Y423600D02*
D03*
X315000Y437400D02*
D03*
X358005Y335169D02*
D03*
X470400Y390189D02*
D03*
Y413601D02*
D03*
Y398063D02*
D03*
Y405937D02*
D03*
Y423050D02*
D03*
X484900Y398063D02*
D03*
X484800Y405937D02*
D03*
X492800Y410400D02*
D03*
X486037Y347984D02*
D03*
Y343069D02*
D03*
Y352900D02*
D03*
X479274D02*
D03*
X492800D02*
D03*
X419000Y273169D02*
D03*
X325750Y322093D02*
D03*
X346614Y430839D02*
D03*
X384400Y391000D02*
D03*
X390500D02*
D03*
X395500Y405500D02*
D03*
X400500Y409593D02*
D03*
X395500D02*
D03*
X315200Y429800D02*
D03*
X318300Y396800D02*
D03*
X312000Y392969D02*
D03*
X322731Y392369D02*
D03*
X326431D02*
D03*
X322731Y418350D02*
D03*
X330132Y412032D02*
D03*
X324532Y464032D02*
D03*
Y455166D02*
D03*
Y446916D02*
D03*
Y440666D02*
D03*
Y434166D02*
D03*
X302000Y425500D02*
D03*
X297200Y409637D02*
D03*
Y416800D02*
D03*
X376100Y266634D02*
D03*
X369439Y303590D02*
D03*
X369604Y309935D02*
D03*
X391297Y310221D02*
D03*
X464109Y329625D02*
D03*
X475800Y318500D02*
D03*
Y324500D02*
D03*
X301200Y359746D02*
D03*
X411506Y357507D02*
D03*
Y361028D02*
D03*
X304003Y362937D02*
D03*
X429900Y304200D02*
D03*
X423400D02*
D03*
X429900Y281395D02*
D03*
X424300D02*
D03*
X350285Y349532D02*
D03*
X340769Y346169D02*
D03*
X348571Y379309D02*
D03*
Y384395D02*
D03*
Y389500D02*
D03*
X368140Y379309D02*
D03*
X310000Y354746D02*
D03*
Y364746D02*
D03*
X407700Y377200D02*
D03*
X402696D02*
D03*
X411506Y364925D02*
D03*
X394900Y343800D02*
D03*
X412900D02*
D03*
X417900Y364925D02*
D03*
X400900Y343800D02*
D03*
X333963Y392301D02*
D03*
X365499Y396435D02*
D03*
X341268Y357732D02*
D03*
X337332Y361668D02*
D03*
X450627Y313559D02*
D03*
X492800Y368600D02*
D03*
X427600Y338000D02*
D03*
X368140Y365588D02*
D03*
X434900Y273222D02*
D03*
X360700Y321655D02*
D03*
X369439Y285400D02*
D03*
X358161D02*
D03*
X363800D02*
D03*
X358161Y263300D02*
D03*
X363800Y271600D02*
D03*
X369439Y263288D02*
D03*
X357100Y316800D02*
D03*
X358005Y341168D02*
D03*
X453800Y385700D02*
D03*
X430300Y334700D02*
D03*
X375000Y385700D02*
D03*
X442364D02*
D03*
X433723Y391500D02*
D03*
X347900Y465300D02*
D03*
Y461100D02*
D03*
X360739Y405631D02*
D03*
X384400Y415765D02*
D03*
X304200Y389500D02*
D03*
X472914Y435900D02*
D03*
X467914D02*
D03*
X462914D02*
D03*
X484800Y410400D02*
D03*
X412100Y396400D02*
D03*
X330614Y451000D02*
D03*
X462914Y479946D02*
D03*
X426855Y500800D02*
D03*
X434605D02*
D03*
X441402D02*
D03*
X419105D02*
D03*
X448200D02*
D03*
X462914Y495500D02*
D03*
X456656D02*
D03*
X314200Y477539D02*
D03*
X320000D02*
D03*
X314200Y472300D02*
D03*
X320000D02*
D03*
X341514Y472161D02*
D03*
X335714D02*
D03*
X426800Y479100D02*
D03*
X434605Y479223D02*
D03*
X419105D02*
D03*
X388392Y463946D02*
D03*
X393495D02*
D03*
X398597D02*
D03*
X403700Y459423D02*
D03*
Y454900D02*
D03*
X383290Y463946D02*
D03*
X341514Y477400D02*
D03*
X335714D02*
D03*
X329400Y472300D02*
D03*
Y468166D02*
D03*
X350614Y451000D02*
D03*
X346614D02*
D03*
X338614D02*
D03*
X403700Y463946D02*
D03*
M02*
