G04*
G04 #@! TF.GenerationSoftware,Altium Limited,Altium Designer,25.4.2 (15)*
G04*
G04 Layer_Color=2752767*
%FSLAX25Y25*%
%MOIN*%
G70*
G04*
G04 #@! TF.SameCoordinates,B977156D-3F5D-4D44-89CA-F2FD908ED1DE*
G04*
G04*
G04 #@! TF.FilePolarity,Positive*
G04*
G01*
G75*
%ADD11C,0.00500*%
D11*
X477222Y252284D02*
X475222Y256284D01*
X479222D01*
X477222Y252284D01*
Y262284D02*
X475222Y266284D01*
X479222D01*
X477222Y262284D01*
Y272284D02*
X475222Y276284D01*
X479222D01*
X477222Y272284D01*
Y282284D02*
X475222Y286284D01*
X479222D01*
X477222Y282284D01*
X314100Y292400D02*
X312100Y296400D01*
X316100D01*
X314100Y292400D01*
Y282400D02*
X312100Y286400D01*
X316100D01*
X314100Y282400D01*
Y272400D02*
X312100Y276400D01*
X316100D01*
X314100Y272400D01*
Y262400D02*
X312100Y266400D01*
X316100D01*
X314100Y262400D01*
Y252400D02*
X312100Y256400D01*
X316100D01*
X314100Y252400D01*
X403480Y483900D02*
Y487900D01*
X407480D01*
Y483900D01*
X403480D01*
X383795D02*
Y487900D01*
X387795D01*
Y483900D01*
X383795D01*
X337332Y329132D02*
X338332Y330132D01*
X339332D01*
X338332Y331132D01*
X339332Y332132D01*
X338332D01*
X337332Y333132D01*
X336332Y332132D01*
X335332D01*
X336332Y331132D01*
X335332Y330132D01*
X336332D01*
X337332Y329132D01*
X315000Y448500D02*
X316000Y449500D01*
X317000D01*
X316000Y450500D01*
X317000Y451500D01*
X316000D01*
X315000Y452500D01*
X314000Y451500D01*
X313000D01*
X314000Y450500D01*
X313000Y449500D01*
X314000D01*
X315000Y448500D01*
Y441800D02*
X316000Y442800D01*
X317000D01*
X316000Y443800D01*
X317000Y444800D01*
X316000D01*
X315000Y445800D01*
X314000Y444800D01*
X313000D01*
X314000Y443800D01*
X313000Y442800D01*
X314000D01*
X315000Y441800D01*
X315200Y421600D02*
X316200Y422600D01*
X317200D01*
X316200Y423600D01*
X317200Y424600D01*
X316200D01*
X315200Y425600D01*
X314200Y424600D01*
X313200D01*
X314200Y423600D01*
X313200Y422600D01*
X314200D01*
X315200Y421600D01*
X315000Y435400D02*
X316000Y436400D01*
X317000D01*
X316000Y437400D01*
X317000Y438400D01*
X316000D01*
X315000Y439400D01*
X314000Y438400D01*
X313000D01*
X314000Y437400D01*
X313000Y436400D01*
X314000D01*
X315000Y435400D01*
X358005Y333169D02*
X359005Y334169D01*
X360005D01*
X359005Y335169D01*
X360005Y336169D01*
X359005D01*
X358005Y337169D01*
X357006Y336169D01*
X356006D01*
X357006Y335169D01*
X356006Y334169D01*
X357006D01*
X358005Y333169D01*
X470400Y388189D02*
X471400Y389189D01*
X472400D01*
X471400Y390189D01*
X472400Y391189D01*
X471400D01*
X470400Y392189D01*
X469400Y391189D01*
X468400D01*
X469400Y390189D01*
X468400Y389189D01*
X469400D01*
X470400Y388189D01*
Y411601D02*
X471400Y412601D01*
X472400D01*
X471400Y413601D01*
X472400Y414601D01*
X471400D01*
X470400Y415601D01*
X469400Y414601D01*
X468400D01*
X469400Y413601D01*
X468400Y412601D01*
X469400D01*
X470400Y411601D01*
Y396063D02*
X471400Y397063D01*
X472400D01*
X471400Y398063D01*
X472400Y399063D01*
X471400D01*
X470400Y400063D01*
X469400Y399063D01*
X468400D01*
X469400Y398063D01*
X468400Y397063D01*
X469400D01*
X470400Y396063D01*
Y403937D02*
X471400Y404937D01*
X472400D01*
X471400Y405937D01*
X472400Y406937D01*
X471400D01*
X470400Y407937D01*
X469400Y406937D01*
X468400D01*
X469400Y405937D01*
X468400Y404937D01*
X469400D01*
X470400Y403937D01*
Y421050D02*
X471400Y422050D01*
X472400D01*
X471400Y423050D01*
X472400Y424050D01*
X471400D01*
X470400Y425050D01*
X469400Y424050D01*
X468400D01*
X469400Y423050D01*
X468400Y422050D01*
X469400D01*
X470400Y421050D01*
X484900Y396063D02*
X485900Y397063D01*
X486900D01*
X485900Y398063D01*
X486900Y399063D01*
X485900D01*
X484900Y400063D01*
X483900Y399063D01*
X482900D01*
X483900Y398063D01*
X482900Y397063D01*
X483900D01*
X484900Y396063D01*
X484800Y403937D02*
X485800Y404937D01*
X486800D01*
X485800Y405937D01*
X486800Y406937D01*
X485800D01*
X484800Y407937D01*
X483800Y406937D01*
X482800D01*
X483800Y405937D01*
X482800Y404937D01*
X483800D01*
X484800Y403937D01*
X492800Y408400D02*
X493800Y409400D01*
X494800D01*
X493800Y410400D01*
X494800Y411400D01*
X493800D01*
X492800Y412400D01*
X491800Y411400D01*
X490800D01*
X491800Y410400D01*
X490800Y409400D01*
X491800D01*
X492800Y408400D01*
X486037Y345984D02*
X487037Y346984D01*
X488037D01*
X487037Y347984D01*
X488037Y348984D01*
X487037D01*
X486037Y349984D01*
X485037Y348984D01*
X484037D01*
X485037Y347984D01*
X484037Y346984D01*
X485037D01*
X486037Y345984D01*
Y341069D02*
X487037Y342069D01*
X488037D01*
X487037Y343069D01*
X488037Y344069D01*
X487037D01*
X486037Y345069D01*
X485037Y344069D01*
X484037D01*
X485037Y343069D01*
X484037Y342069D01*
X485037D01*
X486037Y341069D01*
Y350900D02*
X487037Y351900D01*
X488037D01*
X487037Y352900D01*
X488037Y353900D01*
X487037D01*
X486037Y354900D01*
X485037Y353900D01*
X484037D01*
X485037Y352900D01*
X484037Y351900D01*
X485037D01*
X486037Y350900D01*
X479274D02*
X480274Y351900D01*
X481274D01*
X480274Y352900D01*
X481274Y353900D01*
X480274D01*
X479274Y354900D01*
X478274Y353900D01*
X477274D01*
X478274Y352900D01*
X477274Y351900D01*
X478274D01*
X479274Y350900D01*
X492800D02*
X493800Y351900D01*
X494800D01*
X493800Y352900D01*
X494800Y353900D01*
X493800D01*
X492800Y354900D01*
X491800Y353900D01*
X490800D01*
X491800Y352900D01*
X490800Y351900D01*
X491800D01*
X492800Y350900D01*
X419000Y271169D02*
X420000Y272169D01*
X421000D01*
X420000Y273169D01*
X421000Y274169D01*
X420000D01*
X419000Y275169D01*
X418000Y274169D01*
X417000D01*
X418000Y273169D01*
X417000Y272169D01*
X418000D01*
X419000Y271169D01*
X325750Y320093D02*
X326750Y321093D01*
X327750D01*
X326750Y322093D01*
X327750Y323093D01*
X326750D01*
X325750Y324093D01*
X324750Y323093D01*
X323750D01*
X324750Y322093D01*
X323750Y321093D01*
X324750D01*
X325750Y320093D01*
X346614Y428839D02*
X347614Y429839D01*
X348614D01*
X347614Y430839D01*
X348614Y431839D01*
X347614D01*
X346614Y432839D01*
X345614Y431839D01*
X344614D01*
X345614Y430839D01*
X344614Y429839D01*
X345614D01*
X346614Y428839D01*
X384400Y389000D02*
X385400Y390000D01*
X386400D01*
X385400Y391000D01*
X386400Y392000D01*
X385400D01*
X384400Y393000D01*
X383400Y392000D01*
X382400D01*
X383400Y391000D01*
X382400Y390000D01*
X383400D01*
X384400Y389000D01*
X390500D02*
X391500Y390000D01*
X392500D01*
X391500Y391000D01*
X392500Y392000D01*
X391500D01*
X390500Y393000D01*
X389500Y392000D01*
X388500D01*
X389500Y391000D01*
X388500Y390000D01*
X389500D01*
X390500Y389000D01*
X395500Y403500D02*
X396500Y404500D01*
X397500D01*
X396500Y405500D01*
X397500Y406500D01*
X396500D01*
X395500Y407500D01*
X394500Y406500D01*
X393500D01*
X394500Y405500D01*
X393500Y404500D01*
X394500D01*
X395500Y403500D01*
X400500Y407593D02*
X401500Y408593D01*
X402500D01*
X401500Y409593D01*
X402500Y410593D01*
X401500D01*
X400500Y411593D01*
X399500Y410593D01*
X398500D01*
X399500Y409593D01*
X398500Y408593D01*
X399500D01*
X400500Y407593D01*
X395500D02*
X396500Y408593D01*
X397500D01*
X396500Y409593D01*
X397500Y410593D01*
X396500D01*
X395500Y411593D01*
X394500Y410593D01*
X393500D01*
X394500Y409593D01*
X393500Y408593D01*
X394500D01*
X395500Y407593D01*
X315200Y427800D02*
X316200Y428800D01*
X317200D01*
X316200Y429800D01*
X317200Y430800D01*
X316200D01*
X315200Y431800D01*
X314200Y430800D01*
X313200D01*
X314200Y429800D01*
X313200Y428800D01*
X314200D01*
X315200Y427800D01*
X318300Y394800D02*
X319300Y395800D01*
X320300D01*
X319300Y396800D01*
X320300Y397800D01*
X319300D01*
X318300Y398800D01*
X317300Y397800D01*
X316300D01*
X317300Y396800D01*
X316300Y395800D01*
X317300D01*
X318300Y394800D01*
X312000Y390968D02*
X313000Y391968D01*
X314000D01*
X313000Y392969D01*
X314000Y393969D01*
X313000D01*
X312000Y394969D01*
X311000Y393969D01*
X310000D01*
X311000Y392969D01*
X310000Y391968D01*
X311000D01*
X312000Y390968D01*
X322731Y390369D02*
X323731Y391369D01*
X324731D01*
X323731Y392369D01*
X324731Y393369D01*
X323731D01*
X322731Y394369D01*
X321731Y393369D01*
X320731D01*
X321731Y392369D01*
X320731Y391369D01*
X321731D01*
X322731Y390369D01*
X326431D02*
X327432Y391369D01*
X328432D01*
X327432Y392369D01*
X328432Y393369D01*
X327432D01*
X326431Y394369D01*
X325431Y393369D01*
X324431D01*
X325431Y392369D01*
X324431Y391369D01*
X325431D01*
X326431Y390369D01*
X322731Y416350D02*
X323731Y417350D01*
X324731D01*
X323731Y418350D01*
X324731Y419350D01*
X323731D01*
X322731Y420350D01*
X321731Y419350D01*
X320731D01*
X321731Y418350D01*
X320731Y417350D01*
X321731D01*
X322731Y416350D01*
X330132Y410032D02*
X331132Y411031D01*
X332132D01*
X331132Y412032D01*
X332132Y413031D01*
X331132D01*
X330132Y414032D01*
X329132Y413031D01*
X328132D01*
X329132Y412032D01*
X328132Y411031D01*
X329132D01*
X330132Y410032D01*
X324532Y462032D02*
X325532Y463032D01*
X326532D01*
X325532Y464032D01*
X326532Y465032D01*
X325532D01*
X324532Y466032D01*
X323532Y465032D01*
X322532D01*
X323532Y464032D01*
X322532Y463032D01*
X323532D01*
X324532Y462032D01*
Y453166D02*
X325532Y454166D01*
X326532D01*
X325532Y455166D01*
X326532Y456166D01*
X325532D01*
X324532Y457166D01*
X323532Y456166D01*
X322532D01*
X323532Y455166D01*
X322532Y454166D01*
X323532D01*
X324532Y453166D01*
Y444916D02*
X325532Y445916D01*
X326532D01*
X325532Y446916D01*
X326532Y447916D01*
X325532D01*
X324532Y448916D01*
X323532Y447916D01*
X322532D01*
X323532Y446916D01*
X322532Y445916D01*
X323532D01*
X324532Y444916D01*
Y438666D02*
X325532Y439666D01*
X326532D01*
X325532Y440666D01*
X326532Y441666D01*
X325532D01*
X324532Y442666D01*
X323532Y441666D01*
X322532D01*
X323532Y440666D01*
X322532Y439666D01*
X323532D01*
X324532Y438666D01*
Y432166D02*
X325532Y433166D01*
X326532D01*
X325532Y434166D01*
X326532Y435166D01*
X325532D01*
X324532Y436166D01*
X323532Y435166D01*
X322532D01*
X323532Y434166D01*
X322532Y433166D01*
X323532D01*
X324532Y432166D01*
X302000Y423500D02*
X303000Y424500D01*
X304000D01*
X303000Y425500D01*
X304000Y426500D01*
X303000D01*
X302000Y427500D01*
X301000Y426500D01*
X300000D01*
X301000Y425500D01*
X300000Y424500D01*
X301000D01*
X302000Y423500D01*
X297200Y407637D02*
X298200Y408637D01*
X299200D01*
X298200Y409637D01*
X299200Y410637D01*
X298200D01*
X297200Y411637D01*
X296200Y410637D01*
X295200D01*
X296200Y409637D01*
X295200Y408637D01*
X296200D01*
X297200Y407637D01*
Y414800D02*
X298200Y415800D01*
X299200D01*
X298200Y416800D01*
X299200Y417800D01*
X298200D01*
X297200Y418800D01*
X296200Y417800D01*
X295200D01*
X296200Y416800D01*
X295200Y415800D01*
X296200D01*
X297200Y414800D01*
X376100Y264634D02*
X377100Y265634D01*
X378100D01*
X377100Y266634D01*
X378100Y267634D01*
X377100D01*
X376100Y268634D01*
X375100Y267634D01*
X374100D01*
X375100Y266634D01*
X374100Y265634D01*
X375100D01*
X376100Y264634D01*
X369439Y301590D02*
X370439Y302590D01*
X371439D01*
X370439Y303590D01*
X371439Y304591D01*
X370439D01*
X369439Y305591D01*
X368439Y304591D01*
X367439D01*
X368439Y303590D01*
X367439Y302590D01*
X368439D01*
X369439Y301590D01*
X369604Y307935D02*
X370604Y308935D01*
X371604D01*
X370604Y309935D01*
X371604Y310935D01*
X370604D01*
X369604Y311935D01*
X368604Y310935D01*
X367604D01*
X368604Y309935D01*
X367604Y308935D01*
X368604D01*
X369604Y307935D01*
X391297Y308221D02*
X392297Y309221D01*
X393297D01*
X392297Y310221D01*
X393297Y311221D01*
X392297D01*
X391297Y312221D01*
X390297Y311221D01*
X389297D01*
X390297Y310221D01*
X389297Y309221D01*
X390297D01*
X391297Y308221D01*
X464109Y327625D02*
X465109Y328625D01*
X466109D01*
X465109Y329625D01*
X466109Y330625D01*
X465109D01*
X464109Y331625D01*
X463109Y330625D01*
X462109D01*
X463109Y329625D01*
X462109Y328625D01*
X463109D01*
X464109Y327625D01*
X475800Y316500D02*
X476800Y317500D01*
X477800D01*
X476800Y318500D01*
X477800Y319500D01*
X476800D01*
X475800Y320500D01*
X474800Y319500D01*
X473800D01*
X474800Y318500D01*
X473800Y317500D01*
X474800D01*
X475800Y316500D01*
Y322500D02*
X476800Y323500D01*
X477800D01*
X476800Y324500D01*
X477800Y325500D01*
X476800D01*
X475800Y326500D01*
X474800Y325500D01*
X473800D01*
X474800Y324500D01*
X473800Y323500D01*
X474800D01*
X475800Y322500D01*
X301200Y357746D02*
X302200Y358746D01*
X303200D01*
X302200Y359746D01*
X303200Y360746D01*
X302200D01*
X301200Y361746D01*
X300200Y360746D01*
X299200D01*
X300200Y359746D01*
X299200Y358746D01*
X300200D01*
X301200Y357746D01*
X411506Y355507D02*
X412506Y356507D01*
X413506D01*
X412506Y357507D01*
X413506Y358507D01*
X412506D01*
X411506Y359507D01*
X410506Y358507D01*
X409506D01*
X410506Y357507D01*
X409506Y356507D01*
X410506D01*
X411506Y355507D01*
Y359028D02*
X412506Y360028D01*
X413506D01*
X412506Y361028D01*
X413506Y362028D01*
X412506D01*
X411506Y363028D01*
X410506Y362028D01*
X409506D01*
X410506Y361028D01*
X409506Y360028D01*
X410506D01*
X411506Y359028D01*
X304003Y360937D02*
X305003Y361937D01*
X306003D01*
X305003Y362937D01*
X306003Y363937D01*
X305003D01*
X304003Y364937D01*
X303003Y363937D01*
X302003D01*
X303003Y362937D01*
X302003Y361937D01*
X303003D01*
X304003Y360937D01*
X429900Y302200D02*
X430900Y303200D01*
X431900D01*
X430900Y304200D01*
X431900Y305200D01*
X430900D01*
X429900Y306200D01*
X428900Y305200D01*
X427900D01*
X428900Y304200D01*
X427900Y303200D01*
X428900D01*
X429900Y302200D01*
X423400D02*
X424400Y303200D01*
X425400D01*
X424400Y304200D01*
X425400Y305200D01*
X424400D01*
X423400Y306200D01*
X422400Y305200D01*
X421400D01*
X422400Y304200D01*
X421400Y303200D01*
X422400D01*
X423400Y302200D01*
X429900Y279395D02*
X430900Y280395D01*
X431900D01*
X430900Y281395D01*
X431900Y282395D01*
X430900D01*
X429900Y283395D01*
X428900Y282395D01*
X427900D01*
X428900Y281395D01*
X427900Y280395D01*
X428900D01*
X429900Y279395D01*
X424300D02*
X425300Y280395D01*
X426300D01*
X425300Y281395D01*
X426300Y282395D01*
X425300D01*
X424300Y283395D01*
X423300Y282395D01*
X422300D01*
X423300Y281395D01*
X422300Y280395D01*
X423300D01*
X424300Y279395D01*
X350285Y347532D02*
X351285Y348532D01*
X352285D01*
X351285Y349532D01*
X352285Y350532D01*
X351285D01*
X350285Y351532D01*
X349285Y350532D01*
X348285D01*
X349285Y349532D01*
X348285Y348532D01*
X349285D01*
X350285Y347532D01*
X340769Y344169D02*
X341769Y345169D01*
X342769D01*
X341769Y346169D01*
X342769Y347169D01*
X341769D01*
X340769Y348169D01*
X339769Y347169D01*
X338769D01*
X339769Y346169D01*
X338769Y345169D01*
X339769D01*
X340769Y344169D01*
X348571Y377309D02*
X349571Y378309D01*
X350571D01*
X349571Y379309D01*
X350571Y380309D01*
X349571D01*
X348571Y381309D01*
X347571Y380309D01*
X346571D01*
X347571Y379309D01*
X346571Y378309D01*
X347571D01*
X348571Y377309D01*
Y382395D02*
X349571Y383395D01*
X350571D01*
X349571Y384395D01*
X350571Y385395D01*
X349571D01*
X348571Y386395D01*
X347571Y385395D01*
X346571D01*
X347571Y384395D01*
X346571Y383395D01*
X347571D01*
X348571Y382395D01*
Y387500D02*
X349571Y388500D01*
X350571D01*
X349571Y389500D01*
X350571Y390500D01*
X349571D01*
X348571Y391500D01*
X347571Y390500D01*
X346571D01*
X347571Y389500D01*
X346571Y388500D01*
X347571D01*
X348571Y387500D01*
X368140Y377309D02*
X369140Y378309D01*
X370140D01*
X369140Y379309D01*
X370140Y380309D01*
X369140D01*
X368140Y381309D01*
X367140Y380309D01*
X366140D01*
X367140Y379309D01*
X366140Y378309D01*
X367140D01*
X368140Y377309D01*
X310000Y352746D02*
X311000Y353746D01*
X312000D01*
X311000Y354746D01*
X312000Y355746D01*
X311000D01*
X310000Y356746D01*
X309000Y355746D01*
X308000D01*
X309000Y354746D01*
X308000Y353746D01*
X309000D01*
X310000Y352746D01*
Y362746D02*
X311000Y363746D01*
X312000D01*
X311000Y364746D01*
X312000Y365746D01*
X311000D01*
X310000Y366746D01*
X309000Y365746D01*
X308000D01*
X309000Y364746D01*
X308000Y363746D01*
X309000D01*
X310000Y362746D01*
X407700Y375200D02*
X408700Y376200D01*
X409700D01*
X408700Y377200D01*
X409700Y378200D01*
X408700D01*
X407700Y379200D01*
X406700Y378200D01*
X405700D01*
X406700Y377200D01*
X405700Y376200D01*
X406700D01*
X407700Y375200D01*
X402696D02*
X403696Y376200D01*
X404696D01*
X403696Y377200D01*
X404696Y378200D01*
X403696D01*
X402696Y379200D01*
X401696Y378200D01*
X400696D01*
X401696Y377200D01*
X400696Y376200D01*
X401696D01*
X402696Y375200D01*
X411506Y362925D02*
X412506Y363925D01*
X413506D01*
X412506Y364925D01*
X413506Y365925D01*
X412506D01*
X411506Y366925D01*
X410506Y365925D01*
X409506D01*
X410506Y364925D01*
X409506Y363925D01*
X410506D01*
X411506Y362925D01*
X394900Y341800D02*
X395900Y342800D01*
X396900D01*
X395900Y343800D01*
X396900Y344800D01*
X395900D01*
X394900Y345800D01*
X393900Y344800D01*
X392900D01*
X393900Y343800D01*
X392900Y342800D01*
X393900D01*
X394900Y341800D01*
X412900D02*
X413900Y342800D01*
X414900D01*
X413900Y343800D01*
X414900Y344800D01*
X413900D01*
X412900Y345800D01*
X411900Y344800D01*
X410900D01*
X411900Y343800D01*
X410900Y342800D01*
X411900D01*
X412900Y341800D01*
X417900Y362925D02*
X418900Y363925D01*
X419900D01*
X418900Y364925D01*
X419900Y365925D01*
X418900D01*
X417900Y366925D01*
X416900Y365925D01*
X415900D01*
X416900Y364925D01*
X415900Y363925D01*
X416900D01*
X417900Y362925D01*
X400900Y341800D02*
X401900Y342800D01*
X402900D01*
X401900Y343800D01*
X402900Y344800D01*
X401900D01*
X400900Y345800D01*
X399900Y344800D01*
X398900D01*
X399900Y343800D01*
X398900Y342800D01*
X399900D01*
X400900Y341800D01*
X333963Y390301D02*
X334963Y391301D01*
X335963D01*
X334963Y392301D01*
X335963Y393301D01*
X334963D01*
X333963Y394301D01*
X332963Y393301D01*
X331963D01*
X332963Y392301D01*
X331963Y391301D01*
X332963D01*
X333963Y390301D01*
X365499Y394435D02*
X366499Y395435D01*
X367499D01*
X366499Y396435D01*
X367499Y397435D01*
X366499D01*
X365499Y398435D01*
X364499Y397435D01*
X363499D01*
X364499Y396435D01*
X363499Y395435D01*
X364499D01*
X365499Y394435D01*
X341268Y355732D02*
X342268Y356732D01*
X343268D01*
X342268Y357732D01*
X343268Y358732D01*
X342268D01*
X341268Y359732D01*
X340268Y358732D01*
X339268D01*
X340268Y357732D01*
X339268Y356732D01*
X340268D01*
X341268Y355732D01*
X337332Y359668D02*
X338332Y360668D01*
X339332D01*
X338332Y361668D01*
X339332Y362668D01*
X338332D01*
X337332Y363668D01*
X336332Y362668D01*
X335332D01*
X336332Y361668D01*
X335332Y360668D01*
X336332D01*
X337332Y359668D01*
X450627Y311559D02*
X451627Y312559D01*
X452627D01*
X451627Y313559D01*
X452627Y314559D01*
X451627D01*
X450627Y315559D01*
X449627Y314559D01*
X448627D01*
X449627Y313559D01*
X448627Y312559D01*
X449627D01*
X450627Y311559D01*
X492800Y366600D02*
X493800Y367600D01*
X494800D01*
X493800Y368600D01*
X494800Y369600D01*
X493800D01*
X492800Y370600D01*
X491800Y369600D01*
X490800D01*
X491800Y368600D01*
X490800Y367600D01*
X491800D01*
X492800Y366600D01*
X427600Y336000D02*
X428600Y337000D01*
X429600D01*
X428600Y338000D01*
X429600Y339000D01*
X428600D01*
X427600Y340000D01*
X426600Y339000D01*
X425600D01*
X426600Y338000D01*
X425600Y337000D01*
X426600D01*
X427600Y336000D01*
X368140Y363588D02*
X369140Y364588D01*
X370140D01*
X369140Y365588D01*
X370140Y366588D01*
X369140D01*
X368140Y367588D01*
X367140Y366588D01*
X366140D01*
X367140Y365588D01*
X366140Y364588D01*
X367140D01*
X368140Y363588D01*
X434900Y271222D02*
X435900Y272222D01*
X436900D01*
X435900Y273222D01*
X436900Y274222D01*
X435900D01*
X434900Y275222D01*
X433900Y274222D01*
X432900D01*
X433900Y273222D01*
X432900Y272222D01*
X433900D01*
X434900Y271222D01*
X360700Y319655D02*
X361700Y320655D01*
X362700D01*
X361700Y321655D01*
X362700Y322655D01*
X361700D01*
X360700Y323655D01*
X359700Y322655D01*
X358700D01*
X359700Y321655D01*
X358700Y320655D01*
X359700D01*
X360700Y319655D01*
X369439Y283400D02*
X370439Y284400D01*
X371439D01*
X370439Y285400D01*
X371439Y286400D01*
X370439D01*
X369439Y287400D01*
X368439Y286400D01*
X367439D01*
X368439Y285400D01*
X367439Y284400D01*
X368439D01*
X369439Y283400D01*
X358161D02*
X359161Y284400D01*
X360161D01*
X359161Y285400D01*
X360161Y286400D01*
X359161D01*
X358161Y287400D01*
X357161Y286400D01*
X356161D01*
X357161Y285400D01*
X356161Y284400D01*
X357161D01*
X358161Y283400D01*
X363800D02*
X364800Y284400D01*
X365800D01*
X364800Y285400D01*
X365800Y286400D01*
X364800D01*
X363800Y287400D01*
X362800Y286400D01*
X361800D01*
X362800Y285400D01*
X361800Y284400D01*
X362800D01*
X363800Y283400D01*
X358161Y261300D02*
X359161Y262300D01*
X360161D01*
X359161Y263300D01*
X360161Y264300D01*
X359161D01*
X358161Y265300D01*
X357161Y264300D01*
X356161D01*
X357161Y263300D01*
X356161Y262300D01*
X357161D01*
X358161Y261300D01*
X363800Y269600D02*
X364800Y270600D01*
X365800D01*
X364800Y271600D01*
X365800Y272600D01*
X364800D01*
X363800Y273600D01*
X362800Y272600D01*
X361800D01*
X362800Y271600D01*
X361800Y270600D01*
X362800D01*
X363800Y269600D01*
X369439Y261288D02*
X370439Y262288D01*
X371439D01*
X370439Y263288D01*
X371439Y264288D01*
X370439D01*
X369439Y265288D01*
X368439Y264288D01*
X367439D01*
X368439Y263288D01*
X367439Y262288D01*
X368439D01*
X369439Y261288D01*
X357100Y314800D02*
X358100Y315800D01*
X359100D01*
X358100Y316800D01*
X359100Y317800D01*
X358100D01*
X357100Y318800D01*
X356100Y317800D01*
X355100D01*
X356100Y316800D01*
X355100Y315800D01*
X356100D01*
X357100Y314800D01*
X358005Y339169D02*
X359005Y340168D01*
X360005D01*
X359005Y341168D01*
X360005Y342168D01*
X359005D01*
X358005Y343168D01*
X357006Y342168D01*
X356006D01*
X357006Y341168D01*
X356006Y340168D01*
X357006D01*
X358005Y339169D01*
X453800Y383700D02*
X454800Y384700D01*
X455800D01*
X454800Y385700D01*
X455800Y386700D01*
X454800D01*
X453800Y387700D01*
X452800Y386700D01*
X451800D01*
X452800Y385700D01*
X451800Y384700D01*
X452800D01*
X453800Y383700D01*
X430300Y332700D02*
X431300Y333700D01*
X432300D01*
X431300Y334700D01*
X432300Y335700D01*
X431300D01*
X430300Y336700D01*
X429300Y335700D01*
X428300D01*
X429300Y334700D01*
X428300Y333700D01*
X429300D01*
X430300Y332700D01*
X375000Y383700D02*
X376000Y384700D01*
X377000D01*
X376000Y385700D01*
X377000Y386700D01*
X376000D01*
X375000Y387700D01*
X374000Y386700D01*
X373000D01*
X374000Y385700D01*
X373000Y384700D01*
X374000D01*
X375000Y383700D01*
X442364D02*
X443364Y384700D01*
X444364D01*
X443364Y385700D01*
X444364Y386700D01*
X443364D01*
X442364Y387700D01*
X441364Y386700D01*
X440364D01*
X441364Y385700D01*
X440364Y384700D01*
X441364D01*
X442364Y383700D01*
X433723Y389500D02*
X434723Y390500D01*
X435723D01*
X434723Y391500D01*
X435723Y392500D01*
X434723D01*
X433723Y393500D01*
X432723Y392500D01*
X431723D01*
X432723Y391500D01*
X431723Y390500D01*
X432723D01*
X433723Y389500D01*
X347900Y463300D02*
X348900Y464300D01*
X349900D01*
X348900Y465300D01*
X349900Y466300D01*
X348900D01*
X347900Y467300D01*
X346900Y466300D01*
X345900D01*
X346900Y465300D01*
X345900Y464300D01*
X346900D01*
X347900Y463300D01*
Y459100D02*
X348900Y460100D01*
X349900D01*
X348900Y461100D01*
X349900Y462100D01*
X348900D01*
X347900Y463100D01*
X346900Y462100D01*
X345900D01*
X346900Y461100D01*
X345900Y460100D01*
X346900D01*
X347900Y459100D01*
X360739Y403631D02*
X361739Y404631D01*
X362739D01*
X361739Y405631D01*
X362739Y406631D01*
X361739D01*
X360739Y407631D01*
X359739Y406631D01*
X358739D01*
X359739Y405631D01*
X358739Y404631D01*
X359739D01*
X360739Y403631D01*
X384400Y413765D02*
X385400Y414765D01*
X386400D01*
X385400Y415765D01*
X386400Y416765D01*
X385400D01*
X384400Y417765D01*
X383400Y416765D01*
X382400D01*
X383400Y415765D01*
X382400Y414765D01*
X383400D01*
X384400Y413765D01*
X304200Y387500D02*
X305200Y388500D01*
X306200D01*
X305200Y389500D01*
X306200Y390500D01*
X305200D01*
X304200Y391500D01*
X303200Y390500D01*
X302200D01*
X303200Y389500D01*
X302200Y388500D01*
X303200D01*
X304200Y387500D01*
X472914Y433900D02*
X473914Y434900D01*
X474914D01*
X473914Y435900D01*
X474914Y436900D01*
X473914D01*
X472914Y437900D01*
X471914Y436900D01*
X470914D01*
X471914Y435900D01*
X470914Y434900D01*
X471914D01*
X472914Y433900D01*
X467914D02*
X468914Y434900D01*
X469914D01*
X468914Y435900D01*
X469914Y436900D01*
X468914D01*
X467914Y437900D01*
X466914Y436900D01*
X465914D01*
X466914Y435900D01*
X465914Y434900D01*
X466914D01*
X467914Y433900D01*
X462914D02*
X463914Y434900D01*
X464914D01*
X463914Y435900D01*
X464914Y436900D01*
X463914D01*
X462914Y437900D01*
X461914Y436900D01*
X460914D01*
X461914Y435900D01*
X460914Y434900D01*
X461914D01*
X462914Y433900D01*
X484800Y408400D02*
X485800Y409400D01*
X486800D01*
X485800Y410400D01*
X486800Y411400D01*
X485800D01*
X484800Y412400D01*
X483800Y411400D01*
X482800D01*
X483800Y410400D01*
X482800Y409400D01*
X483800D01*
X484800Y408400D01*
X412100Y394400D02*
X413100Y395400D01*
X414100D01*
X413100Y396400D01*
X414100Y397400D01*
X413100D01*
X412100Y398400D01*
X411100Y397400D01*
X410100D01*
X411100Y396400D01*
X410100Y395400D01*
X411100D01*
X412100Y394400D01*
X330614Y449000D02*
X331614Y450000D01*
X332614D01*
X331614Y451000D01*
X332614Y452000D01*
X331614D01*
X330614Y453000D01*
X329614Y452000D01*
X328614D01*
X329614Y451000D01*
X328614Y450000D01*
X329614D01*
X330614Y449000D01*
X462914Y477946D02*
X463914Y478946D01*
X464914D01*
X463914Y479946D01*
X464914Y480946D01*
X463914D01*
X462914Y481946D01*
X461914Y480946D01*
X460914D01*
X461914Y479946D01*
X460914Y478946D01*
X461914D01*
X462914Y477946D01*
X426855Y498800D02*
X427855Y499800D01*
X428855D01*
X427855Y500800D01*
X428855Y501800D01*
X427855D01*
X426855Y502800D01*
X425855Y501800D01*
X424855D01*
X425855Y500800D01*
X424855Y499800D01*
X425855D01*
X426855Y498800D01*
X434605D02*
X435605Y499800D01*
X436605D01*
X435605Y500800D01*
X436605Y501800D01*
X435605D01*
X434605Y502800D01*
X433605Y501800D01*
X432605D01*
X433605Y500800D01*
X432605Y499800D01*
X433605D01*
X434605Y498800D01*
X441402D02*
X442402Y499800D01*
X443402D01*
X442402Y500800D01*
X443402Y501800D01*
X442402D01*
X441402Y502800D01*
X440402Y501800D01*
X439402D01*
X440402Y500800D01*
X439402Y499800D01*
X440402D01*
X441402Y498800D01*
X419105D02*
X420105Y499800D01*
X421105D01*
X420105Y500800D01*
X421105Y501800D01*
X420105D01*
X419105Y502800D01*
X418105Y501800D01*
X417105D01*
X418105Y500800D01*
X417105Y499800D01*
X418105D01*
X419105Y498800D01*
X448200D02*
X449200Y499800D01*
X450200D01*
X449200Y500800D01*
X450200Y501800D01*
X449200D01*
X448200Y502800D01*
X447200Y501800D01*
X446200D01*
X447200Y500800D01*
X446200Y499800D01*
X447200D01*
X448200Y498800D01*
X462914Y493500D02*
X463914Y494500D01*
X464914D01*
X463914Y495500D01*
X464914Y496500D01*
X463914D01*
X462914Y497500D01*
X461914Y496500D01*
X460914D01*
X461914Y495500D01*
X460914Y494500D01*
X461914D01*
X462914Y493500D01*
X456656D02*
X457656Y494500D01*
X458656D01*
X457656Y495500D01*
X458656Y496500D01*
X457656D01*
X456656Y497500D01*
X455656Y496500D01*
X454656D01*
X455656Y495500D01*
X454656Y494500D01*
X455656D01*
X456656Y493500D01*
X314200Y475539D02*
X315200Y476539D01*
X316200D01*
X315200Y477539D01*
X316200Y478539D01*
X315200D01*
X314200Y479539D01*
X313200Y478539D01*
X312200D01*
X313200Y477539D01*
X312200Y476539D01*
X313200D01*
X314200Y475539D01*
X320000D02*
X321000Y476539D01*
X322000D01*
X321000Y477539D01*
X322000Y478539D01*
X321000D01*
X320000Y479539D01*
X319000Y478539D01*
X318000D01*
X319000Y477539D01*
X318000Y476539D01*
X319000D01*
X320000Y475539D01*
X314200Y470300D02*
X315200Y471300D01*
X316200D01*
X315200Y472300D01*
X316200Y473300D01*
X315200D01*
X314200Y474300D01*
X313200Y473300D01*
X312200D01*
X313200Y472300D01*
X312200Y471300D01*
X313200D01*
X314200Y470300D01*
X320000D02*
X321000Y471300D01*
X322000D01*
X321000Y472300D01*
X322000Y473300D01*
X321000D01*
X320000Y474300D01*
X319000Y473300D01*
X318000D01*
X319000Y472300D01*
X318000Y471300D01*
X319000D01*
X320000Y470300D01*
X341514Y470161D02*
X342514Y471161D01*
X343514D01*
X342514Y472161D01*
X343514Y473161D01*
X342514D01*
X341514Y474161D01*
X340514Y473161D01*
X339514D01*
X340514Y472161D01*
X339514Y471161D01*
X340514D01*
X341514Y470161D01*
X335714D02*
X336714Y471161D01*
X337714D01*
X336714Y472161D01*
X337714Y473161D01*
X336714D01*
X335714Y474161D01*
X334714Y473161D01*
X333714D01*
X334714Y472161D01*
X333714Y471161D01*
X334714D01*
X335714Y470161D01*
X426800Y477100D02*
X427800Y478100D01*
X428800D01*
X427800Y479100D01*
X428800Y480100D01*
X427800D01*
X426800Y481100D01*
X425800Y480100D01*
X424800D01*
X425800Y479100D01*
X424800Y478100D01*
X425800D01*
X426800Y477100D01*
X434605Y477223D02*
X435605Y478223D01*
X436605D01*
X435605Y479223D01*
X436605Y480223D01*
X435605D01*
X434605Y481223D01*
X433605Y480223D01*
X432605D01*
X433605Y479223D01*
X432605Y478223D01*
X433605D01*
X434605Y477223D01*
X419105D02*
X420105Y478223D01*
X421105D01*
X420105Y479223D01*
X421105Y480223D01*
X420105D01*
X419105Y481223D01*
X418105Y480223D01*
X417105D01*
X418105Y479223D01*
X417105Y478223D01*
X418105D01*
X419105Y477223D01*
X388392Y461946D02*
X389392Y462946D01*
X390392D01*
X389392Y463946D01*
X390392Y464946D01*
X389392D01*
X388392Y465946D01*
X387392Y464946D01*
X386392D01*
X387392Y463946D01*
X386392Y462946D01*
X387392D01*
X388392Y461946D01*
X393495D02*
X394495Y462946D01*
X395495D01*
X394495Y463946D01*
X395495Y464946D01*
X394495D01*
X393495Y465946D01*
X392495Y464946D01*
X391495D01*
X392495Y463946D01*
X391495Y462946D01*
X392495D01*
X393495Y461946D01*
X398597D02*
X399597Y462946D01*
X400597D01*
X399597Y463946D01*
X400597Y464946D01*
X399597D01*
X398597Y465946D01*
X397597Y464946D01*
X396597D01*
X397597Y463946D01*
X396597Y462946D01*
X397597D01*
X398597Y461946D01*
X403700Y457423D02*
X404700Y458423D01*
X405700D01*
X404700Y459423D01*
X405700Y460423D01*
X404700D01*
X403700Y461423D01*
X402700Y460423D01*
X401700D01*
X402700Y459423D01*
X401700Y458423D01*
X402700D01*
X403700Y457423D01*
Y452900D02*
X404700Y453900D01*
X405700D01*
X404700Y454900D01*
X405700Y455900D01*
X404700D01*
X403700Y456900D01*
X402700Y455900D01*
X401700D01*
X402700Y454900D01*
X401700Y453900D01*
X402700D01*
X403700Y452900D01*
X383290Y461946D02*
X384290Y462946D01*
X385290D01*
X384290Y463946D01*
X385290Y464946D01*
X384290D01*
X383290Y465946D01*
X382290Y464946D01*
X381290D01*
X382290Y463946D01*
X381290Y462946D01*
X382290D01*
X383290Y461946D01*
X341514Y475400D02*
X342514Y476400D01*
X343514D01*
X342514Y477400D01*
X343514Y478400D01*
X342514D01*
X341514Y479400D01*
X340514Y478400D01*
X339514D01*
X340514Y477400D01*
X339514Y476400D01*
X340514D01*
X341514Y475400D01*
X335714D02*
X336714Y476400D01*
X337714D01*
X336714Y477400D01*
X337714Y478400D01*
X336714D01*
X335714Y479400D01*
X334714Y478400D01*
X333714D01*
X334714Y477400D01*
X333714Y476400D01*
X334714D01*
X335714Y475400D01*
X329400Y470300D02*
X330400Y471300D01*
X331400D01*
X330400Y472300D01*
X331400Y473300D01*
X330400D01*
X329400Y474300D01*
X328400Y473300D01*
X327400D01*
X328400Y472300D01*
X327400Y471300D01*
X328400D01*
X329400Y470300D01*
Y466166D02*
X330400Y467166D01*
X331400D01*
X330400Y468166D01*
X331400Y469166D01*
X330400D01*
X329400Y470166D01*
X328400Y469166D01*
X327400D01*
X328400Y468166D01*
X327400Y467166D01*
X328400D01*
X329400Y466166D01*
X350614Y449000D02*
X351614Y450000D01*
X352614D01*
X351614Y451000D01*
X352614Y452000D01*
X351614D01*
X350614Y453000D01*
X349614Y452000D01*
X348614D01*
X349614Y451000D01*
X348614Y450000D01*
X349614D01*
X350614Y449000D01*
X346614D02*
X347614Y450000D01*
X348614D01*
X347614Y451000D01*
X348614Y452000D01*
X347614D01*
X346614Y453000D01*
X345614Y452000D01*
X344614D01*
X345614Y451000D01*
X344614Y450000D01*
X345614D01*
X346614Y449000D01*
X338614D02*
X339614Y450000D01*
X340614D01*
X339614Y451000D01*
X340614Y452000D01*
X339614D01*
X338614Y453000D01*
X337614Y452000D01*
X336614D01*
X337614Y451000D01*
X336614Y450000D01*
X337614D01*
X338614Y449000D01*
X403700Y461946D02*
X404700Y462946D01*
X405700D01*
X404700Y463946D01*
X405700Y464946D01*
X404700D01*
X403700Y465946D01*
X402700Y464946D01*
X401700D01*
X402700Y463946D01*
X401700Y462946D01*
X402700D01*
X403700Y461946D01*
M02*
