G04*
G04 #@! TF.GenerationSoftware,Altium Limited,Altium Designer,25.4.2 (15)*
G04*
G04 Layer_Color=8388736*
%FSLAX25Y25*%
%MOIN*%
G70*
G04*
G04 #@! TF.SameCoordinates,B977156D-3F5D-4D44-89CA-F2FD908ED1DE*
G04*
G04*
G04 #@! TF.FilePolarity,Positive*
G04*
G01*
G75*
%ADD11C,0.00500*%
%ADD22C,0.01000*%
%ADD129C,0.01516*%
D11*
X375953Y493434D02*
G03*
X375953Y493434I-3937J0D01*
G01*
X454693Y276859D02*
G03*
X454693Y276859I-3937J0D01*
G01*
D22*
X483752Y249340D02*
X522900D01*
X483752Y509182D02*
X522900D01*
X521900Y249340D02*
Y303386D01*
Y450104D02*
Y509182D01*
Y249340D02*
X523900Y255340D01*
X519900D02*
X521900Y249340D01*
X519900Y503182D02*
X521900Y509182D01*
X523900Y503182D01*
X309024Y249340D02*
X482252D01*
X482252Y249340D02*
Y324143D01*
Y510682D02*
Y535500D01*
X309024Y510682D02*
Y535500D01*
X466481Y534500D02*
X482252D01*
X309024D02*
X319763D01*
X476252Y536500D02*
X482252Y534500D01*
X476252Y532500D02*
X482252Y534500D01*
X309024D02*
X315024Y532500D01*
X309024Y534500D02*
X315024Y536500D01*
X309024Y509182D02*
X482252D01*
X309024Y249301D02*
Y324104D01*
X293276D02*
X309024D01*
X293276D02*
X309024D01*
X482252Y324143D02*
X498000D01*
X482252D02*
X498000D01*
X293276Y324104D02*
Y434340D01*
X498000Y324143D02*
Y434379D01*
X293276Y434340D02*
X309024D01*
X482252Y434379D02*
X498000D01*
X482252D02*
X498000D01*
X309024D02*
Y509182D01*
X482252Y434379D02*
Y509182D01*
D129*
X515544Y316397D02*
X518168Y311150D01*
X523416Y305902D01*
X528663D01*
X531287Y308526D01*
Y313774D01*
X528663Y316397D01*
X526040D01*
X523416Y313774D01*
Y305902D01*
X515544Y332140D02*
X518168Y326893D01*
X523416Y321645D01*
X528663D01*
X531287Y324269D01*
Y329517D01*
X528663Y332140D01*
X526040D01*
X523416Y329517D01*
Y321645D01*
X531287Y337388D02*
X528663D01*
Y340012D01*
X531287D01*
Y337388D01*
X518168Y350507D02*
X515544Y353131D01*
Y358379D01*
X518168Y361002D01*
X528663D01*
X531287Y358379D01*
Y353131D01*
X528663Y350507D01*
X518168D01*
Y366250D02*
X515544Y368874D01*
Y374121D01*
X518168Y376745D01*
X528663D01*
X531287Y374121D01*
Y368874D01*
X528663Y366250D01*
X518168D01*
X531287Y402984D02*
X526040Y397736D01*
X520792D01*
X515544Y402984D01*
X531287Y410855D02*
X520792D01*
Y413479D01*
X523416Y416103D01*
X531287D01*
X523416D01*
X520792Y418726D01*
X523416Y421350D01*
X531287D01*
Y426598D02*
X520792D01*
Y429222D01*
X523416Y431846D01*
X531287D01*
X523416D01*
X520792Y434470D01*
X523416Y437093D01*
X531287D01*
Y442341D02*
X526040Y447589D01*
X520792D01*
X515544Y442341D01*
X330150Y525113D02*
Y540856D01*
X322279Y532984D01*
X332774D01*
X345893Y525113D02*
Y540856D01*
X338022Y532984D01*
X348517D01*
X353765Y525113D02*
Y527737D01*
X356388D01*
Y525113D01*
X353765D01*
X366884Y538232D02*
X369508Y540856D01*
X374755D01*
X377379Y538232D01*
Y527737D01*
X374755Y525113D01*
X369508D01*
X366884Y527737D01*
Y538232D01*
X382627D02*
X385251Y540856D01*
X390498D01*
X393122Y538232D01*
Y527737D01*
X390498Y525113D01*
X385251D01*
X382627Y527737D01*
Y538232D01*
X419360Y525113D02*
X414113Y530360D01*
Y535608D01*
X419360Y540856D01*
X427232Y525113D02*
Y535608D01*
X429856D01*
X432479Y532984D01*
Y525113D01*
Y532984D01*
X435103Y535608D01*
X437727Y532984D01*
Y525113D01*
X442975D02*
Y535608D01*
X445599D01*
X448222Y532984D01*
Y525113D01*
Y532984D01*
X450846Y535608D01*
X453470Y532984D01*
Y525113D01*
X458718D02*
X463965Y530360D01*
Y535608D01*
X458718Y540856D01*
M02*
